G04*
G04 #@! TF.GenerationSoftware,Altium Limited,Altium Designer,22.7.1 (60)*
G04*
G04 Layer_Color=16711935*
%FSLAX25Y25*%
%MOIN*%
G70*
G04*
G04 #@! TF.SameCoordinates,B4DE3396-8346-461D-A6ED-AD7C64C63353*
G04*
G04*
G04 #@! TF.FilePolarity,Negative*
G04*
G01*
G75*
%ADD25C,0.20800*%
%ADD26O,0.11824X0.09068*%
%ADD27O,0.10642X0.06312*%
%ADD28R,0.10642X0.06312*%
%ADD29C,0.13398*%
%ADD30C,0.07099*%
%ADD31R,0.07099X0.07099*%
%ADD32R,0.07099X0.07099*%
D25*
X255906Y299213D02*
D03*
X145905D02*
D03*
D26*
X440945Y283465D02*
D03*
Y251181D02*
D03*
X413386Y283465D02*
D03*
Y251181D02*
D03*
X551181Y283465D02*
D03*
Y251181D02*
D03*
X523622Y283465D02*
D03*
Y251181D02*
D03*
X496063Y283465D02*
D03*
Y251181D02*
D03*
X468504Y283465D02*
D03*
Y251181D02*
D03*
X358268Y283465D02*
D03*
Y251181D02*
D03*
X385827Y283465D02*
D03*
Y251181D02*
D03*
D27*
X440945Y275197D02*
D03*
Y267323D02*
D03*
X413386Y275197D02*
D03*
Y267323D02*
D03*
X551181Y275197D02*
D03*
Y267323D02*
D03*
X523622Y275197D02*
D03*
Y267323D02*
D03*
X496063Y275197D02*
D03*
Y267323D02*
D03*
X468504Y275197D02*
D03*
Y267323D02*
D03*
X358268Y275197D02*
D03*
Y267323D02*
D03*
X385827Y275197D02*
D03*
Y267323D02*
D03*
D28*
X440945Y259449D02*
D03*
X413386D02*
D03*
X551181D02*
D03*
X523622D02*
D03*
X496063D02*
D03*
X468504D02*
D03*
X358268D02*
D03*
X385827D02*
D03*
D29*
X327953Y326772D02*
D03*
X286221D02*
D03*
D30*
X307087Y299213D02*
D03*
X316929D02*
D03*
X297244D02*
D03*
X281496Y401575D02*
D03*
X343547Y443450D02*
D03*
X353547D02*
D03*
X363547D02*
D03*
X373547D02*
D03*
X383547D02*
D03*
X393547D02*
D03*
X463547D02*
D03*
X453547D02*
D03*
X443547D02*
D03*
X433547D02*
D03*
X423547D02*
D03*
X413547D02*
D03*
X403547D02*
D03*
X215905Y443213D02*
D03*
X205906D02*
D03*
X195905D02*
D03*
X473547Y363450D02*
D03*
X463547D02*
D03*
X453547D02*
D03*
X443547D02*
D03*
X433547D02*
D03*
X423547D02*
D03*
X353547D02*
D03*
X363547D02*
D03*
X373547D02*
D03*
X383547D02*
D03*
X393547D02*
D03*
X403547D02*
D03*
X413547D02*
D03*
D31*
X301181Y401575D02*
D03*
D32*
X473547Y443450D02*
D03*
X185906Y443213D02*
D03*
X343547Y363450D02*
D03*
M02*
