G04*
G04 #@! TF.GenerationSoftware,Altium Limited,Altium Designer,22.7.1 (60)*
G04*
G04 Layer_Color=8388736*
%FSLAX25Y25*%
%MOIN*%
G70*
G04*
G04 #@! TF.SameCoordinates,B4DE3396-8346-461D-A6ED-AD7C64C63353*
G04*
G04*
G04 #@! TF.FilePolarity,Negative*
G04*
G01*
G75*
%ADD20R,0.03950X0.04540*%
%ADD21R,0.11036X0.06706*%
%ADD22R,0.04934X0.04737*%
%ADD23R,0.02769X0.04343*%
%ADD24R,0.13005X0.04737*%
%ADD25C,0.20800*%
%ADD26O,0.11824X0.09068*%
%ADD27O,0.10642X0.06312*%
%ADD28R,0.10642X0.06312*%
%ADD29C,0.13398*%
%ADD30C,0.07099*%
%ADD31R,0.07099X0.07099*%
%ADD32R,0.07099X0.07099*%
D20*
X443504Y414961D02*
D03*
X438386D02*
D03*
X526181Y400787D02*
D03*
X521063D02*
D03*
X471063D02*
D03*
X465945D02*
D03*
X443504D02*
D03*
X438386D02*
D03*
X443504Y409055D02*
D03*
X438386D02*
D03*
X443504Y380315D02*
D03*
X438386D02*
D03*
X471063D02*
D03*
X465945D02*
D03*
X471063Y409055D02*
D03*
X465945D02*
D03*
X471063Y414961D02*
D03*
X465945D02*
D03*
X553740D02*
D03*
X548622D02*
D03*
X498622Y400787D02*
D03*
X493504D02*
D03*
X553740D02*
D03*
X548622D02*
D03*
X553740Y380315D02*
D03*
X548622D02*
D03*
X553740Y409055D02*
D03*
X548622D02*
D03*
X498622Y414961D02*
D03*
X493504D02*
D03*
X526181Y380315D02*
D03*
X521063D02*
D03*
X526181Y409055D02*
D03*
X521063D02*
D03*
X498622Y380315D02*
D03*
X493504D02*
D03*
X498622Y409055D02*
D03*
X493504D02*
D03*
X335236Y401575D02*
D03*
X330118D02*
D03*
X213976Y409055D02*
D03*
X219094D02*
D03*
X203346D02*
D03*
X208465D02*
D03*
X335236Y395669D02*
D03*
X330118D02*
D03*
X526181Y414961D02*
D03*
X521063D02*
D03*
X415945Y400787D02*
D03*
X410827D02*
D03*
X360827D02*
D03*
X355709D02*
D03*
X415945Y409055D02*
D03*
X410827D02*
D03*
X415945Y380315D02*
D03*
X410827D02*
D03*
X388386Y409055D02*
D03*
X383268D02*
D03*
X388386Y414961D02*
D03*
X383268D02*
D03*
X415945D02*
D03*
X410827D02*
D03*
X360827Y380315D02*
D03*
X355709D02*
D03*
X360827Y409055D02*
D03*
X355709D02*
D03*
X360827Y414961D02*
D03*
X355709D02*
D03*
X388386Y400787D02*
D03*
X383268D02*
D03*
X388386Y380315D02*
D03*
X383268D02*
D03*
D21*
X440945Y321260D02*
D03*
Y333071D02*
D03*
X468504Y321260D02*
D03*
Y333071D02*
D03*
X496063Y321260D02*
D03*
Y333071D02*
D03*
X551181Y321260D02*
D03*
Y333071D02*
D03*
X523622Y321260D02*
D03*
Y333071D02*
D03*
X358268Y321260D02*
D03*
Y333071D02*
D03*
X413386Y321260D02*
D03*
Y333071D02*
D03*
X385827Y321260D02*
D03*
Y333071D02*
D03*
D22*
X335630Y407480D02*
D03*
X329724D02*
D03*
X443898Y420866D02*
D03*
X437992D02*
D03*
X471457D02*
D03*
X465551D02*
D03*
X554134D02*
D03*
X548228D02*
D03*
X361221D02*
D03*
X355315D02*
D03*
X499016D02*
D03*
X493110D02*
D03*
X459646Y433071D02*
D03*
X453740D02*
D03*
X526575Y420866D02*
D03*
X520669D02*
D03*
X416339D02*
D03*
X410433D02*
D03*
X388779D02*
D03*
X382874D02*
D03*
D23*
X553740Y394980D02*
D03*
X548622D02*
D03*
X551181Y386122D02*
D03*
X471063Y394980D02*
D03*
X465945D02*
D03*
X468504Y386122D02*
D03*
X443504Y394980D02*
D03*
X438386D02*
D03*
X440945Y386122D02*
D03*
X360827Y394980D02*
D03*
X355709D02*
D03*
X358268Y386122D02*
D03*
X526181Y394980D02*
D03*
X521063D02*
D03*
X523622Y386122D02*
D03*
X498622Y394980D02*
D03*
X493504D02*
D03*
X496063Y386122D02*
D03*
X213976Y415256D02*
D03*
X219094D02*
D03*
X216535Y424114D02*
D03*
X203346Y415256D02*
D03*
X208465D02*
D03*
X205906Y424114D02*
D03*
X415945Y394980D02*
D03*
X410827D02*
D03*
X413386Y386122D02*
D03*
X388386Y394980D02*
D03*
X383268D02*
D03*
X385827Y386122D02*
D03*
D24*
X289567Y259449D02*
D03*
Y275197D02*
D03*
X324606Y259449D02*
D03*
Y275197D02*
D03*
D25*
X255906Y299213D02*
D03*
X145905D02*
D03*
D26*
X440945Y283465D02*
D03*
Y251181D02*
D03*
X413386Y283465D02*
D03*
Y251181D02*
D03*
X551181Y283465D02*
D03*
Y251181D02*
D03*
X523622Y283465D02*
D03*
Y251181D02*
D03*
X496063Y283465D02*
D03*
Y251181D02*
D03*
X468504Y283465D02*
D03*
Y251181D02*
D03*
X358268Y283465D02*
D03*
Y251181D02*
D03*
X385827Y283465D02*
D03*
Y251181D02*
D03*
D27*
X440945Y275197D02*
D03*
Y267323D02*
D03*
X413386Y275197D02*
D03*
Y267323D02*
D03*
X551181Y275197D02*
D03*
Y267323D02*
D03*
X523622Y275197D02*
D03*
Y267323D02*
D03*
X496063Y275197D02*
D03*
Y267323D02*
D03*
X468504Y275197D02*
D03*
Y267323D02*
D03*
X358268Y275197D02*
D03*
Y267323D02*
D03*
X385827Y275197D02*
D03*
Y267323D02*
D03*
D28*
X440945Y259449D02*
D03*
X413386D02*
D03*
X551181D02*
D03*
X523622D02*
D03*
X496063D02*
D03*
X468504D02*
D03*
X358268D02*
D03*
X385827D02*
D03*
D29*
X327953Y326772D02*
D03*
X286221D02*
D03*
D30*
X307087Y299213D02*
D03*
X316929D02*
D03*
X297244D02*
D03*
X281496Y401575D02*
D03*
X343547Y443450D02*
D03*
X353547D02*
D03*
X363547D02*
D03*
X373547D02*
D03*
X383547D02*
D03*
X393547D02*
D03*
X463547D02*
D03*
X453547D02*
D03*
X443547D02*
D03*
X433547D02*
D03*
X423547D02*
D03*
X413547D02*
D03*
X403547D02*
D03*
X215905Y443213D02*
D03*
X205906D02*
D03*
X195905D02*
D03*
X473547Y363450D02*
D03*
X463547D02*
D03*
X453547D02*
D03*
X443547D02*
D03*
X433547D02*
D03*
X423547D02*
D03*
X353547D02*
D03*
X363547D02*
D03*
X373547D02*
D03*
X383547D02*
D03*
X393547D02*
D03*
X403547D02*
D03*
X413547D02*
D03*
D31*
X301181Y401575D02*
D03*
D32*
X473547Y443450D02*
D03*
X185906Y443213D02*
D03*
X343547Y363450D02*
D03*
M02*
