G04*
G04 #@! TF.GenerationSoftware,Altium Limited,Altium Designer,22.7.1 (60)*
G04*
G04 Layer_Physical_Order=4*
G04 Layer_Color=16711680*
%FSLAX25Y25*%
%MOIN*%
G70*
G04*
G04 #@! TF.SameCoordinates,B4DE3396-8346-461D-A6ED-AD7C64C63353*
G04*
G04*
G04 #@! TF.FilePolarity,Positive*
G04*
G01*
G75*
%ADD13C,0.01968*%
%ADD33C,0.01575*%
%ADD34C,0.20000*%
%ADD35O,0.11024X0.08268*%
%ADD36O,0.09843X0.05512*%
%ADD37R,0.09843X0.05512*%
%ADD38C,0.12598*%
%ADD39C,0.06299*%
%ADD40R,0.06299X0.06299*%
%ADD41R,0.06299X0.06299*%
%ADD42C,0.01968*%
G36*
X558431Y451206D02*
X560105Y450513D01*
X561611Y449506D01*
X562892Y448225D01*
X563899Y446719D01*
X564592Y445045D01*
X564945Y443268D01*
Y442362D01*
X564945Y228110D01*
X564945Y227204D01*
X564592Y225428D01*
X563899Y223754D01*
X562892Y222247D01*
X561611Y220966D01*
X560105Y219960D01*
X558431Y219267D01*
X556654Y218913D01*
X555748Y218913D01*
X152756Y218913D01*
X135078D01*
X133301Y219266D01*
X131628Y219960D01*
X130121Y220966D01*
X128840Y222247D01*
X127834Y223754D01*
X127140Y225428D01*
X126787Y227204D01*
Y228110D01*
X126787Y442362D01*
Y443268D01*
X127140Y445045D01*
X127834Y446719D01*
X128840Y448225D01*
X130121Y449506D01*
X131628Y450513D01*
X133301Y451206D01*
X135078Y451559D01*
X135984Y451559D01*
X556654D01*
X558431Y451206D01*
D02*
G37*
%LPC*%
G36*
X527991Y450210D02*
X527990Y450210D01*
X368484D01*
X368484Y450210D01*
X367786Y450071D01*
X367195Y449676D01*
X367195Y449676D01*
X364902Y447383D01*
X364093Y447600D01*
X363000D01*
X361945Y447317D01*
X360999Y446771D01*
X360226Y445998D01*
X359680Y445052D01*
X359397Y443997D01*
Y442904D01*
X359680Y441849D01*
X360226Y440903D01*
X360676Y440452D01*
X360513Y440059D01*
X359516D01*
X357479Y442095D01*
X357696Y442904D01*
Y443997D01*
X357414Y445052D01*
X356867Y445998D01*
X356095Y446771D01*
X355148Y447317D01*
X354093Y447600D01*
X353000D01*
X351945Y447317D01*
X350999Y446771D01*
X350226Y445998D01*
X349680Y445052D01*
X349397Y443997D01*
Y442904D01*
X349680Y441849D01*
X350226Y440903D01*
X350999Y440130D01*
X351945Y439584D01*
X353000Y439301D01*
X354093D01*
X354902Y439518D01*
X356572Y437848D01*
X356421Y437484D01*
X352091D01*
X347479Y442095D01*
X347696Y442904D01*
Y443997D01*
X347413Y445052D01*
X346867Y445998D01*
X346095Y446771D01*
X345148Y447317D01*
X344093Y447600D01*
X343000D01*
X341945Y447317D01*
X340999Y446771D01*
X340226Y445998D01*
X339680Y445052D01*
X339397Y443997D01*
Y442904D01*
X339680Y441849D01*
X340226Y440903D01*
X340999Y440130D01*
X341945Y439584D01*
X343000Y439301D01*
X344093D01*
X344902Y439518D01*
X350047Y434373D01*
X350047Y434373D01*
X350638Y433978D01*
X351336Y433839D01*
X351336Y433839D01*
X449439D01*
X449590Y433475D01*
X449400Y433286D01*
X449098Y432557D01*
Y431767D01*
X449185Y431558D01*
Y429987D01*
X448515Y429317D01*
X448119Y428725D01*
X447981Y428028D01*
X447981Y428028D01*
Y422620D01*
X447981Y422620D01*
X448119Y421923D01*
X448515Y421332D01*
X455855Y413992D01*
Y390873D01*
X455461Y390794D01*
X455422Y390888D01*
X454864Y391446D01*
X454135Y391748D01*
X453345D01*
X452616Y391446D01*
X452058Y390888D01*
X451896Y390497D01*
X437195Y375796D01*
X436800Y375205D01*
X436661Y374507D01*
X436661Y374507D01*
Y366719D01*
X436298Y366568D01*
X436095Y366771D01*
X435148Y367317D01*
X434093Y367600D01*
X433000D01*
X431945Y367317D01*
X430999Y366771D01*
X430796Y366568D01*
X430432Y366719D01*
Y390830D01*
X435434Y395831D01*
X436219D01*
X436219Y395831D01*
X436916Y395970D01*
X437508Y396365D01*
X443686Y402543D01*
X444292D01*
X445022Y402845D01*
X445580Y403404D01*
X445882Y404133D01*
Y404922D01*
X445580Y405652D01*
X445022Y406210D01*
X444292Y406512D01*
X443503D01*
X442850Y406241D01*
X442320Y406136D01*
X441729Y405741D01*
X441729Y405741D01*
X435464Y399476D01*
X434679D01*
X434679Y399476D01*
X433981Y399337D01*
X433390Y398942D01*
X433390Y398942D01*
X427321Y392873D01*
X426926Y392282D01*
X426787Y391584D01*
X426787Y391584D01*
Y366593D01*
X426424Y366442D01*
X426095Y366771D01*
X425148Y367317D01*
X424093Y367600D01*
X423000D01*
X421945Y367317D01*
X420999Y366771D01*
X420226Y365998D01*
X419680Y365052D01*
X419397Y363997D01*
Y362904D01*
X419680Y361849D01*
X420226Y360903D01*
X420999Y360130D01*
X421945Y359584D01*
X423000Y359301D01*
X424093D01*
X425148Y359584D01*
X426095Y360130D01*
X426424Y360459D01*
X426787Y360308D01*
Y359483D01*
X423458Y356153D01*
X406489D01*
X406338Y356517D01*
X409772Y359951D01*
X409772Y359951D01*
X410112Y360460D01*
X410546Y360582D01*
X410999Y360130D01*
X411945Y359584D01*
X413000Y359301D01*
X414093D01*
X415148Y359584D01*
X416095Y360130D01*
X416867Y360903D01*
X417414Y361849D01*
X417696Y362904D01*
Y363997D01*
X417414Y365052D01*
X416867Y365998D01*
X416095Y366771D01*
X415148Y367317D01*
X414093Y367600D01*
X413000D01*
X411945Y367317D01*
X410999Y366771D01*
X410651Y366423D01*
X410287Y366574D01*
Y389009D01*
X420025Y398747D01*
X420415Y398908D01*
X420973Y399467D01*
X421276Y400196D01*
Y400985D01*
X420973Y401715D01*
X420415Y402273D01*
X419686Y402575D01*
X418897D01*
X418167Y402273D01*
X417609Y401715D01*
X417447Y401324D01*
X407176Y391052D01*
X406781Y390461D01*
X406642Y389764D01*
X406642Y389764D01*
Y366738D01*
X406278Y366587D01*
X406095Y366771D01*
X405570Y367074D01*
Y396650D01*
X405416Y397424D01*
X404977Y398081D01*
X391179Y411879D01*
X390522Y412318D01*
X389748Y412472D01*
X224425D01*
X223651Y412318D01*
X222995Y411879D01*
X218058Y406942D01*
X217947Y406777D01*
X217806Y406636D01*
X217730Y406452D01*
X217619Y406286D01*
X217580Y406091D01*
X217504Y405906D01*
Y405707D01*
X217465Y405512D01*
X217504Y405316D01*
Y405117D01*
X217580Y404933D01*
X217619Y404738D01*
X217730Y404572D01*
X217806Y404388D01*
X217947Y404247D01*
X218058Y404081D01*
X218223Y403971D01*
X218364Y403830D01*
X218548Y403753D01*
X218714Y403643D01*
X218909Y403604D01*
X219093Y403528D01*
X219293D01*
X219488Y403489D01*
X219684Y403528D01*
X219883D01*
X220067Y403604D01*
X220262Y403643D01*
X220428Y403753D01*
X220612Y403830D01*
X220753Y403971D01*
X220919Y404081D01*
X225263Y408426D01*
X388910D01*
X401523Y395812D01*
Y367074D01*
X400999Y366771D01*
X400226Y365998D01*
X399680Y365052D01*
X399397Y363997D01*
Y362904D01*
X399680Y361849D01*
X400226Y360903D01*
X400999Y360130D01*
X401945Y359584D01*
X402258Y359500D01*
X402207Y359106D01*
X394887D01*
X394835Y359500D01*
X395148Y359584D01*
X396095Y360130D01*
X396867Y360903D01*
X397413Y361849D01*
X397696Y362904D01*
Y363997D01*
X397413Y365052D01*
X396867Y365998D01*
X396095Y366771D01*
X395369Y367190D01*
Y391886D01*
X395230Y392584D01*
X394835Y393175D01*
X394835Y393175D01*
X382846Y405164D01*
X382255Y405559D01*
X381558Y405698D01*
X381558Y405698D01*
X360456D01*
X359958Y406030D01*
X359261Y406169D01*
X359261Y406169D01*
X337435D01*
X337435Y406169D01*
X336737Y406030D01*
X336146Y405635D01*
X336146Y405635D01*
X327018Y396508D01*
X220243D01*
X213224Y403527D01*
X213443Y403830D01*
X214172Y403528D01*
X214962D01*
X215691Y403830D01*
X216249Y404388D01*
X216551Y405117D01*
Y405906D01*
X216249Y406636D01*
X215691Y407194D01*
X214962Y407496D01*
X214172D01*
X213443Y407194D01*
X212885Y406636D01*
X212583Y405906D01*
Y405117D01*
X212885Y404388D01*
X212582Y404169D01*
X210505Y406245D01*
X210344Y406636D01*
X209785Y407194D01*
X209056Y407496D01*
X208267D01*
X207537Y407194D01*
X206979Y406636D01*
X206677Y405906D01*
Y405117D01*
X206979Y404388D01*
X207537Y403830D01*
X207928Y403668D01*
X218199Y393396D01*
X218199Y393396D01*
X218791Y393001D01*
X219488Y392863D01*
X327773D01*
X327773Y392863D01*
X328471Y393001D01*
X329062Y393396D01*
X336420Y400755D01*
X336806Y400678D01*
X336900Y400451D01*
X337459Y399893D01*
X338188Y399590D01*
X338977D01*
X339707Y399893D01*
X340265Y400451D01*
X340567Y401180D01*
Y401969D01*
X340473Y402197D01*
X340692Y402524D01*
X358537D01*
X359034Y402192D01*
X359732Y402053D01*
X362315D01*
X362468Y401659D01*
X362189Y400985D01*
Y400196D01*
X362351Y399805D01*
Y382824D01*
X362351Y382824D01*
X362490Y382126D01*
X362885Y381535D01*
X379614Y364806D01*
X379397Y363997D01*
Y362904D01*
X379680Y361849D01*
X380226Y360903D01*
X380999Y360130D01*
X381945Y359584D01*
X382258Y359500D01*
X382207Y359106D01*
X374887D01*
X374835Y359500D01*
X375148Y359584D01*
X376095Y360130D01*
X376867Y360903D01*
X377414Y361849D01*
X377696Y362904D01*
Y363997D01*
X377414Y365052D01*
X376867Y365998D01*
X376095Y366771D01*
X375148Y367317D01*
X374093Y367600D01*
X373000D01*
X371945Y367317D01*
X370999Y366771D01*
X370226Y365998D01*
X369680Y365052D01*
X369397Y363997D01*
Y362904D01*
X369680Y361849D01*
X370226Y360903D01*
X370999Y360130D01*
X371945Y359584D01*
X372258Y359500D01*
X372207Y359106D01*
X370468D01*
X367479Y362095D01*
X367696Y362904D01*
Y363997D01*
X367413Y365052D01*
X366867Y365998D01*
X366095Y366771D01*
X365148Y367317D01*
X364093Y367600D01*
X363000D01*
X361945Y367317D01*
X360999Y366771D01*
X360226Y365998D01*
X359680Y365052D01*
X359397Y363997D01*
Y362904D01*
X359680Y361849D01*
X360226Y360903D01*
X360999Y360130D01*
X361945Y359584D01*
X363000Y359301D01*
X364093D01*
X364902Y359518D01*
X367903Y356517D01*
X367752Y356153D01*
X363421D01*
X357479Y362095D01*
X357696Y362904D01*
Y363997D01*
X357414Y365052D01*
X356867Y365998D01*
X356095Y366771D01*
X355148Y367317D01*
X354093Y367600D01*
X353000D01*
X351945Y367317D01*
X350999Y366771D01*
X350226Y365998D01*
X349680Y365052D01*
X349397Y363997D01*
Y362904D01*
X349680Y361849D01*
X350226Y360903D01*
X350999Y360130D01*
X351945Y359584D01*
X353000Y359301D01*
X354093D01*
X354902Y359518D01*
X360856Y353564D01*
X360705Y353200D01*
X350164D01*
X345369Y357996D01*
Y359301D01*
X347696D01*
Y367600D01*
X339397D01*
Y359301D01*
X341724D01*
Y357241D01*
X341724Y357241D01*
X341863Y356543D01*
X342258Y355952D01*
X348121Y350089D01*
X348121Y350089D01*
X348712Y349694D01*
X349410Y349555D01*
X349410Y349555D01*
X428456D01*
X428456Y349555D01*
X429154Y349694D01*
X429745Y350089D01*
X439772Y360117D01*
X439772Y360117D01*
X440046Y360526D01*
X440501Y360607D01*
X440531Y360598D01*
X440999Y360130D01*
X441945Y359584D01*
X443000Y359301D01*
X443413D01*
X443564Y358937D01*
X407370Y322743D01*
X407194Y322778D01*
X406636Y323336D01*
X405906Y323638D01*
X405117D01*
X404388Y323336D01*
X403830Y322778D01*
X403528Y322048D01*
Y321259D01*
X403830Y320530D01*
X404388Y319971D01*
X404615Y319877D01*
X404692Y319491D01*
X398093Y312892D01*
X321804D01*
X321804Y312892D01*
X321107Y312753D01*
X320516Y312358D01*
X310703Y302546D01*
X310493Y302231D01*
X309986Y302181D01*
X309634Y302533D01*
X308688Y303079D01*
X307633Y303362D01*
X306540D01*
X305485Y303079D01*
X304539Y302533D01*
X303766Y301761D01*
X303220Y300814D01*
X302937Y299759D01*
Y298666D01*
X303220Y297611D01*
X303766Y296665D01*
X304539Y295892D01*
X305485Y295346D01*
X306540Y295063D01*
X307633D01*
X308688Y295346D01*
X309634Y295892D01*
X310407Y296665D01*
X310953Y297611D01*
X311072Y298053D01*
X311767Y298191D01*
X312358Y298586D01*
X312409Y298637D01*
X312825Y298496D01*
X313062Y297611D01*
X313609Y296665D01*
X314381Y295892D01*
X315327Y295346D01*
X316383Y295063D01*
X316429D01*
Y299213D01*
X316929D01*
Y299713D01*
X321079D01*
Y299759D01*
X320796Y300814D01*
X320250Y301761D01*
X319477Y302533D01*
X318531Y303079D01*
X317475Y303362D01*
X317189D01*
X317038Y303726D01*
X322559Y309247D01*
X398848D01*
X398848Y309247D01*
X399545Y309386D01*
X400136Y309781D01*
X409572Y319217D01*
X409572Y319217D01*
X409967Y319808D01*
X410061Y320279D01*
X449898Y360117D01*
X450121Y360451D01*
X450624Y360505D01*
X450999Y360130D01*
X451945Y359584D01*
X453000Y359301D01*
X454093D01*
X455148Y359584D01*
X456095Y360130D01*
X456867Y360903D01*
X457413Y361849D01*
X457696Y362904D01*
Y363997D01*
X457413Y365052D01*
X456867Y365998D01*
X456095Y366771D01*
X455148Y367317D01*
X454093Y367600D01*
X453806D01*
X453655Y367964D01*
X458966Y373274D01*
X459361Y373866D01*
X459500Y374563D01*
X459500Y374563D01*
Y414746D01*
X459500Y414747D01*
X459361Y415444D01*
X458966Y416035D01*
X458966Y416035D01*
X451626Y423375D01*
Y427273D01*
X452296Y427944D01*
X452296Y427944D01*
X452691Y428535D01*
X452830Y429232D01*
X452830Y429232D01*
Y431195D01*
X453067Y431767D01*
Y432557D01*
X452765Y433286D01*
X452575Y433475D01*
X452726Y433839D01*
X485828D01*
X497193Y422473D01*
Y416917D01*
X497119Y416806D01*
X496981Y416109D01*
X496981Y416109D01*
Y413813D01*
X496981Y413813D01*
X497119Y413115D01*
X497193Y413005D01*
Y405313D01*
X497031Y404922D01*
Y404133D01*
X497334Y403404D01*
X497892Y402845D01*
X498621Y402543D01*
X499410D01*
X500140Y402845D01*
X500698Y403404D01*
X501000Y404133D01*
Y404922D01*
X500838Y405313D01*
Y412764D01*
X501165Y412982D01*
X501180Y412976D01*
X501969D01*
X502699Y413278D01*
X503257Y413837D01*
X503559Y414566D01*
Y415355D01*
X503257Y416085D01*
X502699Y416643D01*
X501969Y416945D01*
X501180D01*
X501165Y416939D01*
X500838Y417158D01*
Y423228D01*
X500838Y423228D01*
X500699Y423926D01*
X500304Y424517D01*
X500304Y424517D01*
X488771Y436050D01*
X488922Y436414D01*
X509520D01*
X524752Y421181D01*
Y416917D01*
X524679Y416806D01*
X524540Y416109D01*
X524540Y416109D01*
Y413813D01*
X524540Y413813D01*
X524679Y413115D01*
X524752Y413005D01*
Y405313D01*
X524590Y404922D01*
Y404133D01*
X524893Y403404D01*
X525451Y402845D01*
X526180Y402543D01*
X526969D01*
X527699Y402845D01*
X528257Y403404D01*
X528559Y404133D01*
Y404922D01*
X528397Y405313D01*
Y412764D01*
X528725Y412982D01*
X528739Y412976D01*
X529529D01*
X530258Y413278D01*
X530816Y413837D01*
X531118Y414566D01*
Y415355D01*
X530816Y416085D01*
X530258Y416643D01*
X529529Y416945D01*
X528739D01*
X528725Y416939D01*
X528397Y417158D01*
Y421936D01*
X528259Y422634D01*
X527864Y423225D01*
X527863Y423225D01*
X511563Y439525D01*
X510972Y439920D01*
X510275Y440059D01*
X510275Y440059D01*
X477696D01*
Y446565D01*
X527236D01*
X552099Y421702D01*
Y413813D01*
X552099Y413813D01*
X552238Y413115D01*
X552311Y413005D01*
Y405313D01*
X552150Y404922D01*
Y404133D01*
X552452Y403404D01*
X553010Y402845D01*
X553739Y402543D01*
X554529D01*
X555258Y402845D01*
X555816Y403404D01*
X556118Y404133D01*
Y404922D01*
X555956Y405313D01*
Y412764D01*
X556284Y412982D01*
X556298Y412976D01*
X557088D01*
X557817Y413278D01*
X558375Y413837D01*
X558677Y414566D01*
Y415355D01*
X558375Y416085D01*
X557817Y416643D01*
X557088Y416945D01*
X556298D01*
X556071Y416851D01*
X555744Y417069D01*
Y422457D01*
X555744Y422457D01*
X555605Y423154D01*
X555210Y423745D01*
X555210Y423745D01*
X529279Y449676D01*
X528688Y450071D01*
X527991Y450210D01*
D02*
G37*
G36*
X196452Y447362D02*
X196405D01*
Y443713D01*
X200055D01*
Y443759D01*
X199772Y444814D01*
X199226Y445760D01*
X198453Y446533D01*
X197507Y447079D01*
X196452Y447362D01*
D02*
G37*
G36*
X195405D02*
X195359D01*
X194304Y447079D01*
X193358Y446533D01*
X192585Y445760D01*
X192039Y444814D01*
X191756Y443759D01*
Y443713D01*
X195405D01*
Y447362D01*
D02*
G37*
G36*
X216452D02*
X215359D01*
X214304Y447079D01*
X213358Y446533D01*
X212585Y445760D01*
X212039Y444814D01*
X211756Y443759D01*
Y442666D01*
X212039Y441611D01*
X212585Y440665D01*
X213358Y439892D01*
X214304Y439346D01*
X215359Y439063D01*
X216452D01*
X217507Y439346D01*
X218453Y439892D01*
X219226Y440665D01*
X219772Y441611D01*
X220055Y442666D01*
Y443759D01*
X219772Y444814D01*
X219226Y445760D01*
X218453Y446533D01*
X217507Y447079D01*
X216452Y447362D01*
D02*
G37*
G36*
X206452D02*
X205359D01*
X204304Y447079D01*
X203358Y446533D01*
X202585Y445760D01*
X202039Y444814D01*
X201756Y443759D01*
Y442666D01*
X202039Y441611D01*
X202585Y440665D01*
X203358Y439892D01*
X204304Y439346D01*
X205359Y439063D01*
X206452D01*
X207507Y439346D01*
X208453Y439892D01*
X209226Y440665D01*
X209772Y441611D01*
X210055Y442666D01*
Y443759D01*
X209772Y444814D01*
X209226Y445760D01*
X208453Y446533D01*
X207507Y447079D01*
X206452Y447362D01*
D02*
G37*
G36*
X200055Y442713D02*
X196405D01*
Y439063D01*
X196452D01*
X197507Y439346D01*
X198453Y439892D01*
X199226Y440665D01*
X199772Y441611D01*
X200055Y442666D01*
Y442713D01*
D02*
G37*
G36*
X195405D02*
X191756D01*
Y442666D01*
X192039Y441611D01*
X192585Y440665D01*
X193358Y439892D01*
X194304Y439346D01*
X195359Y439063D01*
X195405D01*
Y442713D01*
D02*
G37*
G36*
X190055Y447362D02*
X181756D01*
Y439063D01*
X190055D01*
Y447362D01*
D02*
G37*
G36*
X214174Y420882D02*
X213385D01*
X212655Y420580D01*
X212097Y420022D01*
X211795Y419292D01*
Y418503D01*
X212097Y417774D01*
X212655Y417215D01*
X213385Y416913D01*
X214174D01*
X214903Y417215D01*
X215462Y417774D01*
X215764Y418503D01*
Y419292D01*
X215462Y420022D01*
X214903Y420580D01*
X214174Y420882D01*
D02*
G37*
G36*
X203544D02*
X202755D01*
X202026Y420580D01*
X201467Y420022D01*
X201165Y419292D01*
Y418503D01*
X201467Y417774D01*
X202026Y417215D01*
X202755Y416913D01*
X203544D01*
X204274Y417215D01*
X204832Y417774D01*
X205134Y418503D01*
Y419292D01*
X204832Y420022D01*
X204274Y420580D01*
X203544Y420882D01*
D02*
G37*
G36*
X474410Y416945D02*
X473621D01*
X472892Y416643D01*
X472334Y416085D01*
X472031Y415355D01*
Y414566D01*
X472334Y413837D01*
X472892Y413278D01*
X473621Y412976D01*
X474410D01*
X475140Y413278D01*
X475698Y413837D01*
X476000Y414566D01*
Y415355D01*
X475698Y416085D01*
X475140Y416643D01*
X474410Y416945D01*
D02*
G37*
G36*
X446851D02*
X446062D01*
X445333Y416643D01*
X444774Y416085D01*
X444472Y415355D01*
Y414566D01*
X444774Y413837D01*
X445333Y413278D01*
X446062Y412976D01*
X446851D01*
X447581Y413278D01*
X448139Y413837D01*
X448441Y414566D01*
Y415355D01*
X448139Y416085D01*
X447581Y416643D01*
X446851Y416945D01*
D02*
G37*
G36*
X419292D02*
X418503D01*
X417774Y416643D01*
X417215Y416085D01*
X416913Y415355D01*
Y414566D01*
X417215Y413837D01*
X417774Y413278D01*
X418503Y412976D01*
X419292D01*
X420022Y413278D01*
X420580Y413837D01*
X420882Y414566D01*
Y415355D01*
X420580Y416085D01*
X420022Y416643D01*
X419292Y416945D01*
D02*
G37*
G36*
X391733D02*
X390944D01*
X390215Y416643D01*
X389656Y416085D01*
X389354Y415355D01*
Y414566D01*
X389656Y413837D01*
X390215Y413278D01*
X390944Y412976D01*
X391733D01*
X392463Y413278D01*
X393021Y413837D01*
X393323Y414566D01*
Y415355D01*
X393021Y416085D01*
X392463Y416643D01*
X391733Y416945D01*
D02*
G37*
G36*
X364174D02*
X363385D01*
X362655Y416643D01*
X362097Y416085D01*
X361795Y415355D01*
Y414566D01*
X362097Y413837D01*
X362655Y413278D01*
X363385Y412976D01*
X364174D01*
X364903Y413278D01*
X365462Y413837D01*
X365764Y414566D01*
Y415355D01*
X365462Y416085D01*
X364903Y416643D01*
X364174Y416945D01*
D02*
G37*
G36*
X204135Y407496D02*
X203345D01*
X202616Y407194D01*
X202058Y406636D01*
X201756Y405906D01*
Y405117D01*
X202058Y404388D01*
X202616Y403830D01*
X203345Y403528D01*
X204135D01*
X204864Y403830D01*
X205422Y404388D01*
X205724Y405117D01*
Y405906D01*
X205422Y406636D01*
X204864Y407194D01*
X204135Y407496D01*
D02*
G37*
G36*
X282042Y405724D02*
X281996D01*
Y402075D01*
X285646D01*
Y402121D01*
X285363Y403176D01*
X284817Y404123D01*
X284044Y404895D01*
X283098Y405442D01*
X282042Y405724D01*
D02*
G37*
G36*
X280996D02*
X280950D01*
X279894Y405442D01*
X278948Y404895D01*
X278176Y404123D01*
X277629Y403176D01*
X277346Y402121D01*
Y402075D01*
X280996D01*
Y405724D01*
D02*
G37*
G36*
X305331D02*
X297031D01*
Y397425D01*
X305331D01*
Y405724D01*
D02*
G37*
G36*
X285646Y401075D02*
X281996D01*
Y397425D01*
X282042D01*
X283098Y397708D01*
X284044Y398254D01*
X284817Y399027D01*
X285363Y399973D01*
X285646Y401028D01*
Y401075D01*
D02*
G37*
G36*
X280996D02*
X277346D01*
Y401028D01*
X277629Y399973D01*
X278176Y399027D01*
X278948Y398254D01*
X279894Y397708D01*
X280950Y397425D01*
X280996D01*
Y401075D01*
D02*
G37*
G36*
X474093Y367600D02*
X473000D01*
X471945Y367317D01*
X470999Y366771D01*
X470226Y365998D01*
X469680Y365052D01*
X469397Y363997D01*
Y362904D01*
X469680Y361849D01*
X470226Y360903D01*
X470999Y360130D01*
X471945Y359584D01*
X473000Y359301D01*
X474093D01*
X475148Y359584D01*
X476095Y360130D01*
X476867Y360903D01*
X477414Y361849D01*
X477696Y362904D01*
Y363997D01*
X477414Y365052D01*
X476867Y365998D01*
X476095Y366771D01*
X475148Y367317D01*
X474093Y367600D01*
D02*
G37*
G36*
X464093D02*
X463000D01*
X461945Y367317D01*
X460999Y366771D01*
X460226Y365998D01*
X459680Y365052D01*
X459397Y363997D01*
Y362904D01*
X459680Y361849D01*
X460226Y360903D01*
X460999Y360130D01*
X461945Y359584D01*
X463000Y359301D01*
X464093D01*
X465148Y359584D01*
X466095Y360130D01*
X466867Y360903D01*
X467414Y361849D01*
X467696Y362904D01*
Y363997D01*
X467414Y365052D01*
X466867Y365998D01*
X466095Y366771D01*
X465148Y367317D01*
X464093Y367600D01*
D02*
G37*
G36*
X543702Y323638D02*
X542912D01*
X542183Y323336D01*
X541625Y322778D01*
X541323Y322048D01*
Y321259D01*
X541625Y320530D01*
X542183Y319971D01*
X542912Y319669D01*
X543702D01*
X544431Y319971D01*
X544989Y320530D01*
X545291Y321259D01*
Y322048D01*
X544989Y322778D01*
X544431Y323336D01*
X543702Y323638D01*
D02*
G37*
G36*
X516143D02*
X515353D01*
X514624Y323336D01*
X514066Y322778D01*
X513764Y322048D01*
Y321259D01*
X514066Y320530D01*
X514624Y319971D01*
X515353Y319669D01*
X516143D01*
X516872Y319971D01*
X517430Y320530D01*
X517732Y321259D01*
Y322048D01*
X517430Y322778D01*
X516872Y323336D01*
X516143Y323638D01*
D02*
G37*
G36*
X488584D02*
X487794D01*
X487065Y323336D01*
X486507Y322778D01*
X486205Y322048D01*
Y321259D01*
X486507Y320530D01*
X487065Y319971D01*
X487794Y319669D01*
X488584D01*
X489313Y319971D01*
X489871Y320530D01*
X490173Y321259D01*
Y322048D01*
X489871Y322778D01*
X489313Y323336D01*
X488584Y323638D01*
D02*
G37*
G36*
X461025D02*
X460235D01*
X459506Y323336D01*
X458948Y322778D01*
X458646Y322048D01*
Y321259D01*
X458948Y320530D01*
X459506Y319971D01*
X460235Y319669D01*
X461025D01*
X461754Y319971D01*
X462312Y320530D01*
X462614Y321259D01*
Y322048D01*
X462312Y322778D01*
X461754Y323336D01*
X461025Y323638D01*
D02*
G37*
G36*
X433466D02*
X432676D01*
X431947Y323336D01*
X431389Y322778D01*
X431087Y322048D01*
Y321259D01*
X431389Y320530D01*
X431947Y319971D01*
X432676Y319669D01*
X433466D01*
X434195Y319971D01*
X434753Y320530D01*
X435055Y321259D01*
Y322048D01*
X434753Y322778D01*
X434195Y323336D01*
X433466Y323638D01*
D02*
G37*
G36*
X378347D02*
X377558D01*
X376829Y323336D01*
X376271Y322778D01*
X375969Y322048D01*
Y321259D01*
X376271Y320530D01*
X376829Y319971D01*
X377558Y319669D01*
X378347D01*
X379077Y319971D01*
X379635Y320530D01*
X379937Y321259D01*
Y322048D01*
X379635Y322778D01*
X379077Y323336D01*
X378347Y323638D01*
D02*
G37*
G36*
X350788D02*
X349999D01*
X349270Y323336D01*
X348711Y322778D01*
X348410Y322048D01*
Y321259D01*
X348711Y320530D01*
X349270Y319971D01*
X349999Y319669D01*
X350788D01*
X351518Y319971D01*
X352076Y320530D01*
X352378Y321259D01*
Y322048D01*
X352076Y322778D01*
X351518Y323336D01*
X350788Y323638D01*
D02*
G37*
G36*
X328672Y334071D02*
X327234D01*
X325824Y333790D01*
X324495Y333240D01*
X323300Y332441D01*
X322283Y331425D01*
X321484Y330229D01*
X320934Y328901D01*
X320654Y327491D01*
Y326053D01*
X320934Y324642D01*
X321484Y323314D01*
X322283Y322119D01*
X323300Y321102D01*
X324495Y320303D01*
X325824Y319753D01*
X327234Y319472D01*
X328672D01*
X330082Y319753D01*
X331410Y320303D01*
X332606Y321102D01*
X333622Y322119D01*
X334421Y323314D01*
X334971Y324642D01*
X335252Y326053D01*
Y327491D01*
X334971Y328901D01*
X334421Y330229D01*
X333622Y331425D01*
X332606Y332441D01*
X331410Y333240D01*
X330082Y333790D01*
X328672Y334071D01*
D02*
G37*
G36*
X286939D02*
X285502D01*
X284091Y333790D01*
X282763Y333240D01*
X281568Y332441D01*
X280551Y331425D01*
X279752Y330229D01*
X279202Y328901D01*
X278921Y327491D01*
Y326053D01*
X279202Y324642D01*
X279752Y323314D01*
X280551Y322119D01*
X281568Y321102D01*
X282763Y320303D01*
X284091Y319753D01*
X285502Y319472D01*
X286939D01*
X288350Y319753D01*
X289678Y320303D01*
X290874Y321102D01*
X291890Y322119D01*
X292689Y323314D01*
X293239Y324642D01*
X293520Y326053D01*
Y327491D01*
X293239Y328901D01*
X292689Y330229D01*
X291890Y331425D01*
X290874Y332441D01*
X289678Y333240D01*
X288350Y333790D01*
X286939Y334071D01*
D02*
G37*
G36*
X321079Y298713D02*
X317429D01*
Y295063D01*
X317475D01*
X318531Y295346D01*
X319477Y295892D01*
X320250Y296665D01*
X320796Y297611D01*
X321079Y298666D01*
Y298713D01*
D02*
G37*
G36*
X297790Y303362D02*
X296698D01*
X295642Y303079D01*
X294696Y302533D01*
X293924Y301761D01*
X293377Y300814D01*
X293094Y299759D01*
Y298666D01*
X293377Y297611D01*
X293924Y296665D01*
X294696Y295892D01*
X295642Y295346D01*
X296698Y295063D01*
X297790D01*
X298846Y295346D01*
X299792Y295892D01*
X300565Y296665D01*
X301111Y297611D01*
X301394Y298666D01*
Y299759D01*
X301111Y300814D01*
X300565Y301761D01*
X299792Y302533D01*
X298846Y303079D01*
X297790Y303362D01*
D02*
G37*
G36*
X256771Y310213D02*
X255040D01*
X253330Y309942D01*
X251683Y309407D01*
X250140Y308621D01*
X248740Y307603D01*
X247515Y306379D01*
X246498Y304978D01*
X245711Y303435D01*
X245176Y301788D01*
X244905Y300078D01*
Y298347D01*
X245176Y296637D01*
X245711Y294990D01*
X246498Y293447D01*
X247515Y292047D01*
X248740Y290822D01*
X250140Y289805D01*
X251683Y289019D01*
X253330Y288484D01*
X255040Y288213D01*
X256771D01*
X258481Y288484D01*
X260128Y289019D01*
X261671Y289805D01*
X263071Y290822D01*
X264296Y292047D01*
X265314Y293447D01*
X266100Y294990D01*
X266635Y296637D01*
X266905Y298347D01*
Y300078D01*
X266635Y301788D01*
X266100Y303435D01*
X265314Y304978D01*
X264296Y306379D01*
X263071Y307603D01*
X261671Y308621D01*
X260128Y309407D01*
X258481Y309942D01*
X256771Y310213D01*
D02*
G37*
G36*
X146771D02*
X145040D01*
X143330Y309942D01*
X141683Y309407D01*
X140140Y308621D01*
X138740Y307603D01*
X137515Y306379D01*
X136497Y304978D01*
X135711Y303435D01*
X135176Y301788D01*
X134906Y300078D01*
Y298347D01*
X135176Y296637D01*
X135711Y294990D01*
X136497Y293447D01*
X137515Y292047D01*
X138740Y290822D01*
X140140Y289805D01*
X141683Y289019D01*
X143330Y288484D01*
X145040Y288213D01*
X146771D01*
X148481Y288484D01*
X150128Y289019D01*
X151671Y289805D01*
X153071Y290822D01*
X154296Y292047D01*
X155314Y293447D01*
X156100Y294990D01*
X156635Y296637D01*
X156905Y298347D01*
Y300078D01*
X156635Y301788D01*
X156100Y303435D01*
X155314Y304978D01*
X154296Y306379D01*
X153071Y307603D01*
X151671Y308621D01*
X150128Y309407D01*
X148481Y309942D01*
X146771Y310213D01*
D02*
G37*
G36*
X469882Y288643D02*
X467126D01*
X465786Y288466D01*
X464537Y287949D01*
X463464Y287126D01*
X462642Y286054D01*
X462124Y284805D01*
X461948Y283465D01*
X462124Y282124D01*
X462642Y280875D01*
X463464Y279803D01*
X464537Y278980D01*
X464622Y278945D01*
X464622Y278551D01*
X464444Y278478D01*
X463660Y277876D01*
X463058Y277091D01*
X462679Y276177D01*
X462550Y275197D01*
X462679Y274216D01*
X463058Y273303D01*
X463660Y272518D01*
X464444Y271916D01*
X465358Y271538D01*
X465960Y271458D01*
Y271061D01*
X465358Y270982D01*
X464444Y270604D01*
X463660Y270002D01*
X463058Y269217D01*
X462679Y268303D01*
X462550Y267323D01*
X462679Y266342D01*
X463058Y265429D01*
X463660Y264644D01*
X464444Y264042D01*
X465358Y263664D01*
X465853Y263598D01*
X465828Y263205D01*
X462583D01*
Y259949D01*
X468504D01*
X474425D01*
Y263205D01*
X471180D01*
X471155Y263598D01*
X471650Y263664D01*
X472564Y264042D01*
X473348Y264644D01*
X473950Y265429D01*
X474329Y266342D01*
X474458Y267323D01*
X474329Y268303D01*
X473950Y269217D01*
X473348Y270002D01*
X472564Y270604D01*
X471650Y270982D01*
X471048Y271061D01*
Y271458D01*
X471650Y271538D01*
X472564Y271916D01*
X473348Y272518D01*
X473950Y273303D01*
X474329Y274216D01*
X474458Y275197D01*
X474329Y276177D01*
X473950Y277091D01*
X473348Y277876D01*
X472564Y278478D01*
X472386Y278551D01*
X472386Y278945D01*
X472471Y278980D01*
X473543Y279803D01*
X474366Y280875D01*
X474884Y282124D01*
X475060Y283465D01*
X474884Y284805D01*
X474366Y286054D01*
X473543Y287126D01*
X472471Y287949D01*
X471222Y288466D01*
X469882Y288643D01*
D02*
G37*
G36*
X525000D02*
X522244D01*
X520904Y288466D01*
X519655Y287949D01*
X518583Y287126D01*
X517760Y286054D01*
X517242Y284805D01*
X517066Y283465D01*
X517242Y282124D01*
X517760Y280875D01*
X518583Y279803D01*
X519655Y278980D01*
X519740Y278945D01*
X519740Y278551D01*
X519562Y278478D01*
X518778Y277876D01*
X518176Y277091D01*
X517798Y276177D01*
X517668Y275197D01*
X517798Y274216D01*
X518176Y273303D01*
X518778Y272518D01*
X519562Y271916D01*
X520476Y271538D01*
X521078Y271458D01*
Y271061D01*
X520476Y270982D01*
X519562Y270604D01*
X518778Y270002D01*
X518176Y269217D01*
X517798Y268303D01*
X517668Y267323D01*
X517798Y266342D01*
X518176Y265429D01*
X518778Y264644D01*
X519562Y264042D01*
X520476Y263664D01*
X520971Y263598D01*
X520946Y263205D01*
X517701D01*
Y259949D01*
X523622D01*
X529543D01*
Y263205D01*
X526299D01*
X526273Y263598D01*
X526768Y263664D01*
X527682Y264042D01*
X528466Y264644D01*
X529068Y265429D01*
X529447Y266342D01*
X529576Y267323D01*
X529447Y268303D01*
X529068Y269217D01*
X528466Y270002D01*
X527682Y270604D01*
X526768Y270982D01*
X526166Y271061D01*
Y271458D01*
X526768Y271538D01*
X527682Y271916D01*
X528466Y272518D01*
X529068Y273303D01*
X529447Y274216D01*
X529576Y275197D01*
X529447Y276177D01*
X529068Y277091D01*
X528466Y277876D01*
X527682Y278478D01*
X527504Y278551D01*
X527504Y278945D01*
X527589Y278980D01*
X528661Y279803D01*
X529484Y280875D01*
X530002Y282124D01*
X530178Y283465D01*
X530002Y284805D01*
X529484Y286054D01*
X528661Y287126D01*
X527589Y287949D01*
X526340Y288466D01*
X525000Y288643D01*
D02*
G37*
G36*
X387205D02*
X384449D01*
X383109Y288466D01*
X381860Y287949D01*
X380787Y287126D01*
X379964Y286054D01*
X379447Y284805D01*
X379271Y283465D01*
X379447Y282124D01*
X379964Y280875D01*
X380787Y279803D01*
X381860Y278980D01*
X381945Y278945D01*
X381945Y278551D01*
X381767Y278478D01*
X380983Y277876D01*
X380381Y277091D01*
X380002Y276177D01*
X379873Y275197D01*
X380002Y274216D01*
X380381Y273303D01*
X380983Y272518D01*
X381767Y271916D01*
X382681Y271538D01*
X383283Y271458D01*
Y271061D01*
X382681Y270982D01*
X381767Y270604D01*
X380983Y270002D01*
X380381Y269217D01*
X380002Y268303D01*
X379873Y267323D01*
X380002Y266342D01*
X380381Y265429D01*
X380983Y264644D01*
X381767Y264042D01*
X382681Y263664D01*
X383176Y263598D01*
X383150Y263205D01*
X379906D01*
Y259949D01*
X385827D01*
X391748D01*
Y263205D01*
X388503D01*
X388477Y263598D01*
X388973Y263664D01*
X389886Y264042D01*
X390671Y264644D01*
X391273Y265429D01*
X391651Y266342D01*
X391780Y267323D01*
X391651Y268303D01*
X391273Y269217D01*
X390671Y270002D01*
X389886Y270604D01*
X388973Y270982D01*
X388371Y271061D01*
Y271458D01*
X388973Y271538D01*
X389886Y271916D01*
X390671Y272518D01*
X391273Y273303D01*
X391651Y274216D01*
X391780Y275197D01*
X391651Y276177D01*
X391273Y277091D01*
X390671Y277876D01*
X389886Y278478D01*
X389709Y278551D01*
X389709Y278945D01*
X389794Y278980D01*
X390866Y279803D01*
X391689Y280875D01*
X392206Y282124D01*
X392383Y283465D01*
X392206Y284805D01*
X391689Y286054D01*
X390866Y287126D01*
X389794Y287949D01*
X388545Y288466D01*
X387205Y288643D01*
D02*
G37*
G36*
X442323D02*
X439567D01*
X438227Y288466D01*
X436978Y287949D01*
X435905Y287126D01*
X435082Y286054D01*
X434565Y284805D01*
X434389Y283465D01*
X434565Y282124D01*
X435082Y280875D01*
X435905Y279803D01*
X436978Y278980D01*
X437063Y278945D01*
X437063Y278551D01*
X436885Y278478D01*
X436101Y277876D01*
X435499Y277091D01*
X435120Y276177D01*
X434991Y275197D01*
X435120Y274216D01*
X435499Y273303D01*
X436101Y272518D01*
X436885Y271916D01*
X437799Y271538D01*
X438401Y271458D01*
Y271061D01*
X437799Y270982D01*
X436885Y270604D01*
X436101Y270002D01*
X435499Y269217D01*
X435120Y268303D01*
X434991Y267323D01*
X435120Y266342D01*
X435499Y265429D01*
X436101Y264644D01*
X436885Y264042D01*
X437799Y263664D01*
X438294Y263598D01*
X438268Y263205D01*
X435024D01*
Y259949D01*
X440945D01*
X446866D01*
Y263205D01*
X443621D01*
X443596Y263598D01*
X444091Y263664D01*
X445004Y264042D01*
X445789Y264644D01*
X446391Y265429D01*
X446770Y266342D01*
X446899Y267323D01*
X446770Y268303D01*
X446391Y269217D01*
X445789Y270002D01*
X445004Y270604D01*
X444091Y270982D01*
X443489Y271061D01*
Y271458D01*
X444091Y271538D01*
X445004Y271916D01*
X445789Y272518D01*
X446391Y273303D01*
X446770Y274216D01*
X446899Y275197D01*
X446770Y276177D01*
X446391Y277091D01*
X445789Y277876D01*
X445004Y278478D01*
X444827Y278551D01*
X444827Y278945D01*
X444912Y278980D01*
X445984Y279803D01*
X446807Y280875D01*
X447325Y282124D01*
X447501Y283465D01*
X447325Y284805D01*
X446807Y286054D01*
X445984Y287126D01*
X444912Y287949D01*
X443663Y288466D01*
X442323Y288643D01*
D02*
G37*
G36*
X359646D02*
X356890D01*
X355550Y288466D01*
X354301Y287949D01*
X353228Y287126D01*
X352405Y286054D01*
X351888Y284805D01*
X351712Y283465D01*
X351888Y282124D01*
X352405Y280875D01*
X353228Y279803D01*
X354301Y278980D01*
X354386Y278945D01*
X354386Y278551D01*
X354208Y278478D01*
X353424Y277876D01*
X352822Y277091D01*
X352443Y276177D01*
X352314Y275197D01*
X352443Y274216D01*
X352822Y273303D01*
X353424Y272518D01*
X354208Y271916D01*
X355122Y271538D01*
X355724Y271458D01*
Y271061D01*
X355122Y270982D01*
X354208Y270604D01*
X353424Y270002D01*
X352822Y269217D01*
X352443Y268303D01*
X352314Y267323D01*
X352443Y266342D01*
X352822Y265429D01*
X353424Y264644D01*
X354208Y264042D01*
X355122Y263664D01*
X355617Y263598D01*
X355591Y263205D01*
X352346D01*
Y259949D01*
X358268D01*
X364189D01*
Y263205D01*
X360944D01*
X360918Y263598D01*
X361414Y263664D01*
X362327Y264042D01*
X363112Y264644D01*
X363714Y265429D01*
X364092Y266342D01*
X364221Y267323D01*
X364092Y268303D01*
X363714Y269217D01*
X363112Y270002D01*
X362327Y270604D01*
X361414Y270982D01*
X360812Y271061D01*
Y271458D01*
X361414Y271538D01*
X362327Y271916D01*
X363112Y272518D01*
X363714Y273303D01*
X364092Y274216D01*
X364221Y275197D01*
X364092Y276177D01*
X363714Y277091D01*
X363112Y277876D01*
X362327Y278478D01*
X362150Y278551D01*
X362150Y278945D01*
X362235Y278980D01*
X363307Y279803D01*
X364130Y280875D01*
X364647Y282124D01*
X364824Y283465D01*
X364647Y284805D01*
X364130Y286054D01*
X363307Y287126D01*
X362235Y287949D01*
X360986Y288466D01*
X359646Y288643D01*
D02*
G37*
G36*
X497441D02*
X494685D01*
X493345Y288466D01*
X492096Y287949D01*
X491023Y287126D01*
X490201Y286054D01*
X489683Y284805D01*
X489507Y283465D01*
X489683Y282124D01*
X490201Y280875D01*
X491023Y279803D01*
X492096Y278980D01*
X492181Y278945D01*
X492181Y278551D01*
X492003Y278478D01*
X491219Y277876D01*
X490617Y277091D01*
X490238Y276177D01*
X490109Y275197D01*
X490238Y274216D01*
X490617Y273303D01*
X491219Y272518D01*
X492003Y271916D01*
X492917Y271538D01*
X493519Y271458D01*
Y271061D01*
X492917Y270982D01*
X492003Y270604D01*
X491219Y270002D01*
X490617Y269217D01*
X490238Y268303D01*
X490109Y267323D01*
X490238Y266342D01*
X490617Y265429D01*
X491219Y264644D01*
X492003Y264042D01*
X492917Y263664D01*
X493412Y263598D01*
X493387Y263205D01*
X490142D01*
Y259949D01*
X496063D01*
X501984D01*
Y263205D01*
X498739D01*
X498714Y263598D01*
X499209Y263664D01*
X500122Y264042D01*
X500907Y264644D01*
X501509Y265429D01*
X501888Y266342D01*
X502017Y267323D01*
X501888Y268303D01*
X501509Y269217D01*
X500907Y270002D01*
X500122Y270604D01*
X499209Y270982D01*
X498607Y271061D01*
Y271458D01*
X499209Y271538D01*
X500122Y271916D01*
X500907Y272518D01*
X501509Y273303D01*
X501888Y274216D01*
X502017Y275197D01*
X501888Y276177D01*
X501509Y277091D01*
X500907Y277876D01*
X500122Y278478D01*
X499945Y278551D01*
X499945Y278945D01*
X500030Y278980D01*
X501102Y279803D01*
X501925Y280875D01*
X502443Y282124D01*
X502619Y283465D01*
X502443Y284805D01*
X501925Y286054D01*
X501102Y287126D01*
X500030Y287949D01*
X498781Y288466D01*
X497441Y288643D01*
D02*
G37*
G36*
X414764D02*
X412008D01*
X410668Y288466D01*
X409419Y287949D01*
X408346Y287126D01*
X407523Y286054D01*
X407006Y284805D01*
X406830Y283465D01*
X407006Y282124D01*
X407523Y280875D01*
X408346Y279803D01*
X409419Y278980D01*
X409504Y278945D01*
X409504Y278551D01*
X409326Y278478D01*
X408542Y277876D01*
X407940Y277091D01*
X407561Y276177D01*
X407432Y275197D01*
X407561Y274216D01*
X407940Y273303D01*
X408542Y272518D01*
X409326Y271916D01*
X410240Y271538D01*
X410842Y271458D01*
Y271061D01*
X410240Y270982D01*
X409326Y270604D01*
X408542Y270002D01*
X407940Y269217D01*
X407561Y268303D01*
X407432Y267323D01*
X407561Y266342D01*
X407940Y265429D01*
X408542Y264644D01*
X409326Y264042D01*
X410240Y263664D01*
X410735Y263598D01*
X410709Y263205D01*
X407465D01*
Y259949D01*
X413386D01*
X419307D01*
Y263205D01*
X416062D01*
X416037Y263598D01*
X416532Y263664D01*
X417445Y264042D01*
X418230Y264644D01*
X418832Y265429D01*
X419210Y266342D01*
X419340Y267323D01*
X419210Y268303D01*
X418832Y269217D01*
X418230Y270002D01*
X417445Y270604D01*
X416532Y270982D01*
X415930Y271061D01*
Y271458D01*
X416532Y271538D01*
X417445Y271916D01*
X418230Y272518D01*
X418832Y273303D01*
X419210Y274216D01*
X419340Y275197D01*
X419210Y276177D01*
X418832Y277091D01*
X418230Y277876D01*
X417445Y278478D01*
X417268Y278551D01*
X417268Y278945D01*
X417353Y278980D01*
X418425Y279803D01*
X419248Y280875D01*
X419766Y282124D01*
X419942Y283465D01*
X419766Y284805D01*
X419248Y286054D01*
X418425Y287126D01*
X417353Y287949D01*
X416104Y288466D01*
X414764Y288643D01*
D02*
G37*
G36*
X552559D02*
X549803D01*
X548463Y288466D01*
X547214Y287949D01*
X546142Y287126D01*
X545319Y286054D01*
X544801Y284805D01*
X544625Y283465D01*
X544801Y282124D01*
X545319Y280875D01*
X546142Y279803D01*
X547214Y278980D01*
X547299Y278945D01*
X547299Y278551D01*
X547122Y278478D01*
X546337Y277876D01*
X545735Y277091D01*
X545357Y276177D01*
X545227Y275197D01*
X545357Y274216D01*
X545735Y273303D01*
X546337Y272518D01*
X547122Y271916D01*
X548035Y271538D01*
X548637Y271458D01*
Y271061D01*
X548035Y270982D01*
X547122Y270604D01*
X546337Y270002D01*
X545735Y269217D01*
X545357Y268303D01*
X545227Y267323D01*
X545357Y266342D01*
X545735Y265429D01*
X546337Y264644D01*
X547122Y264042D01*
X548035Y263664D01*
X548530Y263598D01*
X548505Y263205D01*
X545260D01*
Y259949D01*
X551181D01*
X557102D01*
Y263205D01*
X553858D01*
X553832Y263598D01*
X554327Y263664D01*
X555241Y264042D01*
X556025Y264644D01*
X556627Y265429D01*
X557006Y266342D01*
X557135Y267323D01*
X557006Y268303D01*
X556627Y269217D01*
X556025Y270002D01*
X555241Y270604D01*
X554327Y270982D01*
X553725Y271061D01*
Y271458D01*
X554327Y271538D01*
X555241Y271916D01*
X556025Y272518D01*
X556627Y273303D01*
X557006Y274216D01*
X557135Y275197D01*
X557006Y276177D01*
X556627Y277091D01*
X556025Y277876D01*
X555241Y278478D01*
X555063Y278551D01*
X555063Y278945D01*
X555148Y278980D01*
X556221Y279803D01*
X557044Y280875D01*
X557561Y282124D01*
X557737Y283465D01*
X557561Y284805D01*
X557044Y286054D01*
X556221Y287126D01*
X555148Y287949D01*
X553899Y288466D01*
X552559Y288643D01*
D02*
G37*
G36*
X557102Y258949D02*
X551181D01*
X545260D01*
Y255693D01*
X546603D01*
X546737Y255299D01*
X546142Y254843D01*
X545319Y253770D01*
X544801Y252521D01*
X544625Y251181D01*
X544801Y249841D01*
X545319Y248592D01*
X546142Y247520D01*
X547214Y246697D01*
X548463Y246179D01*
X549803Y246003D01*
X552559D01*
X553899Y246179D01*
X555148Y246697D01*
X556221Y247520D01*
X557044Y248592D01*
X557561Y249841D01*
X557737Y251181D01*
X557561Y252521D01*
X557044Y253770D01*
X556221Y254843D01*
X555625Y255299D01*
X555759Y255693D01*
X557102D01*
Y258949D01*
D02*
G37*
G36*
X529543Y258949D02*
X523622D01*
X517701D01*
Y255693D01*
X519044D01*
X519178Y255299D01*
X518583Y254843D01*
X517760Y253770D01*
X517242Y252521D01*
X517066Y251181D01*
X517242Y249841D01*
X517760Y248592D01*
X518583Y247520D01*
X519655Y246697D01*
X520904Y246179D01*
X522244Y246003D01*
X525000D01*
X526340Y246179D01*
X527589Y246697D01*
X528661Y247520D01*
X529484Y248592D01*
X530002Y249841D01*
X530178Y251181D01*
X530002Y252521D01*
X529484Y253770D01*
X528661Y254843D01*
X528066Y255299D01*
X528200Y255693D01*
X529543D01*
Y258949D01*
D02*
G37*
G36*
X501984Y258949D02*
X496063D01*
X490142D01*
Y255693D01*
X491485D01*
X491619Y255299D01*
X491023Y254843D01*
X490201Y253770D01*
X489683Y252521D01*
X489507Y251181D01*
X489683Y249841D01*
X490201Y248592D01*
X491023Y247520D01*
X492096Y246697D01*
X493345Y246179D01*
X494685Y246003D01*
X497441D01*
X498781Y246179D01*
X500030Y246697D01*
X501102Y247520D01*
X501925Y248592D01*
X502443Y249841D01*
X502619Y251181D01*
X502443Y252521D01*
X501925Y253770D01*
X501102Y254843D01*
X500507Y255299D01*
X500641Y255693D01*
X501984D01*
Y258949D01*
D02*
G37*
G36*
X474425Y258949D02*
X468504D01*
X462583D01*
Y255693D01*
X463926D01*
X464059Y255299D01*
X463464Y254843D01*
X462642Y253770D01*
X462124Y252521D01*
X461948Y251181D01*
X462124Y249841D01*
X462642Y248592D01*
X463464Y247520D01*
X464537Y246697D01*
X465786Y246179D01*
X467126Y246003D01*
X469882D01*
X471222Y246179D01*
X472471Y246697D01*
X473543Y247520D01*
X474366Y248592D01*
X474884Y249841D01*
X475060Y251181D01*
X474884Y252521D01*
X474366Y253770D01*
X473543Y254843D01*
X472948Y255299D01*
X473082Y255693D01*
X474425D01*
Y258949D01*
D02*
G37*
G36*
X446866Y258949D02*
X440945D01*
X435024D01*
Y255693D01*
X436367D01*
X436501Y255299D01*
X435905Y254843D01*
X435082Y253770D01*
X434565Y252521D01*
X434389Y251181D01*
X434565Y249841D01*
X435082Y248592D01*
X435905Y247520D01*
X436978Y246697D01*
X438227Y246179D01*
X439567Y246003D01*
X442323D01*
X443663Y246179D01*
X444912Y246697D01*
X445984Y247520D01*
X446807Y248592D01*
X447325Y249841D01*
X447501Y251181D01*
X447325Y252521D01*
X446807Y253770D01*
X445984Y254843D01*
X445389Y255299D01*
X445523Y255693D01*
X446866D01*
Y258949D01*
D02*
G37*
G36*
X419307Y258949D02*
X413386D01*
X407465D01*
Y255693D01*
X408808D01*
X408941Y255299D01*
X408346Y254843D01*
X407523Y253770D01*
X407006Y252521D01*
X406830Y251181D01*
X407006Y249841D01*
X407523Y248592D01*
X408346Y247520D01*
X409419Y246697D01*
X410668Y246179D01*
X412008Y246003D01*
X414764D01*
X416104Y246179D01*
X417353Y246697D01*
X418425Y247520D01*
X419248Y248592D01*
X419766Y249841D01*
X419942Y251181D01*
X419766Y252521D01*
X419248Y253770D01*
X418425Y254843D01*
X417830Y255299D01*
X417964Y255693D01*
X419307D01*
Y258949D01*
D02*
G37*
G36*
X391748Y258949D02*
X385827D01*
X379906D01*
Y255693D01*
X381249D01*
X381382Y255299D01*
X380787Y254843D01*
X379964Y253770D01*
X379447Y252521D01*
X379271Y251181D01*
X379447Y249841D01*
X379964Y248592D01*
X380787Y247520D01*
X381860Y246697D01*
X383109Y246179D01*
X384449Y246003D01*
X387205D01*
X388545Y246179D01*
X389794Y246697D01*
X390866Y247520D01*
X391689Y248592D01*
X392206Y249841D01*
X392383Y251181D01*
X392206Y252521D01*
X391689Y253770D01*
X390866Y254843D01*
X390271Y255299D01*
X390405Y255693D01*
X391748D01*
Y258949D01*
D02*
G37*
G36*
X364189Y258949D02*
X358268D01*
X352346D01*
Y255693D01*
X353690D01*
X353823Y255299D01*
X353228Y254843D01*
X352405Y253770D01*
X351888Y252521D01*
X351712Y251181D01*
X351888Y249841D01*
X352405Y248592D01*
X353228Y247520D01*
X354301Y246697D01*
X355550Y246179D01*
X356890Y246003D01*
X359646D01*
X360986Y246179D01*
X362235Y246697D01*
X363307Y247520D01*
X364130Y248592D01*
X364647Y249841D01*
X364824Y251181D01*
X364647Y252521D01*
X364130Y253770D01*
X363307Y254843D01*
X362712Y255299D01*
X362846Y255693D01*
X364189D01*
Y258949D01*
D02*
G37*
%LPD*%
G36*
X455855Y388655D02*
Y375318D01*
X447321Y366784D01*
X447048Y366375D01*
X446593Y366294D01*
X446562Y366303D01*
X446095Y366771D01*
X445148Y367317D01*
X444093Y367600D01*
X444047D01*
Y363450D01*
X443047D01*
Y367600D01*
X443000D01*
X441945Y367317D01*
X440999Y366771D01*
X440670Y366442D01*
X440306Y366593D01*
Y373752D01*
X454473Y387920D01*
X454864Y388082D01*
X455422Y388640D01*
X455461Y388733D01*
X455855Y388655D01*
D02*
G37*
G36*
X391724Y391131D02*
Y367190D01*
X390999Y366771D01*
X390226Y365998D01*
X389680Y365052D01*
X389397Y363997D01*
Y362904D01*
X389680Y361849D01*
X390226Y360903D01*
X390999Y360130D01*
X391945Y359584D01*
X392258Y359500D01*
X392207Y359106D01*
X384887D01*
X384835Y359500D01*
X385148Y359584D01*
X386095Y360130D01*
X386867Y360903D01*
X387414Y361849D01*
X387696Y362904D01*
Y363997D01*
X387414Y365052D01*
X386867Y365998D01*
X386095Y366771D01*
X385148Y367317D01*
X384093Y367600D01*
X383000D01*
X382191Y367383D01*
X365996Y383579D01*
Y399805D01*
X366158Y400196D01*
Y400985D01*
X365878Y401659D01*
X366032Y402053D01*
X380803D01*
X391724Y391131D01*
D02*
G37*
D13*
X224425Y410449D02*
X389748D01*
X219488Y405512D02*
X224425Y410449D01*
X389748D02*
X403547Y396650D01*
Y363450D02*
Y396650D01*
D33*
X451007Y429232D02*
Y432087D01*
X351336Y435661D02*
X486583D01*
X510275Y438236D02*
X526575Y421936D01*
X343547Y443450D02*
X351336Y435661D01*
X449803Y428028D02*
X451007Y429232D01*
X449803Y422620D02*
Y428028D01*
X358761Y438236D02*
X510275D01*
X451007Y432087D02*
X451083Y432162D01*
X353547Y443450D02*
X358761Y438236D01*
X486583Y435661D02*
X499016Y423228D01*
X219488Y394685D02*
X327773D01*
X208661Y405512D02*
X219488Y394685D01*
X337435Y404347D02*
X359261D01*
X359732Y403875D01*
X381558D01*
X393547Y391886D01*
X327773Y394685D02*
X337435Y404347D01*
X393547Y363450D02*
Y391886D01*
X364173Y382824D02*
Y400591D01*
Y382824D02*
X383547Y363450D01*
X343547Y357241D02*
X349410Y351378D01*
X343547Y357241D02*
Y363450D01*
X349410Y351378D02*
X428456D01*
X438484Y361405D01*
Y374507D01*
X453740Y389764D01*
X448610Y365495D02*
X457677Y374563D01*
X449803Y422620D02*
X457677Y414747D01*
Y374563D02*
Y414747D01*
X428610Y358728D02*
Y391584D01*
X424213Y354331D02*
X428610Y358728D01*
X362666Y354331D02*
X424213D01*
X428610Y391584D02*
X434679Y397654D01*
X443018Y404452D02*
X443822D01*
X443898Y404528D01*
X436219Y397654D02*
X443018Y404452D01*
X434679Y397654D02*
X436219D01*
X353547Y363450D02*
X362666Y354331D01*
X363547Y363450D02*
X369714Y357283D01*
X404528D02*
X408484Y361240D01*
X369714Y357283D02*
X404528D01*
X408465Y364192D02*
X408484Y364173D01*
Y361240D02*
Y364173D01*
X408465Y364192D02*
Y389764D01*
X419291Y400591D01*
X498803Y413813D02*
Y416109D01*
X499016Y404528D02*
Y413600D01*
Y416321D02*
Y423228D01*
X498803Y416109D02*
X499016Y416321D01*
X498803Y413813D02*
X499016Y413600D01*
X526362Y416109D02*
X526575Y416321D01*
X526362Y413813D02*
X526575Y413600D01*
Y416321D02*
Y421936D01*
X526362Y413813D02*
Y416109D01*
X526575Y404528D02*
Y413600D01*
X553921Y413813D02*
Y422457D01*
Y413813D02*
X554134Y413600D01*
Y404528D02*
Y413600D01*
X527991Y448387D02*
X553921Y422457D01*
X368484Y448387D02*
X527991D01*
X363547Y443450D02*
X368484Y448387D01*
X311992Y301258D02*
X321804Y311070D01*
X408284Y320505D02*
Y321079D01*
X321804Y311070D02*
X398848D01*
X408284Y320505D01*
Y321079D02*
X448610Y361405D01*
Y365495D01*
X307087Y299213D02*
X307749Y299875D01*
X311070D01*
X311992Y300797D01*
Y301258D01*
D34*
X255906Y299213D02*
D03*
X145905D02*
D03*
D35*
X440945Y283465D02*
D03*
Y251181D02*
D03*
X413386Y283465D02*
D03*
Y251181D02*
D03*
X551181Y283465D02*
D03*
Y251181D02*
D03*
X523622Y283465D02*
D03*
Y251181D02*
D03*
X496063Y283465D02*
D03*
Y251181D02*
D03*
X468504Y283465D02*
D03*
Y251181D02*
D03*
X358268Y283465D02*
D03*
Y251181D02*
D03*
X385827Y283465D02*
D03*
Y251181D02*
D03*
D36*
X440945Y275197D02*
D03*
Y267323D02*
D03*
X413386Y275197D02*
D03*
Y267323D02*
D03*
X551181Y275197D02*
D03*
Y267323D02*
D03*
X523622Y275197D02*
D03*
Y267323D02*
D03*
X496063Y275197D02*
D03*
Y267323D02*
D03*
X468504Y275197D02*
D03*
Y267323D02*
D03*
X358268Y275197D02*
D03*
Y267323D02*
D03*
X385827Y275197D02*
D03*
Y267323D02*
D03*
D37*
X440945Y259449D02*
D03*
X413386D02*
D03*
X551181D02*
D03*
X523622D02*
D03*
X496063D02*
D03*
X468504D02*
D03*
X358268D02*
D03*
X385827D02*
D03*
D38*
X327953Y326772D02*
D03*
X286221D02*
D03*
D39*
X307087Y299213D02*
D03*
X316929D02*
D03*
X297244D02*
D03*
X281496Y401575D02*
D03*
X343547Y443450D02*
D03*
X353547D02*
D03*
X363547D02*
D03*
X373547D02*
D03*
X383547D02*
D03*
X393547D02*
D03*
X463547D02*
D03*
X453547D02*
D03*
X443547D02*
D03*
X433547D02*
D03*
X423547D02*
D03*
X413547D02*
D03*
X403547D02*
D03*
X215905Y443213D02*
D03*
X205906D02*
D03*
X195905D02*
D03*
X473547Y363450D02*
D03*
X463547D02*
D03*
X453547D02*
D03*
X443547D02*
D03*
X433547D02*
D03*
X423547D02*
D03*
X353547D02*
D03*
X363547D02*
D03*
X373547D02*
D03*
X383547D02*
D03*
X393547D02*
D03*
X403547D02*
D03*
X413547D02*
D03*
D40*
X301181Y401575D02*
D03*
D41*
X473547Y443450D02*
D03*
X185906Y443213D02*
D03*
X343547Y363450D02*
D03*
D42*
X555118Y228346D02*
D03*
X557087Y444882D02*
D03*
X135827Y228346D02*
D03*
X133858Y444882D02*
D03*
X222441Y413386D02*
D03*
X207480Y402756D02*
D03*
X216142D02*
D03*
X222441Y404331D02*
D03*
X551181Y405118D02*
D03*
X557480Y404724D02*
D03*
X529921Y404331D02*
D03*
X523228Y404724D02*
D03*
X502362Y404331D02*
D03*
X495669Y405118D02*
D03*
X420472Y397638D02*
D03*
X440551Y405118D02*
D03*
X454724Y386811D02*
D03*
X453740Y392717D02*
D03*
X451083Y432162D02*
D03*
X448205Y432890D02*
D03*
X338583Y407480D02*
D03*
X352756Y400772D02*
D03*
X364173Y400591D02*
D03*
X453740Y389764D02*
D03*
X443898Y404528D02*
D03*
X419291Y400591D02*
D03*
X499016Y404528D02*
D03*
X526575D02*
D03*
X554134D02*
D03*
X556693Y414961D02*
D03*
X557874Y420866D02*
D03*
X462598Y432087D02*
D03*
X447638Y420866D02*
D03*
X377953Y321654D02*
D03*
X324803Y279528D02*
D03*
X338583Y401575D02*
D03*
X203740Y405512D02*
D03*
X208661D02*
D03*
X214567D02*
D03*
X219488D02*
D03*
X213779Y418898D02*
D03*
X203150D02*
D03*
X364961Y420866D02*
D03*
X350394Y321654D02*
D03*
X353150Y394882D02*
D03*
X363779Y414961D02*
D03*
X392520Y420866D02*
D03*
X380709Y394882D02*
D03*
X391339Y414961D02*
D03*
X380315Y400787D02*
D03*
X420079Y420866D02*
D03*
X405512Y321654D02*
D03*
X408268Y394882D02*
D03*
X418898Y414961D02*
D03*
X407874Y400787D02*
D03*
X433071Y321654D02*
D03*
X435827Y394882D02*
D03*
X446457Y414961D02*
D03*
X435433Y400787D02*
D03*
X475197Y420866D02*
D03*
X460630Y321654D02*
D03*
X463386Y394882D02*
D03*
X474016Y414961D02*
D03*
X462992Y400787D02*
D03*
X502756Y420866D02*
D03*
X488189Y321654D02*
D03*
X490945Y394882D02*
D03*
X501575Y414961D02*
D03*
X490551Y400787D02*
D03*
X530315Y420866D02*
D03*
X515748Y321654D02*
D03*
X518504Y394882D02*
D03*
X529134Y414961D02*
D03*
X518110Y400787D02*
D03*
X543307Y321654D02*
D03*
X546063Y394882D02*
D03*
X545669Y400787D02*
D03*
M02*
