M48
;Layer_Color=9474304
;FILE_FORMAT=2:5
INCH,LZ
;TYPE=PLATED
T1F00S00C0.01181
T2F00S00C0.03150
T3F00S00C0.03937
T4F00S00C0.05906
T5F00S00C0.08661
%
T01
X0555118Y0228346
X0324803Y0279528
X0135827Y0228346
X0133858Y0444882
X020315Y0418898
X0213779
X0222441Y0413386
Y0404331
X0219488Y0405512
X0214567
X0216142Y0402756
X020748
X0208661Y0405512
X020374
X0338583Y040748
Y0401575
X0352756Y0400772
X035315Y0394882
X0364173Y0400591
X0363779Y0414961
X0364961Y0420866
X039252
X0391339Y0414961
X0380315Y0400787
X0380709Y0394882
X0408268
X0407874Y0400787
X0419291Y0400591
X0420472Y0397638
X0435433Y0400787
X0435827Y0394882
X0440551Y0405118
X0443898Y0404528
X0446457Y0414961
X0447638Y0420866
X0448205Y043289
X0451083Y0432162
X0462598Y0432087
X0462992Y0400787
X0463386Y0394882
X045374Y0392717
Y0389764
X0454724Y0386811
X0418898Y0414961
X0420079Y0420866
X0433071Y0321654
X0405512
X0377953
X0350394
X046063
X0488189
X0515748
X0543307
X0546063Y0394882
X0545669Y0400787
X0551181Y0405118
X0554134Y0404528
X055748Y0404724
X0556693Y0414961
X0557874Y0420866
X0557087Y0444882
X0530315Y0420866
X0529134Y0414961
X0529921Y0404331
X0526575Y0404528
X0523228Y0404724
X051811Y0400787
X0518504Y0394882
X0502362Y0404331
X0499016Y0404528
X0495669Y0405118
X0490551Y0400787
X0490945Y0394882
X0501575Y0414961
X0502756Y0420866
X0475197
X0474016Y0414961
T02
X0496063Y0259449
Y0267323
Y0275197
X0523622
Y0267323
Y0259449
X0551181
Y0267323
Y0275197
X0468504
Y0267323
Y0259449
X0440945
Y0267323
Y0275197
X0413386
Y0267323
Y0259449
X0385827
Y0267323
Y0275197
X0358268
Y0267323
Y0259449
X0301181Y0401575
X0281496
T03
X0316929Y0299213
X0307087
X0297244
X0215905Y0443213
X0205906
X0195905
X0185906
X0343547Y044345
X0353547
X0363547
X0373547
X0383547
X0393547
X0403547
X0413547
X0423547
X0433547
X0443547
X0453547
X0463547
Y036345
X0453547
X0443547
X0433547
X0423547
X0413547
X0403547
X0393547
X0383547
X0373547
X0363547
X0353547
X0343547
X0473547
Y044345
T04
X0496063Y0251181
X0523622
X0551181
Y0283465
X0523622
X0496063
X0468504
X0440945
X0413386
X0385827
X0358268
Y0251181
X0385827
X0413386
X0440945
X0468504
T05
X0255906Y0299213
X0145905
X0286221Y0326772
X0327953
M30
