G04*
G04 #@! TF.GenerationSoftware,Altium Limited,Altium Designer,22.7.1 (60)*
G04*
G04 Layer_Color=8421504*
%FSLAX25Y25*%
%MOIN*%
G70*
G04*
G04 #@! TF.SameCoordinates,B4DE3396-8346-461D-A6ED-AD7C64C63353*
G04*
G04*
G04 #@! TF.FilePolarity,Positive*
G04*
G01*
G75*
%ADD15R,0.03150X0.03740*%
%ADD16R,0.10236X0.05906*%
%ADD17R,0.04134X0.03937*%
%ADD18R,0.01968X0.03543*%
%ADD19R,0.12205X0.03937*%
D15*
X443504Y414961D02*
D03*
X438386D02*
D03*
X526181Y400787D02*
D03*
X521063D02*
D03*
X471063D02*
D03*
X465945D02*
D03*
X443504D02*
D03*
X438386D02*
D03*
X443504Y409055D02*
D03*
X438386D02*
D03*
X443504Y380315D02*
D03*
X438386D02*
D03*
X471063D02*
D03*
X465945D02*
D03*
X471063Y409055D02*
D03*
X465945D02*
D03*
X471063Y414961D02*
D03*
X465945D02*
D03*
X553740D02*
D03*
X548622D02*
D03*
X498622Y400787D02*
D03*
X493504D02*
D03*
X553740D02*
D03*
X548622D02*
D03*
X553740Y380315D02*
D03*
X548622D02*
D03*
X553740Y409055D02*
D03*
X548622D02*
D03*
X498622Y414961D02*
D03*
X493504D02*
D03*
X526181Y380315D02*
D03*
X521063D02*
D03*
X526181Y409055D02*
D03*
X521063D02*
D03*
X498622Y380315D02*
D03*
X493504D02*
D03*
X498622Y409055D02*
D03*
X493504D02*
D03*
X335236Y401575D02*
D03*
X330118D02*
D03*
X213976Y409055D02*
D03*
X219094D02*
D03*
X203346D02*
D03*
X208465D02*
D03*
X335236Y395669D02*
D03*
X330118D02*
D03*
X526181Y414961D02*
D03*
X521063D02*
D03*
X415945Y400787D02*
D03*
X410827D02*
D03*
X360827D02*
D03*
X355709D02*
D03*
X415945Y409055D02*
D03*
X410827D02*
D03*
X415945Y380315D02*
D03*
X410827D02*
D03*
X388386Y409055D02*
D03*
X383268D02*
D03*
X388386Y414961D02*
D03*
X383268D02*
D03*
X415945D02*
D03*
X410827D02*
D03*
X360827Y380315D02*
D03*
X355709D02*
D03*
X360827Y409055D02*
D03*
X355709D02*
D03*
X360827Y414961D02*
D03*
X355709D02*
D03*
X388386Y400787D02*
D03*
X383268D02*
D03*
X388386Y380315D02*
D03*
X383268D02*
D03*
D16*
X440945Y321260D02*
D03*
Y333071D02*
D03*
X468504Y321260D02*
D03*
Y333071D02*
D03*
X496063Y321260D02*
D03*
Y333071D02*
D03*
X551181Y321260D02*
D03*
Y333071D02*
D03*
X523622Y321260D02*
D03*
Y333071D02*
D03*
X358268Y321260D02*
D03*
Y333071D02*
D03*
X413386Y321260D02*
D03*
Y333071D02*
D03*
X385827Y321260D02*
D03*
Y333071D02*
D03*
D17*
X335630Y407480D02*
D03*
X329724D02*
D03*
X443898Y420866D02*
D03*
X437992D02*
D03*
X471457D02*
D03*
X465551D02*
D03*
X554134D02*
D03*
X548228D02*
D03*
X361221D02*
D03*
X355315D02*
D03*
X499016D02*
D03*
X493110D02*
D03*
X459646Y433071D02*
D03*
X453740D02*
D03*
X526575Y420866D02*
D03*
X520669D02*
D03*
X416339D02*
D03*
X410433D02*
D03*
X388779D02*
D03*
X382874D02*
D03*
D18*
X553740Y394980D02*
D03*
X548622D02*
D03*
X551181Y386122D02*
D03*
X471063Y394980D02*
D03*
X465945D02*
D03*
X468504Y386122D02*
D03*
X443504Y394980D02*
D03*
X438386D02*
D03*
X440945Y386122D02*
D03*
X360827Y394980D02*
D03*
X355709D02*
D03*
X358268Y386122D02*
D03*
X526181Y394980D02*
D03*
X521063D02*
D03*
X523622Y386122D02*
D03*
X498622Y394980D02*
D03*
X493504D02*
D03*
X496063Y386122D02*
D03*
X213976Y415256D02*
D03*
X219094D02*
D03*
X216535Y424114D02*
D03*
X203346Y415256D02*
D03*
X208465D02*
D03*
X205906Y424114D02*
D03*
X415945Y394980D02*
D03*
X410827D02*
D03*
X413386Y386122D02*
D03*
X388386Y394980D02*
D03*
X383268D02*
D03*
X385827Y386122D02*
D03*
D19*
X289567Y259449D02*
D03*
Y275197D02*
D03*
X324606Y259449D02*
D03*
Y275197D02*
D03*
M02*
