G04*
G04 #@! TF.GenerationSoftware,Altium Limited,Altium Designer,22.7.1 (60)*
G04*
G04 Layer_Color=65535*
%FSLAX25Y25*%
%MOIN*%
G70*
G04*
G04 #@! TF.SameCoordinates,B4DE3396-8346-461D-A6ED-AD7C64C63353*
G04*
G04*
G04 #@! TF.FilePolarity,Positive*
G04*
G01*
G75*
%ADD10C,0.00787*%
%ADD11C,0.00984*%
%ADD12C,0.01181*%
%ADD13C,0.01968*%
%ADD14C,0.01772*%
D10*
X316142Y401575D02*
G03*
X316142Y401575I-24803J0D01*
G01*
X448945Y335165D02*
G03*
X448945Y335165I-500J0D01*
G01*
X476504D02*
G03*
X476504Y335165I-500J0D01*
G01*
X504063D02*
G03*
X504063Y335165I-500J0D01*
G01*
X559181D02*
G03*
X559181Y335165I-500J0D01*
G01*
X531622D02*
G03*
X531622Y335165I-500J0D01*
G01*
X366268D02*
G03*
X366268Y335165I-500J0D01*
G01*
X421386D02*
G03*
X421386Y335165I-500J0D01*
G01*
X393827D02*
G03*
X393827Y335165I-500J0D01*
G01*
X462504Y318665D02*
Y335665D01*
X474504Y318665D02*
Y335665D01*
X546850Y387894D02*
X548622D01*
X546850D02*
Y391831D01*
X553740Y387894D02*
X555512D01*
Y391831D01*
X435945Y329165D02*
X445945D01*
X434945Y318665D02*
Y335665D01*
X446945Y318665D02*
Y335665D01*
X377362Y250394D02*
Y284252D01*
X394291Y250394D02*
Y284252D01*
X349803Y250394D02*
Y284252D01*
X366732Y250394D02*
Y284252D01*
X478547Y358450D02*
Y368450D01*
X338547Y360950D02*
Y368450D01*
Y360950D02*
X341047Y358450D01*
X338547Y368450D02*
X478547D01*
X341047Y358450D02*
X478547D01*
X183405Y438213D02*
X220905D01*
X180905Y448213D02*
X220905D01*
X180905Y440713D02*
X183405Y438213D01*
X180905Y440713D02*
Y448213D01*
X220905Y438213D02*
Y448213D01*
X460039Y250394D02*
Y284252D01*
X476968Y250394D02*
Y284252D01*
X487598Y250394D02*
Y284252D01*
X504528Y250394D02*
Y284252D01*
X338547Y438450D02*
Y448450D01*
X478547Y438450D02*
Y445950D01*
X476047Y448450D02*
X478547Y445950D01*
X338547Y438450D02*
X478547D01*
X338547Y448450D02*
X476047D01*
X285433Y336614D02*
Y348425D01*
X328740D01*
Y336614D02*
Y348425D01*
Y299213D02*
Y316929D01*
X321850Y299213D02*
X328740D01*
X285433D02*
X292323D01*
X285433D02*
Y316929D01*
X515158Y250394D02*
Y284252D01*
X532087Y250394D02*
Y284252D01*
X542717Y250394D02*
Y284252D01*
X559646Y250394D02*
Y284252D01*
X404921Y250394D02*
Y284252D01*
X421850Y250394D02*
Y284252D01*
X432480Y250394D02*
Y284252D01*
X449409Y250394D02*
Y284252D01*
X380827Y329165D02*
X390827D01*
X379827Y318665D02*
Y335665D01*
X391827Y318665D02*
Y335665D01*
X381496Y387894D02*
X383268D01*
X381496D02*
Y391831D01*
X388386Y387894D02*
X390158D01*
Y391831D01*
X408386Y329165D02*
X418386D01*
X407386Y318665D02*
Y335665D01*
X419386Y318665D02*
Y335665D01*
X353268Y329165D02*
X363268D01*
X352268Y318665D02*
Y335665D01*
X364268Y318665D02*
Y335665D01*
X409055Y387894D02*
X410827D01*
X409055D02*
Y391831D01*
X415945Y387894D02*
X417717D01*
Y391831D01*
X518622Y329165D02*
X528622D01*
X517622Y318665D02*
Y335665D01*
X529622Y318665D02*
Y335665D01*
X546181Y329165D02*
X556181D01*
X545181Y318665D02*
Y335665D01*
X557181Y318665D02*
Y335665D01*
X208465Y422342D02*
X210236D01*
Y418405D02*
Y422342D01*
X201575D02*
X203346D01*
X201575Y418405D02*
Y422342D01*
X219094D02*
X220866D01*
Y418405D02*
Y422342D01*
X212205D02*
X213976D01*
X212205Y418405D02*
Y422342D01*
X292520Y252756D02*
X321654D01*
X292520Y281890D02*
X321654D01*
X292520Y279134D02*
Y281890D01*
X321654Y279134D02*
Y281890D01*
Y252756D02*
Y255512D01*
X292520Y252756D02*
Y255512D01*
X491732Y387894D02*
X493504D01*
X491732D02*
Y391831D01*
X498622Y387894D02*
X500394D01*
Y391831D01*
X491063Y329165D02*
X501063D01*
X490063Y318665D02*
Y335665D01*
X502063Y318665D02*
Y335665D01*
X519291Y387894D02*
X521063D01*
X519291D02*
Y391831D01*
X526181Y387894D02*
X527953D01*
Y391831D01*
X353937Y387894D02*
X355709D01*
X353937D02*
Y391831D01*
X360827Y387894D02*
X362598D01*
Y391831D01*
X436614Y387894D02*
X438386D01*
X436614D02*
Y391831D01*
X443504Y387894D02*
X445276D01*
Y391831D01*
X464173Y387894D02*
X465945D01*
X464173D02*
Y391831D01*
X471063Y387894D02*
X472835D01*
Y391831D01*
X463504Y329165D02*
X473504D01*
D11*
X557382Y394980D02*
G03*
X557382Y394980I-492J0D01*
G01*
X474705D02*
G03*
X474705Y394980I-492J0D01*
G01*
X447146D02*
G03*
X447146Y394980I-492J0D01*
G01*
X364469D02*
G03*
X364469Y394980I-492J0D01*
G01*
X529823D02*
G03*
X529823Y394980I-492J0D01*
G01*
X502264D02*
G03*
X502264Y394980I-492J0D01*
G01*
X211319Y415256D02*
G03*
X211319Y415256I-492J0D01*
G01*
X200689D02*
G03*
X200689Y415256I-492J0D01*
G01*
X419587Y394980D02*
G03*
X419587Y394980I-492J0D01*
G01*
X392028D02*
G03*
X392028Y394980I-492J0D01*
G01*
D12*
X161103Y250000D02*
G03*
X161103Y250000I-11497J0D01*
G01*
X144643Y244310D02*
G03*
X154882Y245629I4728J3697D01*
G01*
X138837Y257224D02*
G03*
X147050Y263176I-33362J54679D01*
G01*
X154882Y245629D02*
G03*
X144643Y244310I-2638J-19924D01*
G01*
X151396Y254853D02*
G03*
X146806Y253825I80J-11112D01*
G01*
X147038Y248429D02*
G03*
X152077Y247884I3071J4832D01*
G01*
X138458Y262335D02*
G03*
X141147Y258681I15598J8662D01*
G01*
X142732Y263784D02*
G03*
X140487Y263903I-1214J-1660D01*
G01*
X152328Y248195D02*
G03*
X152053Y254518I-11620J2663D01*
G01*
X156143Y251159D02*
G03*
X156143Y251159I-731J0D01*
G01*
X144890D02*
G03*
X144890Y251159I-731J0D01*
G01*
X152053Y254518D02*
G03*
X151396Y254853I-606J-376D01*
G01*
X152077Y247884D02*
G03*
X152328Y248195I-30J281D01*
G01*
X144527Y261090D02*
G03*
X142732Y263784I-9330J-4271D01*
G01*
X140487Y263903D02*
G03*
X138458Y262335I10756J-16017D01*
G01*
X290852Y249999D02*
X292820D01*
X291836D01*
Y244095D01*
X290852D01*
X292820D01*
X295772D02*
Y248031D01*
X298724D01*
X299707Y247047D01*
Y244095D01*
X301675Y242127D02*
Y248031D01*
X304627D01*
X305611Y247047D01*
Y245079D01*
X304627Y244095D01*
X301675D01*
X307579Y248031D02*
Y245079D01*
X308563Y244095D01*
X311515D01*
Y248031D01*
X314466Y249015D02*
Y248031D01*
X313482D01*
X315450D01*
X314466D01*
Y245079D01*
X315450Y244095D01*
X318402Y248031D02*
X319386D01*
Y247047D01*
X318402D01*
Y248031D01*
Y245079D02*
X319386D01*
Y244095D01*
X318402D01*
Y245079D01*
X323322Y244095D02*
X325290D01*
X324306D01*
Y249999D01*
X323322Y249015D01*
X383859Y340552D02*
X384843Y339568D01*
X386811D01*
X387795Y340552D01*
Y344488D01*
X386811Y345472D01*
X384843D01*
X383859Y344488D01*
Y343504D01*
X384843Y342520D01*
X387795D01*
X411418Y240157D02*
X412402Y241141D01*
X414370D01*
X415354Y240157D01*
Y236221D01*
X414370Y235237D01*
X412402D01*
X411418Y236221D01*
Y240157D01*
X353840Y339568D02*
X355808D01*
X354824D01*
Y345472D01*
X353840Y344488D01*
X358760D02*
X359744Y345472D01*
X361712D01*
X362695Y344488D01*
Y340552D01*
X361712Y339568D01*
X359744D01*
X358760Y340552D01*
Y344488D01*
X470472Y345472D02*
X468504Y344488D01*
X466536Y342520D01*
Y340552D01*
X467520Y339568D01*
X469488D01*
X470472Y340552D01*
Y341536D01*
X469488Y342520D01*
X466536D01*
X275109Y289371D02*
Y293306D01*
X277077Y295274D01*
X279045Y293306D01*
Y289371D01*
Y292322D01*
X275109D01*
X281012Y289371D02*
Y293306D01*
X283964D01*
X284948Y292322D01*
Y289371D01*
X287900Y293306D02*
X289868D01*
X290852Y292322D01*
Y289371D01*
X287900D01*
X286916Y290355D01*
X287900Y291339D01*
X290852D01*
X292820Y289371D02*
X294787D01*
X293804D01*
Y295274D01*
X292820D01*
X298723Y289371D02*
X300691D01*
X301675Y290355D01*
Y292322D01*
X300691Y293306D01*
X298723D01*
X297739Y292322D01*
Y290355D01*
X298723Y289371D01*
X305611Y287403D02*
X306595D01*
X307579Y288387D01*
Y293306D01*
X304627D01*
X303643Y292322D01*
Y290355D01*
X304627Y289371D01*
X307579D01*
X315450Y295274D02*
X317418D01*
X316434D01*
Y289371D01*
X315450D01*
X317418D01*
X320370D02*
Y293306D01*
X323322D01*
X324305Y292322D01*
Y289371D01*
X326273Y293306D02*
X327257D01*
Y292322D01*
X326273D01*
Y293306D01*
Y290355D02*
X327257D01*
Y289371D01*
X326273D01*
Y290355D01*
X331193Y289371D02*
Y293306D01*
X333161Y295274D01*
X335129Y293306D01*
Y289371D01*
Y292322D01*
X331193D01*
X337097Y289371D02*
X339064D01*
X338081D01*
Y295274D01*
X337097Y294290D01*
X498031Y345472D02*
X494095D01*
Y342520D01*
X496063Y343504D01*
X497047D01*
X498031Y342520D01*
Y340552D01*
X497047Y339568D01*
X495079D01*
X494095Y340552D01*
X491143Y235237D02*
Y239173D01*
X493111Y241141D01*
X495079Y239173D01*
Y235237D01*
Y238189D01*
X491143D01*
X499999Y235237D02*
Y241141D01*
X497047Y238189D01*
X500983D01*
X411418Y344488D02*
X412402Y345472D01*
X414370D01*
X415354Y344488D01*
Y343504D01*
X414370Y342520D01*
X415354Y341536D01*
Y340552D01*
X414370Y339568D01*
X412402D01*
X411418Y340552D01*
Y341536D01*
X412402Y342520D01*
X411418Y343504D01*
Y344488D01*
X412402Y342520D02*
X414370D01*
X463584Y235237D02*
Y239173D01*
X465552Y241141D01*
X467520Y239173D01*
Y235237D01*
Y238189D01*
X463584D01*
X473424Y241141D02*
X469488D01*
Y238189D01*
X471456Y239173D01*
X472440D01*
X473424Y238189D01*
Y236221D01*
X472440Y235237D01*
X470472D01*
X469488Y236221D01*
X549213Y344488D02*
X550197Y345472D01*
X552165D01*
X553149Y344488D01*
Y343504D01*
X552165Y342520D01*
X551181D01*
X552165D01*
X553149Y341536D01*
Y340552D01*
X552165Y339568D01*
X550197D01*
X549213Y340552D01*
X381399Y235237D02*
X383367D01*
X382383D01*
Y241141D01*
X381399Y240157D01*
X386319D02*
X387303Y241141D01*
X389270D01*
X390254Y240157D01*
Y239173D01*
X389270Y238189D01*
X388287D01*
X389270D01*
X390254Y237205D01*
Y236221D01*
X389270Y235237D01*
X387303D01*
X386319Y236221D01*
X437506Y232282D02*
X439473D01*
X438489D01*
Y226379D01*
X437506D01*
X439473D01*
X442425D02*
Y230314D01*
X445377D01*
X446361Y229330D01*
Y226379D01*
X448329Y224411D02*
Y230314D01*
X451281D01*
X452265Y229330D01*
Y227362D01*
X451281Y226379D01*
X448329D01*
X454232Y230314D02*
Y227362D01*
X455216Y226379D01*
X458168D01*
Y230314D01*
X461120Y231298D02*
Y230314D01*
X460136D01*
X462104D01*
X461120D01*
Y227362D01*
X462104Y226379D01*
X465056D02*
X468008D01*
X468991Y227362D01*
X468008Y228346D01*
X466040D01*
X465056Y229330D01*
X466040Y230314D01*
X468991D01*
X470959D02*
X471943D01*
Y229330D01*
X470959D01*
Y230314D01*
Y227362D02*
X471943D01*
Y226379D01*
X470959D01*
Y227362D01*
X524606Y339568D02*
Y345472D01*
X521654Y342520D01*
X525590D01*
X161922Y286416D02*
X163890D01*
X162906D01*
Y280513D01*
X161922D01*
X163890D01*
X170777D02*
X166842D01*
X170777Y284449D01*
Y285432D01*
X169793Y286416D01*
X167826D01*
X166842Y285432D01*
X176681D02*
X175697Y286416D01*
X173729D01*
X172745Y285432D01*
Y281497D01*
X173729Y280513D01*
X175697D01*
X176681Y281497D01*
X184553Y280513D02*
Y284449D01*
X186520Y286416D01*
X188488Y284449D01*
Y280513D01*
Y283465D01*
X184553D01*
X194392Y286416D02*
Y280513D01*
X191440D01*
X190456Y281497D01*
Y283465D01*
X191440Y284449D01*
X194392D01*
X200295Y286416D02*
Y280513D01*
X197344D01*
X196360Y281497D01*
Y283465D01*
X197344Y284449D01*
X200295D01*
X202263D02*
Y280513D01*
Y282481D01*
X203247Y283465D01*
X204231Y284449D01*
X205215D01*
X208167Y280513D02*
Y281497D01*
X209151D01*
Y280513D01*
X208167D01*
X213087Y284449D02*
X214071D01*
Y283465D01*
X213087D01*
Y284449D01*
Y281497D02*
X214071D01*
Y280513D01*
X213087D01*
Y281497D01*
X218006Y285432D02*
X218990Y286416D01*
X220958D01*
X221942Y285432D01*
Y281497D01*
X220958Y280513D01*
X218990D01*
X218006Y281497D01*
Y285432D01*
X223910Y284449D02*
X227846Y280513D01*
X225878Y282481D01*
X227846Y284449D01*
X223910Y280513D01*
X229813Y286416D02*
X233749D01*
Y285432D01*
X229813Y281497D01*
Y280513D01*
X235717Y285432D02*
X236701Y286416D01*
X238669D01*
X239653Y285432D01*
Y281497D01*
X238669Y280513D01*
X236701D01*
X235717Y281497D01*
Y285432D01*
X439474Y354329D02*
X437506D01*
X436522Y353345D01*
Y349410D01*
X437506Y348426D01*
X439474D01*
X440458Y349410D01*
Y353345D01*
X439474Y354329D01*
X442426Y352362D02*
Y349410D01*
X443410Y348426D01*
X446362D01*
Y352362D01*
X449313Y353345D02*
Y352362D01*
X448329D01*
X450297D01*
X449313D01*
Y349410D01*
X450297Y348426D01*
X453249Y346458D02*
Y352362D01*
X456201D01*
X457185Y351378D01*
Y349410D01*
X456201Y348426D01*
X453249D01*
X459153Y352362D02*
Y349410D01*
X460137Y348426D01*
X463089D01*
Y352362D01*
X466040Y353345D02*
Y352362D01*
X465056D01*
X467024D01*
X466040D01*
Y349410D01*
X467024Y348426D01*
X469976D02*
X472928D01*
X473912Y349410D01*
X472928Y350394D01*
X470960D01*
X469976Y351378D01*
X470960Y352362D01*
X473912D01*
X475880D02*
X476864D01*
Y351378D01*
X475880D01*
Y352362D01*
Y349410D02*
X476864D01*
Y348426D01*
X475880D01*
Y349410D01*
X282975Y447872D02*
X279039D01*
Y444920D01*
X281007D01*
X279039D01*
Y441968D01*
X284943Y445904D02*
Y441968D01*
Y443936D01*
X285927Y444920D01*
X286911Y445904D01*
X287895D01*
X293798Y441968D02*
X291830D01*
X290847Y442952D01*
Y444920D01*
X291830Y445904D01*
X293798D01*
X294782Y444920D01*
Y443936D01*
X290847D01*
X300686Y440000D02*
Y445904D01*
X297734D01*
X296750Y444920D01*
Y442952D01*
X297734Y441968D01*
X300686D01*
X302654D02*
Y442952D01*
X303638D01*
Y441968D01*
X302654D01*
X281499Y435985D02*
X279531D01*
X278547Y435001D01*
Y431065D01*
X279531Y430081D01*
X281499D01*
X282483Y431065D01*
Y435001D01*
X281499Y435985D01*
X284451Y434017D02*
Y431065D01*
X285435Y430081D01*
X288387D01*
Y434017D01*
X291339Y435001D02*
Y434017D01*
X290355D01*
X292322D01*
X291339D01*
Y431065D01*
X292322Y430081D01*
X295274Y434017D02*
X296258D01*
Y433033D01*
X295274D01*
Y434017D01*
Y431065D02*
X296258D01*
Y430081D01*
X295274D01*
Y431065D01*
X304130Y430081D02*
X300194D01*
X304130Y434017D01*
Y435001D01*
X303146Y435985D01*
X301178D01*
X300194Y435001D01*
X436025Y235237D02*
Y239173D01*
X437993Y241141D01*
X439961Y239173D01*
Y235237D01*
Y238189D01*
X436025D01*
X445864Y241141D02*
X443897Y240157D01*
X441929Y238189D01*
Y236221D01*
X442913Y235237D01*
X444881D01*
X445864Y236221D01*
Y237205D01*
X444881Y238189D01*
X441929D01*
X546261Y235237D02*
Y239173D01*
X548229Y241141D01*
X550197Y239173D01*
Y235237D01*
Y238189D01*
X546261D01*
X556101Y235237D02*
X552165D01*
X556101Y239173D01*
Y240157D01*
X555117Y241141D01*
X553149D01*
X552165Y240157D01*
X518702Y235237D02*
Y239173D01*
X520670Y241141D01*
X522638Y239173D01*
Y235237D01*
Y238189D01*
X518702D01*
X524606Y240157D02*
X525590Y241141D01*
X527558D01*
X528542Y240157D01*
Y239173D01*
X527558Y238189D01*
X526574D01*
X527558D01*
X528542Y237205D01*
Y236221D01*
X527558Y235237D01*
X525590D01*
X524606Y236221D01*
X353840Y235237D02*
X355808D01*
X354824D01*
Y241141D01*
X353840Y240157D01*
X361712Y235237D02*
Y241141D01*
X358760Y238189D01*
X362695D01*
X438977Y345472D02*
X442913D01*
Y344488D01*
X438977Y340552D01*
Y339568D01*
D13*
X353676Y310037D02*
X362859D01*
Y307741D01*
X353676Y298558D01*
Y296262D01*
X463912Y307741D02*
X466208Y310037D01*
X470800D01*
X473096Y307741D01*
Y305445D01*
X470800Y303150D01*
X468504D01*
X470800D01*
X473096Y300854D01*
Y298558D01*
X470800Y296262D01*
X466208D01*
X463912Y298558D01*
X500655Y296262D02*
X491471D01*
X500655Y305445D01*
Y307741D01*
X498359Y310037D01*
X493767D01*
X491471Y307741D01*
X417978Y310037D02*
X408794D01*
Y303150D01*
X413386Y305445D01*
X415682D01*
X417978Y303150D01*
Y298558D01*
X415682Y296262D01*
X411090D01*
X408794Y298558D01*
X521326Y296262D02*
X525918D01*
X523622D01*
Y310037D01*
X521326Y307741D01*
X443241Y296262D02*
Y310037D01*
X436353Y303150D01*
X445537D01*
X546589Y307741D02*
X548885Y310037D01*
X553477D01*
X555773Y307741D01*
Y298558D01*
X553477Y296262D01*
X548885D01*
X546589Y298558D01*
Y307741D01*
X390419Y310037D02*
X385827Y307741D01*
X381235Y303150D01*
Y298558D01*
X383531Y296262D01*
X388123D01*
X390419Y298558D01*
Y300854D01*
X388123Y303150D01*
X381235D01*
D14*
X169095Y256410D02*
Y262445D01*
X172112Y265462D01*
X175129Y262445D01*
Y256410D01*
Y260936D01*
X169095D01*
X178147Y262445D02*
Y256410D01*
Y259428D01*
X179655Y260936D01*
X181164Y262445D01*
X182673D01*
X193234Y265462D02*
Y256410D01*
X188707D01*
X187199Y257919D01*
Y260936D01*
X188707Y262445D01*
X193234D01*
X196251D02*
Y257919D01*
X197760Y256410D01*
X202286D01*
Y262445D01*
X205303Y256410D02*
X208321D01*
X206812D01*
Y262445D01*
X205303D01*
X212847Y256410D02*
Y262445D01*
X217373D01*
X218882Y260936D01*
Y256410D01*
X223408D02*
X226425D01*
X227934Y257919D01*
Y260936D01*
X226425Y262445D01*
X223408D01*
X221899Y260936D01*
Y257919D01*
X223408Y256410D01*
X230951Y260936D02*
X236986D01*
X246038Y263954D02*
X244529Y265462D01*
X241512D01*
X240003Y263954D01*
Y262445D01*
X241512Y260936D01*
X244529D01*
X246038Y259428D01*
Y257919D01*
X244529Y256410D01*
X241512D01*
X240003Y257919D01*
X249056Y265462D02*
Y256410D01*
X255090D01*
X258108Y265462D02*
Y259428D01*
X261125Y256410D01*
X264142Y259428D01*
Y265462D01*
X267160Y256410D02*
Y265462D01*
X273195Y256410D01*
Y265462D01*
X175129Y241296D02*
X169095D01*
X175129Y247330D01*
Y248839D01*
X173621Y250348D01*
X170603D01*
X169095Y248839D01*
X178147D02*
X179655Y250348D01*
X182673D01*
X184181Y248839D01*
Y242804D01*
X182673Y241296D01*
X179655D01*
X178147Y242804D01*
Y248839D01*
X193234Y241296D02*
X187199D01*
X193234Y247330D01*
Y248839D01*
X191725Y250348D01*
X188707D01*
X187199Y248839D01*
X202286Y241296D02*
X196251D01*
X202286Y247330D01*
Y248839D01*
X200777Y250348D01*
X197760D01*
X196251Y248839D01*
X214355Y241296D02*
Y250348D01*
X218882D01*
X220390Y248839D01*
Y245822D01*
X218882Y244313D01*
X214355D01*
X217373D02*
X220390Y241296D01*
X227934D02*
X224916D01*
X223408Y242804D01*
Y245822D01*
X224916Y247330D01*
X227934D01*
X229442Y245822D01*
Y244313D01*
X223408D01*
X232460Y247330D02*
X235477Y241296D01*
X238495Y247330D01*
X241512Y248839D02*
X243021Y250348D01*
X246038D01*
X247547Y248839D01*
Y242804D01*
X246038Y241296D01*
X243021D01*
X241512Y242804D01*
Y248839D01*
X250564Y241296D02*
X253582D01*
X252073D01*
Y250348D01*
X250564Y248839D01*
X169095Y226181D02*
Y235233D01*
X172112Y232216D01*
X175129Y235233D01*
Y226181D01*
X179655Y232216D02*
X182673D01*
X184181Y230707D01*
Y226181D01*
X179655D01*
X178147Y227690D01*
X179655Y229199D01*
X184181D01*
X188707Y233725D02*
Y232216D01*
X187199D01*
X190216D01*
X188707D01*
Y227690D01*
X190216Y226181D01*
X196251Y233725D02*
Y232216D01*
X194742D01*
X197760D01*
X196251D01*
Y227690D01*
X197760Y226181D01*
X202286Y235233D02*
Y226181D01*
Y230707D01*
X203795Y232216D01*
X206812D01*
X208321Y230707D01*
Y226181D01*
X211338D02*
X214355D01*
X212847D01*
Y232216D01*
X211338D01*
X220390D02*
X223408D01*
X224916Y230707D01*
Y226181D01*
X220390D01*
X218882Y227690D01*
X220390Y229199D01*
X224916D01*
X227934Y226181D02*
X232460D01*
X233968Y227690D01*
X232460Y229199D01*
X229442D01*
X227934Y230707D01*
X229442Y232216D01*
X233968D01*
X246038Y226181D02*
Y235233D01*
X249056Y232216D01*
X252073Y235233D01*
Y226181D01*
X255090D02*
Y227690D01*
X256599D01*
Y226181D01*
X255090D01*
M02*
