G04*
G04 #@! TF.GenerationSoftware,Altium Limited,Altium Designer,22.7.1 (60)*
G04*
G04 Layer_Physical_Order=3*
G04 Layer_Color=16440176*
%FSLAX25Y25*%
%MOIN*%
G70*
G04*
G04 #@! TF.SameCoordinates,B4DE3396-8346-461D-A6ED-AD7C64C63353*
G04*
G04*
G04 #@! TF.FilePolarity,Positive*
G04*
G01*
G75*
%ADD39C,0.06299*%
%ADD41R,0.06299X0.06299*%
%ADD42C,0.01968*%
G36*
X297031Y402772D02*
Y397425D01*
X302378D01*
X339397Y360406D01*
Y359301D01*
X340502D01*
X360236Y339567D01*
X453740D01*
X463547Y349373D01*
Y359301D01*
X464093D01*
X465148Y359584D01*
X466095Y360130D01*
X466867Y360903D01*
X467414Y361849D01*
X467696Y362904D01*
Y363997D01*
X467414Y365052D01*
X466867Y365998D01*
X466481Y366385D01*
X470175Y370079D01*
X505905D01*
X545276Y330709D01*
Y309055D01*
X543307Y307087D01*
X332677D01*
X217520Y422244D01*
X177165D01*
Y451559D01*
X248244D01*
X297031Y402772D01*
D02*
G37*
G36*
X558431Y451206D02*
X560105Y450513D01*
X561611Y449506D01*
X562892Y448225D01*
X563899Y446719D01*
X564592Y445045D01*
X564945Y443268D01*
Y442362D01*
X564945Y228110D01*
X564945Y227204D01*
X564592Y225428D01*
X563899Y223754D01*
X562892Y222247D01*
X561611Y220966D01*
X560105Y219960D01*
X558431Y219267D01*
X556654Y218913D01*
X555748Y218913D01*
X152756Y218913D01*
X135078D01*
X133301Y219266D01*
X131628Y219960D01*
X130121Y220966D01*
X128840Y222247D01*
X127834Y223754D01*
X127140Y225428D01*
X126787Y227204D01*
Y228110D01*
X126787Y442362D01*
Y443268D01*
X127140Y445045D01*
X127834Y446719D01*
X128840Y448225D01*
X130121Y449506D01*
X131628Y450513D01*
X133301Y451206D01*
X135078Y451559D01*
X135984Y451559D01*
X176146D01*
Y422244D01*
X176223Y421854D01*
X176444Y421523D01*
X176775Y421302D01*
X177165Y421224D01*
X217097D01*
X222558Y415764D01*
X222395Y415370D01*
X222046D01*
X221317Y415068D01*
X220759Y414510D01*
X220457Y413780D01*
Y412991D01*
X220759Y412262D01*
X221317Y411704D01*
X222046Y411402D01*
X222836D01*
X223565Y411704D01*
X224123Y412262D01*
X224425Y412991D01*
Y413340D01*
X224819Y413503D01*
X331956Y306366D01*
X332287Y306145D01*
X332677Y306067D01*
X543307D01*
X543697Y306145D01*
X544028Y306366D01*
X545997Y308334D01*
X546218Y308665D01*
X546295Y309055D01*
Y330709D01*
X546218Y331099D01*
X545997Y331430D01*
X506627Y370800D01*
X506296Y371021D01*
X505905Y371098D01*
X470175D01*
X469785Y371021D01*
X469454Y370800D01*
X465760Y367106D01*
X465692Y367003D01*
X465148Y367317D01*
X464093Y367600D01*
X463000D01*
X461945Y367317D01*
X460999Y366771D01*
X460226Y365998D01*
X459680Y365052D01*
X459397Y363997D01*
Y362904D01*
X459680Y361849D01*
X460226Y360903D01*
X460999Y360130D01*
X461945Y359584D01*
X462551Y359421D01*
X462527Y359301D01*
Y349796D01*
X453318Y340586D01*
X360659D01*
X342308Y358937D01*
X342459Y359301D01*
X347696D01*
Y367600D01*
X339397D01*
Y362362D01*
X339033Y362212D01*
X304184Y397061D01*
X304334Y397425D01*
X305331D01*
Y405724D01*
X297031D01*
Y404728D01*
X296668Y404577D01*
X250049Y451196D01*
X250200Y451559D01*
X556654D01*
X558431Y451206D01*
D02*
G37*
%LPC*%
G36*
X190055Y447362D02*
X186406D01*
Y443713D01*
X190055D01*
Y447362D01*
D02*
G37*
G36*
X185406D02*
X181756D01*
Y443713D01*
X185406D01*
Y447362D01*
D02*
G37*
G36*
X216452D02*
X215359D01*
X214304Y447079D01*
X213358Y446533D01*
X212585Y445760D01*
X212039Y444814D01*
X211756Y443759D01*
Y442666D01*
X212039Y441611D01*
X212585Y440665D01*
X213358Y439892D01*
X214304Y439346D01*
X215359Y439063D01*
X216452D01*
X217507Y439346D01*
X218453Y439892D01*
X219226Y440665D01*
X219772Y441611D01*
X220055Y442666D01*
Y443759D01*
X219772Y444814D01*
X219226Y445760D01*
X218453Y446533D01*
X217507Y447079D01*
X216452Y447362D01*
D02*
G37*
G36*
X206452D02*
X205359D01*
X204304Y447079D01*
X203358Y446533D01*
X202585Y445760D01*
X202039Y444814D01*
X201756Y443759D01*
Y442666D01*
X202039Y441611D01*
X202585Y440665D01*
X203358Y439892D01*
X204304Y439346D01*
X205359Y439063D01*
X206452D01*
X207507Y439346D01*
X208453Y439892D01*
X209226Y440665D01*
X209772Y441611D01*
X210055Y442666D01*
Y443759D01*
X209772Y444814D01*
X209226Y445760D01*
X208453Y446533D01*
X207507Y447079D01*
X206452Y447362D01*
D02*
G37*
G36*
X196452D02*
X195359D01*
X194304Y447079D01*
X193358Y446533D01*
X192585Y445760D01*
X192039Y444814D01*
X191756Y443759D01*
Y442666D01*
X192039Y441611D01*
X192585Y440665D01*
X193358Y439892D01*
X194304Y439346D01*
X195359Y439063D01*
X196452D01*
X197507Y439346D01*
X198453Y439892D01*
X199226Y440665D01*
X199772Y441611D01*
X200055Y442666D01*
Y443759D01*
X199772Y444814D01*
X199226Y445760D01*
X198453Y446533D01*
X197507Y447079D01*
X196452Y447362D01*
D02*
G37*
G36*
X190055Y442713D02*
X186406D01*
Y439063D01*
X190055D01*
Y442713D01*
D02*
G37*
G36*
X185406D02*
X181756D01*
Y439063D01*
X185406D01*
Y442713D01*
D02*
G37*
G36*
X282042Y405724D02*
X280950D01*
X279894Y405442D01*
X278948Y404895D01*
X278176Y404123D01*
X277629Y403176D01*
X277346Y402121D01*
Y401028D01*
X277629Y399973D01*
X278176Y399027D01*
X278948Y398254D01*
X279894Y397708D01*
X280950Y397425D01*
X282042D01*
X283098Y397708D01*
X284044Y398254D01*
X284817Y399027D01*
X285363Y399973D01*
X285646Y401028D01*
Y402121D01*
X285363Y403176D01*
X284817Y404123D01*
X284044Y404895D01*
X283098Y405442D01*
X282042Y405724D01*
D02*
G37*
G36*
X474093Y367600D02*
X474047D01*
Y363950D01*
X477696D01*
Y363997D01*
X477414Y365052D01*
X476867Y365998D01*
X476095Y366771D01*
X475148Y367317D01*
X474093Y367600D01*
D02*
G37*
G36*
X473047D02*
X473000D01*
X471945Y367317D01*
X470999Y366771D01*
X470226Y365998D01*
X469680Y365052D01*
X469397Y363997D01*
Y363950D01*
X473047D01*
Y367600D01*
D02*
G37*
G36*
X477696Y362950D02*
X474047D01*
Y359301D01*
X474093D01*
X475148Y359584D01*
X476095Y360130D01*
X476867Y360903D01*
X477414Y361849D01*
X477696Y362904D01*
Y362950D01*
D02*
G37*
G36*
X473047D02*
X469397D01*
Y362904D01*
X469680Y361849D01*
X470226Y360903D01*
X470999Y360130D01*
X471945Y359584D01*
X473000Y359301D01*
X473047D01*
Y362950D01*
D02*
G37*
G36*
X328672Y334071D02*
X327234D01*
X325824Y333790D01*
X324495Y333240D01*
X323300Y332441D01*
X322283Y331425D01*
X321484Y330229D01*
X320934Y328901D01*
X320654Y327491D01*
Y326053D01*
X320934Y324642D01*
X321484Y323314D01*
X322283Y322119D01*
X323300Y321102D01*
X324495Y320303D01*
X325824Y319753D01*
X327234Y319472D01*
X328672D01*
X330082Y319753D01*
X331410Y320303D01*
X332606Y321102D01*
X333622Y322119D01*
X334421Y323314D01*
X334971Y324642D01*
X335252Y326053D01*
Y327491D01*
X334971Y328901D01*
X334421Y330229D01*
X333622Y331425D01*
X332606Y332441D01*
X331410Y333240D01*
X330082Y333790D01*
X328672Y334071D01*
D02*
G37*
G36*
X477696Y447600D02*
X474047D01*
Y443950D01*
X477696D01*
Y447600D01*
D02*
G37*
G36*
X473047D02*
X469397D01*
Y443950D01*
X473047D01*
Y447600D01*
D02*
G37*
G36*
X477696Y442950D02*
X474047D01*
Y439301D01*
X477696D01*
Y442950D01*
D02*
G37*
G36*
X473047D02*
X469397D01*
Y439301D01*
X473047D01*
Y442950D01*
D02*
G37*
G36*
X464093Y447600D02*
X463000D01*
X461945Y447317D01*
X460999Y446771D01*
X460226Y445998D01*
X459680Y445052D01*
X459397Y443997D01*
Y442904D01*
X459680Y441849D01*
X460226Y440903D01*
X460999Y440130D01*
X461945Y439584D01*
X463000Y439301D01*
X464093D01*
X465148Y439584D01*
X466095Y440130D01*
X466867Y440903D01*
X467414Y441849D01*
X467696Y442904D01*
Y443997D01*
X467414Y445052D01*
X466867Y445998D01*
X466095Y446771D01*
X465148Y447317D01*
X464093Y447600D01*
D02*
G37*
G36*
X454093D02*
X453000D01*
X451945Y447317D01*
X450999Y446771D01*
X450226Y445998D01*
X449680Y445052D01*
X449397Y443997D01*
Y442904D01*
X449680Y441849D01*
X450226Y440903D01*
X450999Y440130D01*
X451945Y439584D01*
X453000Y439301D01*
X454093D01*
X455148Y439584D01*
X456095Y440130D01*
X456867Y440903D01*
X457413Y441849D01*
X457696Y442904D01*
Y443997D01*
X457413Y445052D01*
X456867Y445998D01*
X456095Y446771D01*
X455148Y447317D01*
X454093Y447600D01*
D02*
G37*
G36*
X444093D02*
X443000D01*
X441945Y447317D01*
X440999Y446771D01*
X440226Y445998D01*
X439680Y445052D01*
X439397Y443997D01*
Y442904D01*
X439680Y441849D01*
X440226Y440903D01*
X440999Y440130D01*
X441945Y439584D01*
X443000Y439301D01*
X444093D01*
X445148Y439584D01*
X446095Y440130D01*
X446867Y440903D01*
X447413Y441849D01*
X447696Y442904D01*
Y443997D01*
X447413Y445052D01*
X446867Y445998D01*
X446095Y446771D01*
X445148Y447317D01*
X444093Y447600D01*
D02*
G37*
G36*
X434093D02*
X433000D01*
X431945Y447317D01*
X430999Y446771D01*
X430226Y445998D01*
X429680Y445052D01*
X429397Y443997D01*
Y442904D01*
X429680Y441849D01*
X430226Y440903D01*
X430999Y440130D01*
X431945Y439584D01*
X433000Y439301D01*
X434093D01*
X435148Y439584D01*
X436095Y440130D01*
X436867Y440903D01*
X437414Y441849D01*
X437696Y442904D01*
Y443997D01*
X437414Y445052D01*
X436867Y445998D01*
X436095Y446771D01*
X435148Y447317D01*
X434093Y447600D01*
D02*
G37*
G36*
X424093D02*
X423000D01*
X421945Y447317D01*
X420999Y446771D01*
X420226Y445998D01*
X419680Y445052D01*
X419397Y443997D01*
Y442904D01*
X419680Y441849D01*
X420226Y440903D01*
X420999Y440130D01*
X421945Y439584D01*
X423000Y439301D01*
X424093D01*
X425148Y439584D01*
X426095Y440130D01*
X426867Y440903D01*
X427414Y441849D01*
X427696Y442904D01*
Y443997D01*
X427414Y445052D01*
X426867Y445998D01*
X426095Y446771D01*
X425148Y447317D01*
X424093Y447600D01*
D02*
G37*
G36*
X414093D02*
X413000D01*
X411945Y447317D01*
X410999Y446771D01*
X410226Y445998D01*
X409680Y445052D01*
X409397Y443997D01*
Y442904D01*
X409680Y441849D01*
X410226Y440903D01*
X410999Y440130D01*
X411945Y439584D01*
X413000Y439301D01*
X414093D01*
X415148Y439584D01*
X416095Y440130D01*
X416867Y440903D01*
X417414Y441849D01*
X417696Y442904D01*
Y443997D01*
X417414Y445052D01*
X416867Y445998D01*
X416095Y446771D01*
X415148Y447317D01*
X414093Y447600D01*
D02*
G37*
G36*
X404093D02*
X403000D01*
X401945Y447317D01*
X400999Y446771D01*
X400226Y445998D01*
X399680Y445052D01*
X399397Y443997D01*
Y442904D01*
X399680Y441849D01*
X400226Y440903D01*
X400999Y440130D01*
X401945Y439584D01*
X403000Y439301D01*
X404093D01*
X405148Y439584D01*
X406095Y440130D01*
X406867Y440903D01*
X407413Y441849D01*
X407696Y442904D01*
Y443997D01*
X407413Y445052D01*
X406867Y445998D01*
X406095Y446771D01*
X405148Y447317D01*
X404093Y447600D01*
D02*
G37*
G36*
X394093D02*
X393000D01*
X391945Y447317D01*
X390999Y446771D01*
X390226Y445998D01*
X389680Y445052D01*
X389397Y443997D01*
Y442904D01*
X389680Y441849D01*
X390226Y440903D01*
X390999Y440130D01*
X391945Y439584D01*
X393000Y439301D01*
X394093D01*
X395148Y439584D01*
X396095Y440130D01*
X396867Y440903D01*
X397413Y441849D01*
X397696Y442904D01*
Y443997D01*
X397413Y445052D01*
X396867Y445998D01*
X396095Y446771D01*
X395148Y447317D01*
X394093Y447600D01*
D02*
G37*
G36*
X384093D02*
X383000D01*
X381945Y447317D01*
X380999Y446771D01*
X380226Y445998D01*
X379680Y445052D01*
X379397Y443997D01*
Y442904D01*
X379680Y441849D01*
X380226Y440903D01*
X380999Y440130D01*
X381945Y439584D01*
X383000Y439301D01*
X384093D01*
X385148Y439584D01*
X386095Y440130D01*
X386867Y440903D01*
X387414Y441849D01*
X387696Y442904D01*
Y443997D01*
X387414Y445052D01*
X386867Y445998D01*
X386095Y446771D01*
X385148Y447317D01*
X384093Y447600D01*
D02*
G37*
G36*
X374093D02*
X373000D01*
X371945Y447317D01*
X370999Y446771D01*
X370226Y445998D01*
X369680Y445052D01*
X369397Y443997D01*
Y442904D01*
X369680Y441849D01*
X370226Y440903D01*
X370999Y440130D01*
X371945Y439584D01*
X373000Y439301D01*
X374093D01*
X375148Y439584D01*
X376095Y440130D01*
X376867Y440903D01*
X377414Y441849D01*
X377696Y442904D01*
Y443997D01*
X377414Y445052D01*
X376867Y445998D01*
X376095Y446771D01*
X375148Y447317D01*
X374093Y447600D01*
D02*
G37*
G36*
X364093D02*
X363000D01*
X361945Y447317D01*
X360999Y446771D01*
X360226Y445998D01*
X359680Y445052D01*
X359397Y443997D01*
Y442904D01*
X359680Y441849D01*
X360226Y440903D01*
X360999Y440130D01*
X361945Y439584D01*
X363000Y439301D01*
X364093D01*
X365148Y439584D01*
X366095Y440130D01*
X366867Y440903D01*
X367413Y441849D01*
X367696Y442904D01*
Y443997D01*
X367413Y445052D01*
X366867Y445998D01*
X366095Y446771D01*
X365148Y447317D01*
X364093Y447600D01*
D02*
G37*
G36*
X354093D02*
X353000D01*
X351945Y447317D01*
X350999Y446771D01*
X350226Y445998D01*
X349680Y445052D01*
X349397Y443997D01*
Y442904D01*
X349680Y441849D01*
X350226Y440903D01*
X350999Y440130D01*
X351945Y439584D01*
X353000Y439301D01*
X354093D01*
X355148Y439584D01*
X356095Y440130D01*
X356867Y440903D01*
X357414Y441849D01*
X357696Y442904D01*
Y443997D01*
X357414Y445052D01*
X356867Y445998D01*
X356095Y446771D01*
X355148Y447317D01*
X354093Y447600D01*
D02*
G37*
G36*
X344093D02*
X343000D01*
X341945Y447317D01*
X340999Y446771D01*
X340226Y445998D01*
X339680Y445052D01*
X339397Y443997D01*
Y442904D01*
X339680Y441849D01*
X340226Y440903D01*
X340999Y440130D01*
X341945Y439584D01*
X343000Y439301D01*
X344093D01*
X345148Y439584D01*
X346095Y440130D01*
X346867Y440903D01*
X347413Y441849D01*
X347696Y442904D01*
Y443997D01*
X347413Y445052D01*
X346867Y445998D01*
X346095Y446771D01*
X345148Y447317D01*
X344093Y447600D01*
D02*
G37*
G36*
X548820Y441748D02*
X548031D01*
X547301Y441446D01*
X546743Y440888D01*
X546441Y440159D01*
Y439369D01*
X546743Y438640D01*
X547301Y438082D01*
X548031Y437780D01*
X548820D01*
X549549Y438082D01*
X550107Y438640D01*
X550410Y439369D01*
Y440159D01*
X550107Y440888D01*
X549549Y441446D01*
X548820Y441748D01*
D02*
G37*
G36*
X143702Y440567D02*
X142912D01*
X142183Y440265D01*
X141625Y439707D01*
X141323Y438977D01*
Y438188D01*
X141625Y437459D01*
X142183Y436901D01*
X142912Y436598D01*
X143702D01*
X144431Y436901D01*
X144989Y437459D01*
X145291Y438188D01*
Y438977D01*
X144989Y439707D01*
X144431Y440265D01*
X143702Y440567D01*
D02*
G37*
G36*
X448599Y434874D02*
X447810D01*
X447081Y434572D01*
X446523Y434014D01*
X446220Y433285D01*
Y432495D01*
X446523Y431766D01*
X447081Y431208D01*
X447810Y430905D01*
X448599D01*
X448966Y431057D01*
X449400Y431038D01*
X449959Y430480D01*
X450688Y430178D01*
X451477D01*
X452207Y430480D01*
X452765Y431038D01*
X453067Y431767D01*
Y432557D01*
X452765Y433286D01*
X452207Y433844D01*
X451477Y434146D01*
X450688D01*
X450321Y433994D01*
X449887Y434014D01*
X449329Y434572D01*
X448599Y434874D01*
D02*
G37*
G36*
X462993Y434071D02*
X462204D01*
X461474Y433769D01*
X460916Y433211D01*
X460614Y432481D01*
Y431692D01*
X460916Y430963D01*
X461474Y430404D01*
X462204Y430102D01*
X462993D01*
X463722Y430404D01*
X464281Y430963D01*
X464583Y431692D01*
Y432481D01*
X464281Y433211D01*
X463722Y433769D01*
X462993Y434071D01*
D02*
G37*
G36*
X558269Y422850D02*
X557479D01*
X556750Y422548D01*
X556192Y421990D01*
X555890Y421261D01*
Y420471D01*
X556192Y419742D01*
X556750Y419184D01*
X557479Y418882D01*
X558269D01*
X558998Y419184D01*
X559556Y419742D01*
X559858Y420471D01*
Y421261D01*
X559556Y421990D01*
X558998Y422548D01*
X558269Y422850D01*
D02*
G37*
G36*
X530710D02*
X529920D01*
X529191Y422548D01*
X528633Y421990D01*
X528331Y421261D01*
Y420471D01*
X528633Y419742D01*
X529191Y419184D01*
X529920Y418882D01*
X530710D01*
X531439Y419184D01*
X531997Y419742D01*
X532299Y420471D01*
Y421261D01*
X531997Y421990D01*
X531439Y422548D01*
X530710Y422850D01*
D02*
G37*
G36*
X503151D02*
X502361D01*
X501632Y422548D01*
X501074Y421990D01*
X500772Y421261D01*
Y420471D01*
X501074Y419742D01*
X501632Y419184D01*
X502361Y418882D01*
X503151D01*
X503880Y419184D01*
X504438Y419742D01*
X504740Y420471D01*
Y421261D01*
X504438Y421990D01*
X503880Y422548D01*
X503151Y422850D01*
D02*
G37*
G36*
X475592D02*
X474802D01*
X474073Y422548D01*
X473515Y421990D01*
X473213Y421261D01*
Y420471D01*
X473515Y419742D01*
X474073Y419184D01*
X474802Y418882D01*
X475592D01*
X476321Y419184D01*
X476879Y419742D01*
X477181Y420471D01*
Y421261D01*
X476879Y421990D01*
X476321Y422548D01*
X475592Y422850D01*
D02*
G37*
G36*
X448033D02*
X447243D01*
X446514Y422548D01*
X445956Y421990D01*
X445653Y421261D01*
Y420471D01*
X445956Y419742D01*
X446514Y419184D01*
X447243Y418882D01*
X448033D01*
X448762Y419184D01*
X449320Y419742D01*
X449622Y420471D01*
Y421261D01*
X449320Y421990D01*
X448762Y422548D01*
X448033Y422850D01*
D02*
G37*
G36*
X420473D02*
X419684D01*
X418955Y422548D01*
X418397Y421990D01*
X418094Y421261D01*
Y420471D01*
X418397Y419742D01*
X418955Y419184D01*
X419684Y418882D01*
X420473D01*
X421203Y419184D01*
X421761Y419742D01*
X422063Y420471D01*
Y421261D01*
X421761Y421990D01*
X421203Y422548D01*
X420473Y422850D01*
D02*
G37*
G36*
X392914D02*
X392125D01*
X391396Y422548D01*
X390838Y421990D01*
X390535Y421261D01*
Y420471D01*
X390838Y419742D01*
X391396Y419184D01*
X392125Y418882D01*
X392914D01*
X393644Y419184D01*
X394202Y419742D01*
X394504Y420471D01*
Y421261D01*
X394202Y421990D01*
X393644Y422548D01*
X392914Y422850D01*
D02*
G37*
G36*
X365355D02*
X364566D01*
X363837Y422548D01*
X363279Y421990D01*
X362976Y421261D01*
Y420471D01*
X363279Y419742D01*
X363837Y419184D01*
X364566Y418882D01*
X365355D01*
X366085Y419184D01*
X366643Y419742D01*
X366945Y420471D01*
Y421261D01*
X366643Y421990D01*
X366085Y422548D01*
X365355Y422850D01*
D02*
G37*
G36*
X338977Y409465D02*
X338188D01*
X337459Y409163D01*
X336900Y408604D01*
X336598Y407875D01*
Y407086D01*
X336900Y406356D01*
X337459Y405798D01*
X338188Y405496D01*
X338977D01*
X339707Y405798D01*
X340265Y406356D01*
X340567Y407086D01*
Y407875D01*
X340265Y408604D01*
X339707Y409163D01*
X338977Y409465D01*
D02*
G37*
G36*
X219883Y407496D02*
X219093D01*
X218364Y407194D01*
X217806Y406636D01*
X217504Y405906D01*
Y405117D01*
X217759Y404502D01*
X217425Y404279D01*
X217266Y404438D01*
X216536Y404740D01*
X215747D01*
X215018Y404438D01*
X214460Y403880D01*
X214158Y403151D01*
Y402361D01*
X214460Y401632D01*
X215018Y401074D01*
X215747Y400772D01*
X216536D01*
X217266Y401074D01*
X217824Y401632D01*
X218126Y402361D01*
Y403151D01*
X217871Y403766D01*
X218205Y403989D01*
X218364Y403830D01*
X219093Y403528D01*
X219883D01*
X220517Y403790D01*
X220759Y403207D01*
X221317Y402648D01*
X222046Y402347D01*
X222836D01*
X223565Y402648D01*
X224123Y403207D01*
X224425Y403936D01*
Y404725D01*
X224123Y405455D01*
X223565Y406013D01*
X222836Y406315D01*
X222046D01*
X221412Y406052D01*
X221170Y406636D01*
X220612Y407194D01*
X219883Y407496D01*
D02*
G37*
G36*
X551576Y407102D02*
X550786D01*
X550057Y406800D01*
X549499Y406242D01*
X549197Y405513D01*
Y404723D01*
X549499Y403994D01*
X550057Y403436D01*
X550786Y403134D01*
X551576D01*
X552055Y403332D01*
X552452Y403404D01*
X553010Y402845D01*
X553739Y402543D01*
X554529D01*
X555258Y402845D01*
X555816Y403404D01*
X555965Y403433D01*
X556356Y403042D01*
X557086Y402740D01*
X557875D01*
X558604Y403042D01*
X559163Y403600D01*
X559465Y404330D01*
Y405119D01*
X559163Y405848D01*
X558604Y406407D01*
X557875Y406709D01*
X557086D01*
X556356Y406407D01*
X555798Y405848D01*
X555649Y405819D01*
X555258Y406210D01*
X554529Y406512D01*
X553739D01*
X553260Y406313D01*
X552863Y406242D01*
X552305Y406800D01*
X551576Y407102D01*
D02*
G37*
G36*
X440946D02*
X440157D01*
X439427Y406800D01*
X438869Y406242D01*
X438567Y405513D01*
Y404723D01*
X438869Y403994D01*
X439427Y403436D01*
X440157Y403134D01*
X440946D01*
X441675Y403436D01*
X441797Y403558D01*
X442183Y403481D01*
X442215Y403404D01*
X442774Y402845D01*
X443503Y402543D01*
X444292D01*
X445022Y402845D01*
X445580Y403404D01*
X445882Y404133D01*
Y404922D01*
X445580Y405652D01*
X445022Y406210D01*
X444292Y406512D01*
X443503D01*
X442774Y406210D01*
X442652Y406088D01*
X442266Y406165D01*
X442233Y406242D01*
X441675Y406800D01*
X440946Y407102D01*
D02*
G37*
G36*
X523623Y406709D02*
X522834D01*
X522104Y406407D01*
X521546Y405848D01*
X521244Y405119D01*
Y404330D01*
X521546Y403600D01*
X522104Y403042D01*
X522834Y402740D01*
X523623D01*
X524352Y403042D01*
X524743Y403433D01*
X524893Y403404D01*
X525451Y402845D01*
X526180Y402543D01*
X526969D01*
X527699Y402845D01*
X528090Y403236D01*
X528239Y403207D01*
X528797Y402648D01*
X529527Y402347D01*
X530316D01*
X531045Y402648D01*
X531603Y403207D01*
X531906Y403936D01*
Y404725D01*
X531603Y405455D01*
X531045Y406013D01*
X530316Y406315D01*
X529527D01*
X528797Y406013D01*
X528406Y405622D01*
X528257Y405652D01*
X527699Y406210D01*
X526969Y406512D01*
X526180D01*
X525451Y406210D01*
X525060Y405819D01*
X524910Y405848D01*
X524352Y406407D01*
X523623Y406709D01*
D02*
G37*
G36*
X496064Y407102D02*
X495275D01*
X494545Y406800D01*
X493987Y406242D01*
X493685Y405513D01*
Y404723D01*
X493987Y403994D01*
X494545Y403436D01*
X495275Y403134D01*
X496064D01*
X496793Y403436D01*
X496915Y403558D01*
X497301Y403481D01*
X497334Y403404D01*
X497892Y402845D01*
X498621Y402543D01*
X499410D01*
X500140Y402845D01*
X500531Y403236D01*
X500680Y403207D01*
X501238Y402648D01*
X501967Y402347D01*
X502757D01*
X503486Y402648D01*
X504044Y403207D01*
X504347Y403936D01*
Y404725D01*
X504044Y405455D01*
X503486Y406013D01*
X502757Y406315D01*
X501967D01*
X501238Y406013D01*
X500847Y405622D01*
X500698Y405652D01*
X500140Y406210D01*
X499410Y406512D01*
X498621D01*
X497892Y406210D01*
X497770Y406088D01*
X497384Y406165D01*
X497352Y406242D01*
X496793Y406800D01*
X496064Y407102D01*
D02*
G37*
G36*
X209056Y407496D02*
X208267D01*
X207537Y407194D01*
X206979Y406636D01*
X206677Y405906D01*
Y405117D01*
X206870Y404651D01*
X206356Y404438D01*
X205798Y403880D01*
X205496Y403151D01*
Y402361D01*
X205798Y401632D01*
X206356Y401074D01*
X207086Y400772D01*
X207875D01*
X208604Y401074D01*
X209162Y401632D01*
X209465Y402361D01*
Y403151D01*
X209272Y403617D01*
X209785Y403830D01*
X210344Y404388D01*
X210646Y405117D01*
Y405906D01*
X210344Y406636D01*
X209785Y407194D01*
X209056Y407496D01*
D02*
G37*
G36*
X546064Y402772D02*
X545275D01*
X544545Y402470D01*
X543987Y401911D01*
X543685Y401182D01*
Y400393D01*
X543987Y399663D01*
X544545Y399105D01*
X545275Y398803D01*
X546064D01*
X546793Y399105D01*
X547352Y399663D01*
X547653Y400393D01*
Y401182D01*
X547352Y401911D01*
X546793Y402470D01*
X546064Y402772D01*
D02*
G37*
G36*
X518505D02*
X517716D01*
X516986Y402470D01*
X516428Y401911D01*
X516126Y401182D01*
Y400393D01*
X516428Y399663D01*
X516986Y399105D01*
X517716Y398803D01*
X518505D01*
X519234Y399105D01*
X519792Y399663D01*
X520094Y400393D01*
Y401182D01*
X519792Y401911D01*
X519234Y402470D01*
X518505Y402772D01*
D02*
G37*
G36*
X490946D02*
X490157D01*
X489427Y402470D01*
X488869Y401911D01*
X488567Y401182D01*
Y400393D01*
X488869Y399663D01*
X489427Y399105D01*
X490157Y398803D01*
X490946D01*
X491675Y399105D01*
X492233Y399663D01*
X492535Y400393D01*
Y401182D01*
X492233Y401911D01*
X491675Y402470D01*
X490946Y402772D01*
D02*
G37*
G36*
X463387D02*
X462597D01*
X461868Y402470D01*
X461310Y401911D01*
X461008Y401182D01*
Y400393D01*
X461310Y399663D01*
X461868Y399105D01*
X462597Y398803D01*
X463387D01*
X464116Y399105D01*
X464674Y399663D01*
X464976Y400393D01*
Y401182D01*
X464674Y401911D01*
X464116Y402470D01*
X463387Y402772D01*
D02*
G37*
G36*
X435828D02*
X435038D01*
X434309Y402470D01*
X433751Y401911D01*
X433449Y401182D01*
Y400393D01*
X433751Y399663D01*
X434309Y399105D01*
X435038Y398803D01*
X435828D01*
X436557Y399105D01*
X437115Y399663D01*
X437417Y400393D01*
Y401182D01*
X437115Y401911D01*
X436557Y402470D01*
X435828Y402772D01*
D02*
G37*
G36*
X408269D02*
X407479D01*
X406750Y402470D01*
X406192Y401911D01*
X405890Y401182D01*
Y400393D01*
X406192Y399663D01*
X406750Y399105D01*
X407479Y398803D01*
X408269D01*
X408998Y399105D01*
X409556Y399663D01*
X409858Y400393D01*
Y401182D01*
X409556Y401911D01*
X408998Y402470D01*
X408269Y402772D01*
D02*
G37*
G36*
X380710D02*
X379920D01*
X379191Y402470D01*
X378633Y401911D01*
X378331Y401182D01*
Y400393D01*
X378633Y399663D01*
X379191Y399105D01*
X379920Y398803D01*
X380710D01*
X381439Y399105D01*
X381997Y399663D01*
X382299Y400393D01*
Y401182D01*
X381997Y401911D01*
X381439Y402470D01*
X380710Y402772D01*
D02*
G37*
G36*
X353151Y402756D02*
X352361D01*
X351632Y402454D01*
X351074Y401896D01*
X350772Y401166D01*
Y400377D01*
X351074Y399648D01*
X351632Y399090D01*
X352361Y398787D01*
X353151D01*
X353880Y399090D01*
X354438Y399648D01*
X354740Y400377D01*
Y401166D01*
X354438Y401896D01*
X353880Y402454D01*
X353151Y402756D01*
D02*
G37*
G36*
X364568Y402575D02*
X363778D01*
X363049Y402273D01*
X362491Y401715D01*
X362189Y400985D01*
Y400196D01*
X362491Y399467D01*
X363049Y398908D01*
X363778Y398606D01*
X364568D01*
X365297Y398908D01*
X365855Y399467D01*
X366158Y400196D01*
Y400985D01*
X365855Y401715D01*
X365297Y402273D01*
X364568Y402575D01*
D02*
G37*
G36*
X419686D02*
X418897D01*
X418167Y402273D01*
X417609Y401715D01*
X417307Y400985D01*
Y400196D01*
X417609Y399467D01*
X418167Y398908D01*
X418751Y398667D01*
X418488Y398032D01*
Y397243D01*
X418790Y396514D01*
X419348Y395956D01*
X420078Y395654D01*
X420867D01*
X421596Y395956D01*
X422155Y396514D01*
X422457Y397243D01*
Y398032D01*
X422155Y398762D01*
X421596Y399320D01*
X421013Y399562D01*
X421276Y400196D01*
Y400985D01*
X420973Y401715D01*
X420415Y402273D01*
X419686Y402575D01*
D02*
G37*
G36*
X546458Y396866D02*
X545668D01*
X544939Y396564D01*
X544381Y396006D01*
X544079Y395277D01*
Y394487D01*
X544381Y393758D01*
X544939Y393200D01*
X545668Y392898D01*
X546458D01*
X547187Y393200D01*
X547745Y393758D01*
X548047Y394487D01*
Y395277D01*
X547745Y396006D01*
X547187Y396564D01*
X546458Y396866D01*
D02*
G37*
G36*
X518899D02*
X518109D01*
X517380Y396564D01*
X516822Y396006D01*
X516520Y395277D01*
Y394487D01*
X516822Y393758D01*
X517380Y393200D01*
X518109Y392898D01*
X518899D01*
X519628Y393200D01*
X520186Y393758D01*
X520488Y394487D01*
Y395277D01*
X520186Y396006D01*
X519628Y396564D01*
X518899Y396866D01*
D02*
G37*
G36*
X491340D02*
X490550D01*
X489821Y396564D01*
X489263Y396006D01*
X488961Y395277D01*
Y394487D01*
X489263Y393758D01*
X489821Y393200D01*
X490550Y392898D01*
X491340D01*
X492069Y393200D01*
X492627Y393758D01*
X492929Y394487D01*
Y395277D01*
X492627Y396006D01*
X492069Y396564D01*
X491340Y396866D01*
D02*
G37*
G36*
X463780D02*
X462991D01*
X462262Y396564D01*
X461704Y396006D01*
X461402Y395277D01*
Y394487D01*
X461704Y393758D01*
X462262Y393200D01*
X462991Y392898D01*
X463780D01*
X464510Y393200D01*
X465068Y393758D01*
X465370Y394487D01*
Y395277D01*
X465068Y396006D01*
X464510Y396564D01*
X463780Y396866D01*
D02*
G37*
G36*
X436222D02*
X435432D01*
X434703Y396564D01*
X434145Y396006D01*
X433843Y395277D01*
Y394487D01*
X434145Y393758D01*
X434703Y393200D01*
X435432Y392898D01*
X436222D01*
X436951Y393200D01*
X437509Y393758D01*
X437811Y394487D01*
Y395277D01*
X437509Y396006D01*
X436951Y396564D01*
X436222Y396866D01*
D02*
G37*
G36*
X408662D02*
X407873D01*
X407144Y396564D01*
X406586Y396006D01*
X406284Y395277D01*
Y394487D01*
X406586Y393758D01*
X407144Y393200D01*
X407873Y392898D01*
X408662D01*
X409392Y393200D01*
X409950Y393758D01*
X410252Y394487D01*
Y395277D01*
X409950Y396006D01*
X409392Y396564D01*
X408662Y396866D01*
D02*
G37*
G36*
X381103D02*
X380314D01*
X379585Y396564D01*
X379027Y396006D01*
X378724Y395277D01*
Y394487D01*
X379027Y393758D01*
X379585Y393200D01*
X380314Y392898D01*
X381103D01*
X381833Y393200D01*
X382391Y393758D01*
X382693Y394487D01*
Y395277D01*
X382391Y396006D01*
X381833Y396564D01*
X381103Y396866D01*
D02*
G37*
G36*
X353544D02*
X352755D01*
X352026Y396564D01*
X351467Y396006D01*
X351165Y395277D01*
Y394487D01*
X351467Y393758D01*
X352026Y393200D01*
X352755Y392898D01*
X353544D01*
X354274Y393200D01*
X354832Y393758D01*
X355134Y394487D01*
Y395277D01*
X354832Y396006D01*
X354274Y396564D01*
X353544Y396866D01*
D02*
G37*
G36*
X454135Y394701D02*
X453345D01*
X452616Y394399D01*
X452058Y393841D01*
X451756Y393111D01*
Y392322D01*
X452058Y391593D01*
X452410Y391240D01*
X452058Y390888D01*
X451756Y390159D01*
Y389369D01*
X452058Y388640D01*
X452616Y388082D01*
X453032Y387910D01*
X452740Y387206D01*
Y386416D01*
X453042Y385687D01*
X453600Y385129D01*
X454330Y384827D01*
X455119D01*
X455848Y385129D01*
X456407Y385687D01*
X456709Y386416D01*
Y387206D01*
X456407Y387935D01*
X455848Y388493D01*
X455433Y388665D01*
X455724Y389369D01*
Y390159D01*
X455422Y390888D01*
X455070Y391240D01*
X455422Y391593D01*
X455724Y392322D01*
Y393111D01*
X455422Y393841D01*
X454864Y394399D01*
X454135Y394701D01*
D02*
G37*
G36*
X454093Y367600D02*
X454047D01*
Y363950D01*
X457696D01*
Y363997D01*
X457413Y365052D01*
X456867Y365998D01*
X456095Y366771D01*
X455148Y367317D01*
X454093Y367600D01*
D02*
G37*
G36*
X453047D02*
X453000D01*
X451945Y367317D01*
X450999Y366771D01*
X450226Y365998D01*
X449680Y365052D01*
X449397Y363997D01*
Y363950D01*
X453047D01*
Y367600D01*
D02*
G37*
G36*
X457696Y362950D02*
X454047D01*
Y359301D01*
X454093D01*
X455148Y359584D01*
X456095Y360130D01*
X456867Y360903D01*
X457413Y361849D01*
X457696Y362904D01*
Y362950D01*
D02*
G37*
G36*
X453047D02*
X449397D01*
Y362904D01*
X449680Y361849D01*
X450226Y360903D01*
X450999Y360130D01*
X451945Y359584D01*
X453000Y359301D01*
X453047D01*
Y362950D01*
D02*
G37*
G36*
X444093Y367600D02*
X443000D01*
X441945Y367317D01*
X440999Y366771D01*
X440226Y365998D01*
X439680Y365052D01*
X439397Y363997D01*
Y362904D01*
X439680Y361849D01*
X440226Y360903D01*
X440999Y360130D01*
X441945Y359584D01*
X443000Y359301D01*
X444093D01*
X445148Y359584D01*
X446095Y360130D01*
X446867Y360903D01*
X447413Y361849D01*
X447696Y362904D01*
Y363997D01*
X447413Y365052D01*
X446867Y365998D01*
X446095Y366771D01*
X445148Y367317D01*
X444093Y367600D01*
D02*
G37*
G36*
X434093D02*
X433000D01*
X431945Y367317D01*
X430999Y366771D01*
X430226Y365998D01*
X429680Y365052D01*
X429397Y363997D01*
Y362904D01*
X429680Y361849D01*
X430226Y360903D01*
X430999Y360130D01*
X431945Y359584D01*
X433000Y359301D01*
X434093D01*
X435148Y359584D01*
X436095Y360130D01*
X436867Y360903D01*
X437414Y361849D01*
X437696Y362904D01*
Y363997D01*
X437414Y365052D01*
X436867Y365998D01*
X436095Y366771D01*
X435148Y367317D01*
X434093Y367600D01*
D02*
G37*
G36*
X424093D02*
X423000D01*
X421945Y367317D01*
X420999Y366771D01*
X420226Y365998D01*
X419680Y365052D01*
X419397Y363997D01*
Y362904D01*
X419680Y361849D01*
X420226Y360903D01*
X420999Y360130D01*
X421945Y359584D01*
X423000Y359301D01*
X424093D01*
X425148Y359584D01*
X426095Y360130D01*
X426867Y360903D01*
X427414Y361849D01*
X427696Y362904D01*
Y363997D01*
X427414Y365052D01*
X426867Y365998D01*
X426095Y366771D01*
X425148Y367317D01*
X424093Y367600D01*
D02*
G37*
G36*
X414093D02*
X413000D01*
X411945Y367317D01*
X410999Y366771D01*
X410226Y365998D01*
X409680Y365052D01*
X409397Y363997D01*
Y362904D01*
X409680Y361849D01*
X410226Y360903D01*
X410999Y360130D01*
X411945Y359584D01*
X413000Y359301D01*
X414093D01*
X415148Y359584D01*
X416095Y360130D01*
X416867Y360903D01*
X417414Y361849D01*
X417696Y362904D01*
Y363997D01*
X417414Y365052D01*
X416867Y365998D01*
X416095Y366771D01*
X415148Y367317D01*
X414093Y367600D01*
D02*
G37*
G36*
X404093D02*
X403000D01*
X401945Y367317D01*
X400999Y366771D01*
X400226Y365998D01*
X399680Y365052D01*
X399397Y363997D01*
Y362904D01*
X399680Y361849D01*
X400226Y360903D01*
X400999Y360130D01*
X401945Y359584D01*
X403000Y359301D01*
X404093D01*
X405148Y359584D01*
X406095Y360130D01*
X406867Y360903D01*
X407413Y361849D01*
X407696Y362904D01*
Y363997D01*
X407413Y365052D01*
X406867Y365998D01*
X406095Y366771D01*
X405148Y367317D01*
X404093Y367600D01*
D02*
G37*
G36*
X394093D02*
X393000D01*
X391945Y367317D01*
X390999Y366771D01*
X390226Y365998D01*
X389680Y365052D01*
X389397Y363997D01*
Y362904D01*
X389680Y361849D01*
X390226Y360903D01*
X390999Y360130D01*
X391945Y359584D01*
X393000Y359301D01*
X394093D01*
X395148Y359584D01*
X396095Y360130D01*
X396867Y360903D01*
X397413Y361849D01*
X397696Y362904D01*
Y363997D01*
X397413Y365052D01*
X396867Y365998D01*
X396095Y366771D01*
X395148Y367317D01*
X394093Y367600D01*
D02*
G37*
G36*
X384093D02*
X383000D01*
X381945Y367317D01*
X380999Y366771D01*
X380226Y365998D01*
X379680Y365052D01*
X379397Y363997D01*
Y362904D01*
X379680Y361849D01*
X380226Y360903D01*
X380999Y360130D01*
X381945Y359584D01*
X383000Y359301D01*
X384093D01*
X385148Y359584D01*
X386095Y360130D01*
X386867Y360903D01*
X387414Y361849D01*
X387696Y362904D01*
Y363997D01*
X387414Y365052D01*
X386867Y365998D01*
X386095Y366771D01*
X385148Y367317D01*
X384093Y367600D01*
D02*
G37*
G36*
X374093D02*
X373000D01*
X371945Y367317D01*
X370999Y366771D01*
X370226Y365998D01*
X369680Y365052D01*
X369397Y363997D01*
Y362904D01*
X369680Y361849D01*
X370226Y360903D01*
X370999Y360130D01*
X371945Y359584D01*
X373000Y359301D01*
X374093D01*
X375148Y359584D01*
X376095Y360130D01*
X376867Y360903D01*
X377414Y361849D01*
X377696Y362904D01*
Y363997D01*
X377414Y365052D01*
X376867Y365998D01*
X376095Y366771D01*
X375148Y367317D01*
X374093Y367600D01*
D02*
G37*
G36*
X364093D02*
X363000D01*
X361945Y367317D01*
X360999Y366771D01*
X360226Y365998D01*
X359680Y365052D01*
X359397Y363997D01*
Y362904D01*
X359680Y361849D01*
X360226Y360903D01*
X360999Y360130D01*
X361945Y359584D01*
X363000Y359301D01*
X364093D01*
X365148Y359584D01*
X366095Y360130D01*
X366867Y360903D01*
X367413Y361849D01*
X367696Y362904D01*
Y363997D01*
X367413Y365052D01*
X366867Y365998D01*
X366095Y366771D01*
X365148Y367317D01*
X364093Y367600D01*
D02*
G37*
G36*
X354093D02*
X353000D01*
X351945Y367317D01*
X350999Y366771D01*
X350226Y365998D01*
X349680Y365052D01*
X349397Y363997D01*
Y362904D01*
X349680Y361849D01*
X350226Y360903D01*
X350999Y360130D01*
X351945Y359584D01*
X353000Y359301D01*
X354093D01*
X355148Y359584D01*
X356095Y360130D01*
X356867Y360903D01*
X357414Y361849D01*
X357696Y362904D01*
Y363997D01*
X357414Y365052D01*
X356867Y365998D01*
X356095Y366771D01*
X355148Y367317D01*
X354093Y367600D01*
D02*
G37*
G36*
X286939Y334071D02*
X285502D01*
X284091Y333790D01*
X282763Y333240D01*
X281568Y332441D01*
X280551Y331425D01*
X279752Y330229D01*
X279202Y328901D01*
X278921Y327491D01*
Y326053D01*
X279202Y324642D01*
X279752Y323314D01*
X280551Y322119D01*
X281568Y321102D01*
X282763Y320303D01*
X284091Y319753D01*
X285502Y319472D01*
X286939D01*
X288350Y319753D01*
X289678Y320303D01*
X290874Y321102D01*
X291890Y322119D01*
X292689Y323314D01*
X293239Y324642D01*
X293520Y326053D01*
Y327491D01*
X293239Y328901D01*
X292689Y330229D01*
X291890Y331425D01*
X290874Y332441D01*
X289678Y333240D01*
X288350Y333790D01*
X286939Y334071D01*
D02*
G37*
G36*
X297790Y303362D02*
X297744D01*
Y299713D01*
X301394D01*
Y299759D01*
X301111Y300814D01*
X300565Y301761D01*
X299792Y302533D01*
X298846Y303079D01*
X297790Y303362D01*
D02*
G37*
G36*
X296744D02*
X296698D01*
X295642Y303079D01*
X294696Y302533D01*
X293924Y301761D01*
X293377Y300814D01*
X293094Y299759D01*
Y299713D01*
X296744D01*
Y303362D01*
D02*
G37*
G36*
X317475D02*
X316383D01*
X315327Y303079D01*
X314381Y302533D01*
X313609Y301761D01*
X313062Y300814D01*
X312779Y299759D01*
Y298666D01*
X313062Y297611D01*
X313609Y296665D01*
X314381Y295892D01*
X315327Y295346D01*
X316383Y295063D01*
X317475D01*
X318531Y295346D01*
X319477Y295892D01*
X320250Y296665D01*
X320796Y297611D01*
X321079Y298666D01*
Y299759D01*
X320796Y300814D01*
X320250Y301761D01*
X319477Y302533D01*
X318531Y303079D01*
X317475Y303362D01*
D02*
G37*
G36*
X307633D02*
X306540D01*
X305485Y303079D01*
X304539Y302533D01*
X303766Y301761D01*
X303220Y300814D01*
X302937Y299759D01*
Y298666D01*
X303220Y297611D01*
X303766Y296665D01*
X304539Y295892D01*
X305485Y295346D01*
X306540Y295063D01*
X307633D01*
X308688Y295346D01*
X309634Y295892D01*
X310407Y296665D01*
X310953Y297611D01*
X311236Y298666D01*
Y299759D01*
X310953Y300814D01*
X310407Y301761D01*
X309634Y302533D01*
X308688Y303079D01*
X307633Y303362D01*
D02*
G37*
G36*
X301394Y298713D02*
X297744D01*
Y295063D01*
X297790D01*
X298846Y295346D01*
X299792Y295892D01*
X300565Y296665D01*
X301111Y297611D01*
X301394Y298666D01*
Y298713D01*
D02*
G37*
G36*
X296744D02*
X293094D01*
Y298666D01*
X293377Y297611D01*
X293924Y296665D01*
X294696Y295892D01*
X295642Y295346D01*
X296698Y295063D01*
X296744D01*
Y298713D01*
D02*
G37*
G36*
X256771Y310213D02*
X255040D01*
X253330Y309942D01*
X251683Y309407D01*
X250140Y308621D01*
X248740Y307603D01*
X247515Y306379D01*
X246498Y304978D01*
X245711Y303435D01*
X245176Y301788D01*
X244905Y300078D01*
Y298347D01*
X245176Y296637D01*
X245711Y294990D01*
X246498Y293447D01*
X247515Y292047D01*
X248740Y290822D01*
X250140Y289805D01*
X251683Y289019D01*
X253330Y288484D01*
X255040Y288213D01*
X256771D01*
X258481Y288484D01*
X260128Y289019D01*
X261671Y289805D01*
X263071Y290822D01*
X264296Y292047D01*
X265314Y293447D01*
X266100Y294990D01*
X266635Y296637D01*
X266905Y298347D01*
Y300078D01*
X266635Y301788D01*
X266100Y303435D01*
X265314Y304978D01*
X264296Y306379D01*
X263071Y307603D01*
X261671Y308621D01*
X260128Y309407D01*
X258481Y309942D01*
X256771Y310213D01*
D02*
G37*
G36*
X146771D02*
X145040D01*
X143330Y309942D01*
X141683Y309407D01*
X140140Y308621D01*
X138740Y307603D01*
X137515Y306379D01*
X136497Y304978D01*
X135711Y303435D01*
X135176Y301788D01*
X134906Y300078D01*
Y298347D01*
X135176Y296637D01*
X135711Y294990D01*
X136497Y293447D01*
X137515Y292047D01*
X138740Y290822D01*
X140140Y289805D01*
X141683Y289019D01*
X143330Y288484D01*
X145040Y288213D01*
X146771D01*
X148481Y288484D01*
X150128Y289019D01*
X151671Y289805D01*
X153071Y290822D01*
X154296Y292047D01*
X155314Y293447D01*
X156100Y294990D01*
X156635Y296637D01*
X156905Y298347D01*
Y300078D01*
X156635Y301788D01*
X156100Y303435D01*
X155314Y304978D01*
X154296Y306379D01*
X153071Y307603D01*
X151671Y308621D01*
X150128Y309407D01*
X148481Y309942D01*
X146771Y310213D01*
D02*
G37*
G36*
X325198Y281512D02*
X324409D01*
X323679Y281210D01*
X323121Y280651D01*
X322819Y279922D01*
Y279133D01*
X323121Y278404D01*
X323679Y277845D01*
X324409Y277543D01*
X325198D01*
X325927Y277845D01*
X326485Y278404D01*
X326787Y279133D01*
Y279922D01*
X326485Y280651D01*
X325927Y281210D01*
X325198Y281512D01*
D02*
G37*
G36*
X552559Y288643D02*
X549803D01*
X548463Y288466D01*
X547214Y287949D01*
X546142Y287126D01*
X545319Y286054D01*
X544801Y284805D01*
X544625Y283465D01*
X544801Y282124D01*
X545319Y280875D01*
X546142Y279803D01*
X547214Y278980D01*
X547299Y278945D01*
X547299Y278551D01*
X547122Y278478D01*
X546337Y277876D01*
X545735Y277091D01*
X545357Y276177D01*
X545227Y275197D01*
X545357Y274216D01*
X545735Y273303D01*
X546337Y272518D01*
X547122Y271916D01*
X548035Y271538D01*
X548637Y271458D01*
Y271061D01*
X548035Y270982D01*
X547122Y270604D01*
X546337Y270002D01*
X545735Y269217D01*
X545357Y268303D01*
X545227Y267323D01*
X545357Y266342D01*
X545735Y265429D01*
X546337Y264644D01*
X547122Y264042D01*
X548035Y263664D01*
X548530Y263598D01*
X548505Y263205D01*
X545260D01*
Y255693D01*
X546603D01*
X546737Y255299D01*
X546142Y254843D01*
X545319Y253770D01*
X544801Y252521D01*
X544625Y251181D01*
X544801Y249841D01*
X545319Y248592D01*
X546142Y247520D01*
X547214Y246697D01*
X548463Y246179D01*
X549803Y246003D01*
X552559D01*
X553899Y246179D01*
X555148Y246697D01*
X556221Y247520D01*
X557044Y248592D01*
X557561Y249841D01*
X557737Y251181D01*
X557561Y252521D01*
X557044Y253770D01*
X556221Y254843D01*
X555625Y255299D01*
X555759Y255693D01*
X557102D01*
Y263205D01*
X553858D01*
X553832Y263598D01*
X554327Y263664D01*
X555241Y264042D01*
X556025Y264644D01*
X556627Y265429D01*
X557006Y266342D01*
X557135Y267323D01*
X557006Y268303D01*
X556627Y269217D01*
X556025Y270002D01*
X555241Y270604D01*
X554327Y270982D01*
X553725Y271061D01*
Y271458D01*
X554327Y271538D01*
X555241Y271916D01*
X556025Y272518D01*
X556627Y273303D01*
X557006Y274216D01*
X557135Y275197D01*
X557006Y276177D01*
X556627Y277091D01*
X556025Y277876D01*
X555241Y278478D01*
X555063Y278551D01*
X555063Y278945D01*
X555148Y278980D01*
X556221Y279803D01*
X557044Y280875D01*
X557561Y282124D01*
X557737Y283465D01*
X557561Y284805D01*
X557044Y286054D01*
X556221Y287126D01*
X555148Y287949D01*
X553899Y288466D01*
X552559Y288643D01*
D02*
G37*
G36*
X525000D02*
X522244D01*
X520904Y288466D01*
X519655Y287949D01*
X518583Y287126D01*
X517760Y286054D01*
X517242Y284805D01*
X517066Y283465D01*
X517242Y282124D01*
X517760Y280875D01*
X518583Y279803D01*
X519655Y278980D01*
X519740Y278945D01*
X519740Y278551D01*
X519562Y278478D01*
X518778Y277876D01*
X518176Y277091D01*
X517798Y276177D01*
X517668Y275197D01*
X517798Y274216D01*
X518176Y273303D01*
X518778Y272518D01*
X519562Y271916D01*
X520476Y271538D01*
X521078Y271458D01*
Y271061D01*
X520476Y270982D01*
X519562Y270604D01*
X518778Y270002D01*
X518176Y269217D01*
X517798Y268303D01*
X517668Y267323D01*
X517798Y266342D01*
X518176Y265429D01*
X518778Y264644D01*
X519562Y264042D01*
X520476Y263664D01*
X520971Y263598D01*
X520946Y263205D01*
X517701D01*
Y255693D01*
X519044D01*
X519178Y255299D01*
X518583Y254843D01*
X517760Y253770D01*
X517242Y252521D01*
X517066Y251181D01*
X517242Y249841D01*
X517760Y248592D01*
X518583Y247520D01*
X519655Y246697D01*
X520904Y246179D01*
X522244Y246003D01*
X525000D01*
X526340Y246179D01*
X527589Y246697D01*
X528661Y247520D01*
X529484Y248592D01*
X530002Y249841D01*
X530178Y251181D01*
X530002Y252521D01*
X529484Y253770D01*
X528661Y254843D01*
X528066Y255299D01*
X528200Y255693D01*
X529543D01*
Y263205D01*
X526299D01*
X526273Y263598D01*
X526768Y263664D01*
X527682Y264042D01*
X528466Y264644D01*
X529068Y265429D01*
X529447Y266342D01*
X529576Y267323D01*
X529447Y268303D01*
X529068Y269217D01*
X528466Y270002D01*
X527682Y270604D01*
X526768Y270982D01*
X526166Y271061D01*
Y271458D01*
X526768Y271538D01*
X527682Y271916D01*
X528466Y272518D01*
X529068Y273303D01*
X529447Y274216D01*
X529576Y275197D01*
X529447Y276177D01*
X529068Y277091D01*
X528466Y277876D01*
X527682Y278478D01*
X527504Y278551D01*
X527504Y278945D01*
X527589Y278980D01*
X528661Y279803D01*
X529484Y280875D01*
X530002Y282124D01*
X530178Y283465D01*
X530002Y284805D01*
X529484Y286054D01*
X528661Y287126D01*
X527589Y287949D01*
X526340Y288466D01*
X525000Y288643D01*
D02*
G37*
G36*
X497441D02*
X494685D01*
X493345Y288466D01*
X492096Y287949D01*
X491023Y287126D01*
X490201Y286054D01*
X489683Y284805D01*
X489507Y283465D01*
X489683Y282124D01*
X490201Y280875D01*
X491023Y279803D01*
X492096Y278980D01*
X492181Y278945D01*
X492181Y278551D01*
X492003Y278478D01*
X491219Y277876D01*
X490617Y277091D01*
X490238Y276177D01*
X490109Y275197D01*
X490238Y274216D01*
X490617Y273303D01*
X491219Y272518D01*
X492003Y271916D01*
X492917Y271538D01*
X493519Y271458D01*
Y271061D01*
X492917Y270982D01*
X492003Y270604D01*
X491219Y270002D01*
X490617Y269217D01*
X490238Y268303D01*
X490109Y267323D01*
X490238Y266342D01*
X490617Y265429D01*
X491219Y264644D01*
X492003Y264042D01*
X492917Y263664D01*
X493412Y263598D01*
X493387Y263205D01*
X490142D01*
Y255693D01*
X491485D01*
X491619Y255299D01*
X491023Y254843D01*
X490201Y253770D01*
X489683Y252521D01*
X489507Y251181D01*
X489683Y249841D01*
X490201Y248592D01*
X491023Y247520D01*
X492096Y246697D01*
X493345Y246179D01*
X494685Y246003D01*
X497441D01*
X498781Y246179D01*
X500030Y246697D01*
X501102Y247520D01*
X501925Y248592D01*
X502443Y249841D01*
X502619Y251181D01*
X502443Y252521D01*
X501925Y253770D01*
X501102Y254843D01*
X500507Y255299D01*
X500641Y255693D01*
X501984D01*
Y263205D01*
X498739D01*
X498714Y263598D01*
X499209Y263664D01*
X500122Y264042D01*
X500907Y264644D01*
X501509Y265429D01*
X501888Y266342D01*
X502017Y267323D01*
X501888Y268303D01*
X501509Y269217D01*
X500907Y270002D01*
X500122Y270604D01*
X499209Y270982D01*
X498607Y271061D01*
Y271458D01*
X499209Y271538D01*
X500122Y271916D01*
X500907Y272518D01*
X501509Y273303D01*
X501888Y274216D01*
X502017Y275197D01*
X501888Y276177D01*
X501509Y277091D01*
X500907Y277876D01*
X500122Y278478D01*
X499945Y278551D01*
X499945Y278945D01*
X500030Y278980D01*
X501102Y279803D01*
X501925Y280875D01*
X502443Y282124D01*
X502619Y283465D01*
X502443Y284805D01*
X501925Y286054D01*
X501102Y287126D01*
X500030Y287949D01*
X498781Y288466D01*
X497441Y288643D01*
D02*
G37*
G36*
X469882D02*
X467126D01*
X465786Y288466D01*
X464537Y287949D01*
X463464Y287126D01*
X462642Y286054D01*
X462124Y284805D01*
X461948Y283465D01*
X462124Y282124D01*
X462642Y280875D01*
X463464Y279803D01*
X464537Y278980D01*
X464622Y278945D01*
X464622Y278551D01*
X464444Y278478D01*
X463660Y277876D01*
X463058Y277091D01*
X462679Y276177D01*
X462550Y275197D01*
X462679Y274216D01*
X463058Y273303D01*
X463660Y272518D01*
X464444Y271916D01*
X465358Y271538D01*
X465960Y271458D01*
Y271061D01*
X465358Y270982D01*
X464444Y270604D01*
X463660Y270002D01*
X463058Y269217D01*
X462679Y268303D01*
X462550Y267323D01*
X462679Y266342D01*
X463058Y265429D01*
X463660Y264644D01*
X464444Y264042D01*
X465358Y263664D01*
X465853Y263598D01*
X465828Y263205D01*
X462583D01*
Y255693D01*
X463926D01*
X464059Y255299D01*
X463464Y254843D01*
X462642Y253770D01*
X462124Y252521D01*
X461948Y251181D01*
X462124Y249841D01*
X462642Y248592D01*
X463464Y247520D01*
X464537Y246697D01*
X465786Y246179D01*
X467126Y246003D01*
X469882D01*
X471222Y246179D01*
X472471Y246697D01*
X473543Y247520D01*
X474366Y248592D01*
X474884Y249841D01*
X475060Y251181D01*
X474884Y252521D01*
X474366Y253770D01*
X473543Y254843D01*
X472948Y255299D01*
X473082Y255693D01*
X474425D01*
Y263205D01*
X471180D01*
X471155Y263598D01*
X471650Y263664D01*
X472564Y264042D01*
X473348Y264644D01*
X473950Y265429D01*
X474329Y266342D01*
X474458Y267323D01*
X474329Y268303D01*
X473950Y269217D01*
X473348Y270002D01*
X472564Y270604D01*
X471650Y270982D01*
X471048Y271061D01*
Y271458D01*
X471650Y271538D01*
X472564Y271916D01*
X473348Y272518D01*
X473950Y273303D01*
X474329Y274216D01*
X474458Y275197D01*
X474329Y276177D01*
X473950Y277091D01*
X473348Y277876D01*
X472564Y278478D01*
X472386Y278551D01*
X472386Y278945D01*
X472471Y278980D01*
X473543Y279803D01*
X474366Y280875D01*
X474884Y282124D01*
X475060Y283465D01*
X474884Y284805D01*
X474366Y286054D01*
X473543Y287126D01*
X472471Y287949D01*
X471222Y288466D01*
X469882Y288643D01*
D02*
G37*
G36*
X442323D02*
X439567D01*
X438227Y288466D01*
X436978Y287949D01*
X435905Y287126D01*
X435082Y286054D01*
X434565Y284805D01*
X434389Y283465D01*
X434565Y282124D01*
X435082Y280875D01*
X435905Y279803D01*
X436978Y278980D01*
X437063Y278945D01*
X437063Y278551D01*
X436885Y278478D01*
X436101Y277876D01*
X435499Y277091D01*
X435120Y276177D01*
X434991Y275197D01*
X435120Y274216D01*
X435499Y273303D01*
X436101Y272518D01*
X436885Y271916D01*
X437799Y271538D01*
X438401Y271458D01*
Y271061D01*
X437799Y270982D01*
X436885Y270604D01*
X436101Y270002D01*
X435499Y269217D01*
X435120Y268303D01*
X434991Y267323D01*
X435120Y266342D01*
X435499Y265429D01*
X436101Y264644D01*
X436885Y264042D01*
X437799Y263664D01*
X438294Y263598D01*
X438268Y263205D01*
X435024D01*
Y255693D01*
X436367D01*
X436501Y255299D01*
X435905Y254843D01*
X435082Y253770D01*
X434565Y252521D01*
X434389Y251181D01*
X434565Y249841D01*
X435082Y248592D01*
X435905Y247520D01*
X436978Y246697D01*
X438227Y246179D01*
X439567Y246003D01*
X442323D01*
X443663Y246179D01*
X444912Y246697D01*
X445984Y247520D01*
X446807Y248592D01*
X447325Y249841D01*
X447501Y251181D01*
X447325Y252521D01*
X446807Y253770D01*
X445984Y254843D01*
X445389Y255299D01*
X445523Y255693D01*
X446866D01*
Y263205D01*
X443621D01*
X443596Y263598D01*
X444091Y263664D01*
X445004Y264042D01*
X445789Y264644D01*
X446391Y265429D01*
X446770Y266342D01*
X446899Y267323D01*
X446770Y268303D01*
X446391Y269217D01*
X445789Y270002D01*
X445004Y270604D01*
X444091Y270982D01*
X443489Y271061D01*
Y271458D01*
X444091Y271538D01*
X445004Y271916D01*
X445789Y272518D01*
X446391Y273303D01*
X446770Y274216D01*
X446899Y275197D01*
X446770Y276177D01*
X446391Y277091D01*
X445789Y277876D01*
X445004Y278478D01*
X444827Y278551D01*
X444827Y278945D01*
X444912Y278980D01*
X445984Y279803D01*
X446807Y280875D01*
X447325Y282124D01*
X447501Y283465D01*
X447325Y284805D01*
X446807Y286054D01*
X445984Y287126D01*
X444912Y287949D01*
X443663Y288466D01*
X442323Y288643D01*
D02*
G37*
G36*
X414764D02*
X412008D01*
X410668Y288466D01*
X409419Y287949D01*
X408346Y287126D01*
X407523Y286054D01*
X407006Y284805D01*
X406830Y283465D01*
X407006Y282124D01*
X407523Y280875D01*
X408346Y279803D01*
X409419Y278980D01*
X409504Y278945D01*
X409504Y278551D01*
X409326Y278478D01*
X408542Y277876D01*
X407940Y277091D01*
X407561Y276177D01*
X407432Y275197D01*
X407561Y274216D01*
X407940Y273303D01*
X408542Y272518D01*
X409326Y271916D01*
X410240Y271538D01*
X410842Y271458D01*
Y271061D01*
X410240Y270982D01*
X409326Y270604D01*
X408542Y270002D01*
X407940Y269217D01*
X407561Y268303D01*
X407432Y267323D01*
X407561Y266342D01*
X407940Y265429D01*
X408542Y264644D01*
X409326Y264042D01*
X410240Y263664D01*
X410735Y263598D01*
X410709Y263205D01*
X407465D01*
Y255693D01*
X408808D01*
X408941Y255299D01*
X408346Y254843D01*
X407523Y253770D01*
X407006Y252521D01*
X406830Y251181D01*
X407006Y249841D01*
X407523Y248592D01*
X408346Y247520D01*
X409419Y246697D01*
X410668Y246179D01*
X412008Y246003D01*
X414764D01*
X416104Y246179D01*
X417353Y246697D01*
X418425Y247520D01*
X419248Y248592D01*
X419766Y249841D01*
X419942Y251181D01*
X419766Y252521D01*
X419248Y253770D01*
X418425Y254843D01*
X417830Y255299D01*
X417964Y255693D01*
X419307D01*
Y263205D01*
X416062D01*
X416037Y263598D01*
X416532Y263664D01*
X417445Y264042D01*
X418230Y264644D01*
X418832Y265429D01*
X419210Y266342D01*
X419340Y267323D01*
X419210Y268303D01*
X418832Y269217D01*
X418230Y270002D01*
X417445Y270604D01*
X416532Y270982D01*
X415930Y271061D01*
Y271458D01*
X416532Y271538D01*
X417445Y271916D01*
X418230Y272518D01*
X418832Y273303D01*
X419210Y274216D01*
X419340Y275197D01*
X419210Y276177D01*
X418832Y277091D01*
X418230Y277876D01*
X417445Y278478D01*
X417268Y278551D01*
X417268Y278945D01*
X417353Y278980D01*
X418425Y279803D01*
X419248Y280875D01*
X419766Y282124D01*
X419942Y283465D01*
X419766Y284805D01*
X419248Y286054D01*
X418425Y287126D01*
X417353Y287949D01*
X416104Y288466D01*
X414764Y288643D01*
D02*
G37*
G36*
X387205D02*
X384449D01*
X383109Y288466D01*
X381860Y287949D01*
X380787Y287126D01*
X379964Y286054D01*
X379447Y284805D01*
X379271Y283465D01*
X379447Y282124D01*
X379964Y280875D01*
X380787Y279803D01*
X381860Y278980D01*
X381945Y278945D01*
X381945Y278551D01*
X381767Y278478D01*
X380983Y277876D01*
X380381Y277091D01*
X380002Y276177D01*
X379873Y275197D01*
X380002Y274216D01*
X380381Y273303D01*
X380983Y272518D01*
X381767Y271916D01*
X382681Y271538D01*
X383283Y271458D01*
Y271061D01*
X382681Y270982D01*
X381767Y270604D01*
X380983Y270002D01*
X380381Y269217D01*
X380002Y268303D01*
X379873Y267323D01*
X380002Y266342D01*
X380381Y265429D01*
X380983Y264644D01*
X381767Y264042D01*
X382681Y263664D01*
X383176Y263598D01*
X383150Y263205D01*
X379906D01*
Y255693D01*
X381249D01*
X381382Y255299D01*
X380787Y254843D01*
X379964Y253770D01*
X379447Y252521D01*
X379271Y251181D01*
X379447Y249841D01*
X379964Y248592D01*
X380787Y247520D01*
X381860Y246697D01*
X383109Y246179D01*
X384449Y246003D01*
X387205D01*
X388545Y246179D01*
X389794Y246697D01*
X390866Y247520D01*
X391689Y248592D01*
X392206Y249841D01*
X392383Y251181D01*
X392206Y252521D01*
X391689Y253770D01*
X390866Y254843D01*
X390271Y255299D01*
X390405Y255693D01*
X391748D01*
Y263205D01*
X388503D01*
X388477Y263598D01*
X388973Y263664D01*
X389886Y264042D01*
X390671Y264644D01*
X391273Y265429D01*
X391651Y266342D01*
X391780Y267323D01*
X391651Y268303D01*
X391273Y269217D01*
X390671Y270002D01*
X389886Y270604D01*
X388973Y270982D01*
X388371Y271061D01*
Y271458D01*
X388973Y271538D01*
X389886Y271916D01*
X390671Y272518D01*
X391273Y273303D01*
X391651Y274216D01*
X391780Y275197D01*
X391651Y276177D01*
X391273Y277091D01*
X390671Y277876D01*
X389886Y278478D01*
X389709Y278551D01*
X389709Y278945D01*
X389794Y278980D01*
X390866Y279803D01*
X391689Y280875D01*
X392206Y282124D01*
X392383Y283465D01*
X392206Y284805D01*
X391689Y286054D01*
X390866Y287126D01*
X389794Y287949D01*
X388545Y288466D01*
X387205Y288643D01*
D02*
G37*
G36*
X359646D02*
X356890D01*
X355550Y288466D01*
X354301Y287949D01*
X353228Y287126D01*
X352405Y286054D01*
X351888Y284805D01*
X351712Y283465D01*
X351888Y282124D01*
X352405Y280875D01*
X353228Y279803D01*
X354301Y278980D01*
X354386Y278945D01*
X354386Y278551D01*
X354208Y278478D01*
X353424Y277876D01*
X352822Y277091D01*
X352443Y276177D01*
X352314Y275197D01*
X352443Y274216D01*
X352822Y273303D01*
X353424Y272518D01*
X354208Y271916D01*
X355122Y271538D01*
X355724Y271458D01*
Y271061D01*
X355122Y270982D01*
X354208Y270604D01*
X353424Y270002D01*
X352822Y269217D01*
X352443Y268303D01*
X352314Y267323D01*
X352443Y266342D01*
X352822Y265429D01*
X353424Y264644D01*
X354208Y264042D01*
X355122Y263664D01*
X355617Y263598D01*
X355591Y263205D01*
X352346D01*
Y255693D01*
X353690D01*
X353823Y255299D01*
X353228Y254843D01*
X352405Y253770D01*
X351888Y252521D01*
X351712Y251181D01*
X351888Y249841D01*
X352405Y248592D01*
X353228Y247520D01*
X354301Y246697D01*
X355550Y246179D01*
X356890Y246003D01*
X359646D01*
X360986Y246179D01*
X362235Y246697D01*
X363307Y247520D01*
X364130Y248592D01*
X364647Y249841D01*
X364824Y251181D01*
X364647Y252521D01*
X364130Y253770D01*
X363307Y254843D01*
X362712Y255299D01*
X362846Y255693D01*
X364189D01*
Y263205D01*
X360944D01*
X360918Y263598D01*
X361414Y263664D01*
X362327Y264042D01*
X363112Y264644D01*
X363714Y265429D01*
X364092Y266342D01*
X364221Y267323D01*
X364092Y268303D01*
X363714Y269217D01*
X363112Y270002D01*
X362327Y270604D01*
X361414Y270982D01*
X360812Y271061D01*
Y271458D01*
X361414Y271538D01*
X362327Y271916D01*
X363112Y272518D01*
X363714Y273303D01*
X364092Y274216D01*
X364221Y275197D01*
X364092Y276177D01*
X363714Y277091D01*
X363112Y277876D01*
X362327Y278478D01*
X362150Y278551D01*
X362150Y278945D01*
X362235Y278980D01*
X363307Y279803D01*
X364130Y280875D01*
X364647Y282124D01*
X364824Y283465D01*
X364647Y284805D01*
X364130Y286054D01*
X363307Y287126D01*
X362235Y287949D01*
X360986Y288466D01*
X359646Y288643D01*
D02*
G37*
G36*
X138584Y234268D02*
X137794D01*
X137065Y233966D01*
X136507Y233407D01*
X136205Y232678D01*
Y231889D01*
X136507Y231159D01*
X137065Y230601D01*
X137794Y230299D01*
X138584D01*
X139313Y230601D01*
X139871Y231159D01*
X140173Y231889D01*
Y232678D01*
X139871Y233407D01*
X139313Y233966D01*
X138584Y234268D01*
D02*
G37*
G36*
X546851Y231512D02*
X546062D01*
X545333Y231210D01*
X544774Y230651D01*
X544472Y229922D01*
Y229133D01*
X544774Y228404D01*
X545333Y227845D01*
X546062Y227543D01*
X546851D01*
X547581Y227845D01*
X548139Y228404D01*
X548441Y229133D01*
Y229922D01*
X548139Y230651D01*
X547581Y231210D01*
X546851Y231512D01*
D02*
G37*
%LPD*%
D39*
X297244Y299213D02*
D03*
X473547Y363450D02*
D03*
X453547D02*
D03*
D41*
X473547Y443450D02*
D03*
X185906Y443213D02*
D03*
D42*
X555118Y228346D02*
D03*
X557087Y444882D02*
D03*
X135827Y228346D02*
D03*
X133858Y444882D02*
D03*
X556693Y414961D02*
D03*
X377953Y321654D02*
D03*
X338583Y401575D02*
D03*
X203740Y405512D02*
D03*
X214567D02*
D03*
X213779Y418898D02*
D03*
X203150D02*
D03*
X350394Y321654D02*
D03*
X363779Y414961D02*
D03*
X391339D02*
D03*
X405512Y321654D02*
D03*
X418898Y414961D02*
D03*
X433071Y321654D02*
D03*
X446457Y414961D02*
D03*
X460630Y321654D02*
D03*
X474016Y414961D02*
D03*
X488189Y321654D02*
D03*
X501575Y414961D02*
D03*
X515748Y321654D02*
D03*
X529134Y414961D02*
D03*
X543307Y321654D02*
D03*
M02*
