G04*
G04 #@! TF.GenerationSoftware,Altium Limited,Altium Designer,22.7.1 (60)*
G04*
G04 Layer_Physical_Order=1*
G04 Layer_Color=255*
%FSLAX25Y25*%
%MOIN*%
G70*
G04*
G04 #@! TF.SameCoordinates,B4DE3396-8346-461D-A6ED-AD7C64C63353*
G04*
G04*
G04 #@! TF.FilePolarity,Positive*
G04*
G01*
G75*
%ADD13C,0.01968*%
%ADD15R,0.03150X0.03740*%
%ADD16R,0.10236X0.05906*%
%ADD17R,0.04134X0.03937*%
%ADD18R,0.01968X0.03543*%
%ADD19R,0.12205X0.03937*%
%ADD33C,0.01575*%
%ADD34C,0.20000*%
%ADD35O,0.11024X0.08268*%
%ADD36O,0.09843X0.05512*%
%ADD37R,0.09843X0.05512*%
%ADD38C,0.12598*%
%ADD39C,0.06299*%
%ADD40R,0.06299X0.06299*%
%ADD41R,0.06299X0.06299*%
%ADD42C,0.01968*%
G36*
X558431Y451206D02*
X560105Y450513D01*
X561611Y449506D01*
X562892Y448225D01*
X563899Y446719D01*
X564592Y445045D01*
X564945Y443268D01*
Y442362D01*
X564945Y228110D01*
X564945Y227204D01*
X564592Y225428D01*
X563899Y223754D01*
X562892Y222247D01*
X561611Y220966D01*
X560105Y219960D01*
X558431Y219267D01*
X556654Y218913D01*
X555748Y218913D01*
X152756Y218913D01*
X135078D01*
X133301Y219266D01*
X131628Y219960D01*
X130121Y220966D01*
X128840Y222247D01*
X127834Y223754D01*
X127140Y225428D01*
X126787Y227204D01*
Y228110D01*
X126787Y442362D01*
Y443268D01*
X127140Y445045D01*
X127834Y446719D01*
X128840Y448225D01*
X130121Y449506D01*
X131628Y450513D01*
X133301Y451206D01*
X135078Y451559D01*
X135984Y451559D01*
X556654D01*
X558431Y451206D01*
D02*
G37*
%LPC*%
G36*
X520276Y450641D02*
X520276Y450641D01*
X448915D01*
X448915Y450641D01*
X448218Y450503D01*
X447626Y450107D01*
X444902Y447383D01*
X444093Y447600D01*
X443000D01*
X441945Y447317D01*
X440999Y446771D01*
X440226Y445998D01*
X439680Y445052D01*
X439397Y443997D01*
Y442904D01*
X439680Y441849D01*
X440226Y440903D01*
X440999Y440130D01*
X441945Y439584D01*
X443000Y439301D01*
X444093D01*
X445148Y439584D01*
X446095Y440130D01*
X446867Y440903D01*
X447413Y441849D01*
X447696Y442904D01*
Y443997D01*
X447479Y444806D01*
X449670Y446996D01*
X450667D01*
X450831Y446603D01*
X450226Y445998D01*
X449680Y445052D01*
X449397Y443997D01*
Y442904D01*
X449680Y441849D01*
X450226Y440903D01*
X450999Y440130D01*
X451918Y439599D01*
Y436039D01*
X450673D01*
Y434140D01*
X449959Y433844D01*
X449400Y433286D01*
X449098Y432557D01*
Y432130D01*
X448794Y431880D01*
X448491Y431941D01*
X448491Y431941D01*
X446621D01*
X446171Y432391D01*
X445579Y432786D01*
X444882Y432925D01*
X444882Y432925D01*
X443668D01*
X436279Y440314D01*
X436867Y440903D01*
X437414Y441849D01*
X437696Y442904D01*
Y443997D01*
X437414Y445052D01*
X436867Y445998D01*
X436095Y446771D01*
X435148Y447317D01*
X434093Y447600D01*
X433000D01*
X431945Y447317D01*
X430999Y446771D01*
X430226Y445998D01*
X429680Y445052D01*
X429397Y443997D01*
Y442904D01*
X429680Y441849D01*
X430226Y440903D01*
X430999Y440130D01*
X431945Y439584D01*
X432602Y439408D01*
X432695Y438940D01*
X433090Y438348D01*
X434213Y437225D01*
X434062Y436862D01*
X425952D01*
X425369Y437444D01*
Y439711D01*
X426095Y440130D01*
X426867Y440903D01*
X427414Y441849D01*
X427696Y442904D01*
Y443997D01*
X427414Y445052D01*
X426867Y445998D01*
X426095Y446771D01*
X425148Y447317D01*
X424093Y447600D01*
X423000D01*
X421945Y447317D01*
X420999Y446771D01*
X420226Y445998D01*
X419680Y445052D01*
X419397Y443997D01*
Y442904D01*
X419680Y441849D01*
X420226Y440903D01*
X420999Y440130D01*
X421724Y439711D01*
Y436690D01*
X421724Y436690D01*
X421863Y435992D01*
X422258Y435401D01*
X423908Y433751D01*
X423908Y433751D01*
X424499Y433356D01*
X424686Y433319D01*
X424648Y432925D01*
X418078D01*
X415369Y435633D01*
Y439711D01*
X416095Y440130D01*
X416867Y440903D01*
X417414Y441849D01*
X417696Y442904D01*
Y443997D01*
X417414Y445052D01*
X416867Y445998D01*
X416095Y446771D01*
X415148Y447317D01*
X414093Y447600D01*
X413000D01*
X411945Y447317D01*
X410999Y446771D01*
X410226Y445998D01*
X409680Y445052D01*
X409397Y443997D01*
Y442904D01*
X409680Y441849D01*
X410226Y440903D01*
X410999Y440130D01*
X411724Y439711D01*
Y434879D01*
X411724Y434878D01*
X411863Y434181D01*
X412258Y433590D01*
X416034Y429814D01*
X416034Y429814D01*
X416625Y429419D01*
X416812Y429382D01*
X416774Y428988D01*
X411188D01*
X405369Y434807D01*
Y439711D01*
X406095Y440130D01*
X406867Y440903D01*
X407413Y441849D01*
X407696Y442904D01*
Y443997D01*
X407413Y445052D01*
X406867Y445998D01*
X406095Y446771D01*
X405148Y447317D01*
X404093Y447600D01*
X403000D01*
X401945Y447317D01*
X400999Y446771D01*
X400226Y445998D01*
X399680Y445052D01*
X399397Y443997D01*
Y442904D01*
X399680Y441849D01*
X400226Y440903D01*
X400999Y440130D01*
X401724Y439711D01*
Y434052D01*
X401724Y434052D01*
X401863Y433354D01*
X402258Y432763D01*
X409144Y425877D01*
X409144Y425877D01*
X409736Y425482D01*
X410433Y425343D01*
X410433Y425343D01*
X430938D01*
X434925Y421356D01*
Y417898D01*
X435445D01*
X435811Y417831D01*
Y412091D01*
X435811D01*
Y411925D01*
X435811D01*
Y406185D01*
X442235D01*
X442385Y405821D01*
X442215Y405652D01*
X441913Y404922D01*
Y404133D01*
X441947Y404051D01*
X441684Y403657D01*
X438886D01*
Y400787D01*
X438386D01*
Y400287D01*
X435811D01*
Y397917D01*
X436076D01*
X436402Y397752D01*
X436402Y397524D01*
Y395480D01*
X440370D01*
Y397524D01*
X440370Y397752D01*
X440695Y397917D01*
X441194D01*
X441520Y397752D01*
Y392209D01*
X445488D01*
Y397752D01*
X445813Y397917D01*
X446079D01*
Y403657D01*
X446079D01*
X445848Y404051D01*
X445882Y404133D01*
Y404922D01*
X445580Y405652D01*
X445410Y405821D01*
X445561Y406185D01*
X446079D01*
Y406693D01*
X446472Y406856D01*
X446787Y406541D01*
Y366593D01*
X446423Y366442D01*
X446095Y366771D01*
X445148Y367317D01*
X444093Y367600D01*
X444047D01*
Y363450D01*
Y359301D01*
X444093D01*
X445148Y359584D01*
X446095Y360130D01*
X446423Y360459D01*
X446787Y360308D01*
Y337024D01*
X442767D01*
Y358956D01*
X442905Y359159D01*
X443047Y359251D01*
Y363450D01*
Y367600D01*
X443000D01*
X441945Y367317D01*
X440999Y366771D01*
X440796Y366568D01*
X440432Y366719D01*
Y369941D01*
X444793Y374302D01*
X444793Y374302D01*
X445188Y374893D01*
X445326Y375590D01*
X445326Y375591D01*
Y377445D01*
X446079D01*
Y383185D01*
X443254D01*
X442929Y383350D01*
Y388894D01*
X438961D01*
Y386554D01*
X438475Y386230D01*
X438475Y386230D01*
X437097Y384852D01*
X436702Y384260D01*
X436563Y383563D01*
X436563Y383563D01*
Y383185D01*
X435811D01*
Y377445D01*
X441681D01*
Y376345D01*
X437321Y371985D01*
X436926Y371394D01*
X436787Y370696D01*
X436787Y370696D01*
Y366593D01*
X436423Y366442D01*
X436095Y366771D01*
X435148Y367317D01*
X434093Y367600D01*
X433000D01*
X431945Y367317D01*
X430999Y366771D01*
X430670Y366442D01*
X430306Y366593D01*
Y399863D01*
X430167Y400560D01*
X429772Y401152D01*
X429772Y401152D01*
X420580Y410344D01*
X419989Y410739D01*
X419291Y410878D01*
X419291Y410878D01*
X418520D01*
Y411925D01*
X418520D01*
Y412091D01*
X418520D01*
Y412976D01*
X419292D01*
X420022Y413278D01*
X420580Y413837D01*
X420882Y414566D01*
Y415355D01*
X420580Y416085D01*
X420022Y416643D01*
X419292Y416945D01*
X418520D01*
Y417831D01*
X418886Y417898D01*
X419406D01*
Y420366D01*
X416339D01*
Y420866D01*
X415839D01*
Y423835D01*
X407366D01*
Y422689D01*
X406759D01*
X395369Y434078D01*
Y439711D01*
X396095Y440130D01*
X396867Y440903D01*
X397413Y441849D01*
X397696Y442904D01*
Y443997D01*
X397413Y445052D01*
X396867Y445998D01*
X396095Y446771D01*
X395148Y447317D01*
X394093Y447600D01*
X393000D01*
X391945Y447317D01*
X390999Y446771D01*
X390226Y445998D01*
X389680Y445052D01*
X389397Y443997D01*
Y442904D01*
X389680Y441849D01*
X390226Y440903D01*
X390999Y440130D01*
X391724Y439711D01*
Y433323D01*
X391724Y433323D01*
X391863Y432626D01*
X392258Y432035D01*
X393367Y430926D01*
X393173Y430563D01*
X393094Y430578D01*
X393094Y430578D01*
X383776D01*
X383776Y430578D01*
X383079Y430440D01*
X382487Y430045D01*
X382487Y430045D01*
X379462Y427019D01*
X376961D01*
X376811Y427383D01*
X384835Y435408D01*
X384835Y435408D01*
X385230Y435999D01*
X385369Y436696D01*
X385369Y436696D01*
Y439711D01*
X386095Y440130D01*
X386867Y440903D01*
X387414Y441849D01*
X387696Y442904D01*
Y443997D01*
X387414Y445052D01*
X386867Y445998D01*
X386095Y446771D01*
X385148Y447317D01*
X384093Y447600D01*
X383000D01*
X381945Y447317D01*
X380999Y446771D01*
X380226Y445998D01*
X379680Y445052D01*
X379397Y443997D01*
Y442904D01*
X379680Y441849D01*
X380226Y440903D01*
X380999Y440130D01*
X381724Y439711D01*
Y437451D01*
X374245Y429972D01*
X344488D01*
X344488Y429972D01*
X343791Y429833D01*
X343199Y429438D01*
X343199Y429438D01*
X328436Y414675D01*
X328041Y414083D01*
X327902Y413386D01*
X327902Y413386D01*
Y410449D01*
X326658D01*
Y404512D01*
X327177D01*
X327543Y404445D01*
Y398705D01*
X327543D01*
Y398539D01*
X327543D01*
Y392799D01*
X334414D01*
Y330918D01*
X334037Y330804D01*
X333622Y331425D01*
X332606Y332441D01*
X331410Y333240D01*
X330082Y333790D01*
X328672Y334071D01*
X327234D01*
X325824Y333790D01*
X324495Y333240D01*
X323300Y332441D01*
X322283Y331425D01*
X321484Y330229D01*
X320934Y328901D01*
X320654Y327491D01*
Y326053D01*
X320934Y324642D01*
X321484Y323314D01*
X322283Y322119D01*
X323300Y321102D01*
X324495Y320303D01*
X325824Y319753D01*
X327234Y319472D01*
X328672D01*
X330082Y319753D01*
X331410Y320303D01*
X332606Y321102D01*
X333622Y322119D01*
X334037Y322739D01*
X334414Y322625D01*
Y268093D01*
X328738Y262417D01*
X317504D01*
Y256480D01*
X331709D01*
Y260234D01*
X337525Y266050D01*
X337920Y266641D01*
X338059Y267339D01*
X338059Y267339D01*
Y393630D01*
X338059Y393630D01*
X337920Y394328D01*
X337811Y394491D01*
Y398539D01*
X337811D01*
Y398705D01*
X337811D01*
Y399392D01*
X338138Y399611D01*
X338188Y399590D01*
X338977D01*
X339707Y399893D01*
X340265Y400451D01*
X340567Y401180D01*
Y401969D01*
X340265Y402699D01*
X339707Y403257D01*
X338977Y403559D01*
X338188D01*
X338138Y403539D01*
X337811Y403757D01*
Y404445D01*
X338177Y404512D01*
X338697D01*
Y406980D01*
X335630D01*
Y407480D01*
X335130D01*
Y410449D01*
X331547D01*
Y412631D01*
X345243Y426327D01*
X355649D01*
X355799Y425963D01*
X355122Y425286D01*
X354727Y424695D01*
X354588Y423997D01*
X354259Y423835D01*
X352248D01*
Y417898D01*
X352768D01*
X353134Y417831D01*
Y412091D01*
X353134D01*
Y411925D01*
X353134D01*
Y406185D01*
X363402D01*
Y406693D01*
X363795Y406856D01*
X366787Y403864D01*
Y366593D01*
X366424Y366442D01*
X366095Y366771D01*
X365148Y367317D01*
X364093Y367600D01*
X363000D01*
X361945Y367317D01*
X360999Y366771D01*
X360484Y366256D01*
X360090Y366419D01*
Y372474D01*
X362115Y374499D01*
X362115Y374499D01*
X362510Y375090D01*
X362649Y375787D01*
Y377445D01*
X363402D01*
Y383185D01*
X360577D01*
X360252Y383350D01*
Y388894D01*
X356283D01*
Y386554D01*
X355798Y386230D01*
X355798Y386230D01*
X354420Y384852D01*
X354025Y384260D01*
X353886Y383563D01*
X353886Y383563D01*
Y383185D01*
X353134D01*
Y377445D01*
X359004D01*
Y376542D01*
X356979Y374517D01*
X356584Y373926D01*
X356445Y373228D01*
X356445Y373228D01*
Y366916D01*
X356405Y366899D01*
X356052Y366796D01*
X355148Y367317D01*
X354093Y367600D01*
X353000D01*
X351945Y367317D01*
X350999Y366771D01*
X350226Y365998D01*
X349680Y365052D01*
X349397Y363997D01*
Y362904D01*
X349680Y361849D01*
X350226Y360903D01*
X350999Y360130D01*
X351945Y359584D01*
X353000Y359301D01*
X354093D01*
X355148Y359584D01*
X356052Y360105D01*
X356405Y360001D01*
X356445Y359985D01*
Y337024D01*
X352150D01*
Y329118D01*
X364386D01*
Y337024D01*
X360090D01*
Y360482D01*
X360484Y360645D01*
X360999Y360130D01*
X361945Y359584D01*
X363000Y359301D01*
X364093D01*
X365148Y359584D01*
X366095Y360130D01*
X366424Y360459D01*
X366787Y360308D01*
Y274089D01*
X366034Y273336D01*
X366034Y273336D01*
X362879Y270180D01*
X362327Y270604D01*
X361414Y270982D01*
X360812Y271061D01*
Y271458D01*
X361414Y271538D01*
X362327Y271916D01*
X363112Y272518D01*
X363714Y273303D01*
X364092Y274216D01*
X364221Y275197D01*
X364092Y276177D01*
X363714Y277091D01*
X363112Y277876D01*
X362327Y278478D01*
X362150Y278551D01*
X362150Y278945D01*
X362235Y278980D01*
X363307Y279803D01*
X364130Y280875D01*
X364647Y282124D01*
X364824Y283465D01*
X364647Y284805D01*
X364130Y286054D01*
X363307Y287126D01*
X362235Y287949D01*
X360986Y288466D01*
X359646Y288643D01*
X356890D01*
X355550Y288466D01*
X354301Y287949D01*
X353228Y287126D01*
X352405Y286054D01*
X351888Y284805D01*
X351712Y283465D01*
X351888Y282124D01*
X352405Y280875D01*
X353228Y279803D01*
X354301Y278980D01*
X354386Y278945D01*
X354386Y278551D01*
X354208Y278478D01*
X353424Y277876D01*
X352822Y277091D01*
X352443Y276177D01*
X352314Y275197D01*
X352443Y274216D01*
X352822Y273303D01*
X353424Y272518D01*
X354208Y271916D01*
X355122Y271538D01*
X355724Y271458D01*
Y271061D01*
X355122Y270982D01*
X354208Y270604D01*
X353424Y270002D01*
X352822Y269217D01*
X352443Y268303D01*
X352314Y267323D01*
X352443Y266342D01*
X352822Y265429D01*
X353424Y264644D01*
X354208Y264042D01*
X355122Y263664D01*
X355617Y263598D01*
X355591Y263205D01*
X352346D01*
Y259949D01*
X358268D01*
X364189D01*
Y263205D01*
X360944D01*
X360918Y263598D01*
X361414Y263664D01*
X362327Y264042D01*
X363112Y264644D01*
X363714Y265429D01*
X364092Y266342D01*
X364108Y266465D01*
X364124Y266468D01*
X364716Y266863D01*
X368612Y270759D01*
X368612Y270759D01*
X369898Y272045D01*
X369898Y272045D01*
X370293Y272637D01*
X370432Y273334D01*
Y360182D01*
X370796Y360333D01*
X370999Y360130D01*
X371945Y359584D01*
X373000Y359301D01*
X374093D01*
X375148Y359584D01*
X376095Y360130D01*
X376867Y360903D01*
X377414Y361849D01*
X377696Y362904D01*
Y363997D01*
X377414Y365052D01*
X376867Y365998D01*
X376095Y366771D01*
X375369Y367190D01*
Y379221D01*
X383479Y387330D01*
X383842Y387180D01*
Y386554D01*
X383357Y386230D01*
X383357Y386230D01*
X381979Y384852D01*
X381584Y384260D01*
X381445Y383563D01*
X381445Y383563D01*
Y383185D01*
X380693D01*
Y377445D01*
X386563D01*
Y366816D01*
X386200Y366666D01*
X386095Y366771D01*
X385148Y367317D01*
X384093Y367600D01*
X383000D01*
X381945Y367317D01*
X380999Y366771D01*
X380226Y365998D01*
X379680Y365052D01*
X379397Y363997D01*
Y362904D01*
X379680Y361849D01*
X380226Y360903D01*
X380999Y360130D01*
X381945Y359584D01*
X383000Y359301D01*
X384093D01*
X385148Y359584D01*
X386095Y360130D01*
X386423Y360459D01*
X386787Y360308D01*
Y343105D01*
X384538Y340856D01*
X384143Y340264D01*
X384004Y339567D01*
X384004Y339567D01*
Y337024D01*
X379709D01*
Y329118D01*
X391945D01*
Y337024D01*
X387649D01*
Y338812D01*
X389898Y341061D01*
X389898Y341061D01*
X390293Y341652D01*
X390432Y342350D01*
X390432Y342350D01*
Y360182D01*
X390796Y360333D01*
X390999Y360130D01*
X391945Y359584D01*
X393000Y359301D01*
X394093D01*
X395148Y359584D01*
X396095Y360130D01*
X396436Y360471D01*
X396800Y360320D01*
Y276542D01*
X390438Y270180D01*
X389886Y270604D01*
X388973Y270982D01*
X388371Y271061D01*
Y271458D01*
X388973Y271538D01*
X389886Y271916D01*
X390671Y272518D01*
X391273Y273303D01*
X391651Y274216D01*
X391780Y275197D01*
X391651Y276177D01*
X391273Y277091D01*
X390671Y277876D01*
X389886Y278478D01*
X389709Y278551D01*
X389709Y278945D01*
X389794Y278980D01*
X390866Y279803D01*
X391689Y280875D01*
X392206Y282124D01*
X392383Y283465D01*
X392206Y284805D01*
X391689Y286054D01*
X390866Y287126D01*
X389794Y287949D01*
X388545Y288466D01*
X387205Y288643D01*
X384449D01*
X383109Y288466D01*
X381860Y287949D01*
X380787Y287126D01*
X379964Y286054D01*
X379447Y284805D01*
X379271Y283465D01*
X379447Y282124D01*
X379964Y280875D01*
X380787Y279803D01*
X381860Y278980D01*
X381945Y278945D01*
X381945Y278551D01*
X381767Y278478D01*
X380983Y277876D01*
X380381Y277091D01*
X380002Y276177D01*
X379873Y275197D01*
X380002Y274216D01*
X380381Y273303D01*
X380983Y272518D01*
X381767Y271916D01*
X382681Y271538D01*
X383283Y271458D01*
Y271061D01*
X382681Y270982D01*
X381767Y270604D01*
X380983Y270002D01*
X380381Y269217D01*
X380002Y268303D01*
X379873Y267323D01*
X380002Y266342D01*
X380381Y265429D01*
X380983Y264644D01*
X381767Y264042D01*
X382681Y263664D01*
X383176Y263598D01*
X383150Y263205D01*
X379906D01*
Y259949D01*
X385827D01*
X391748D01*
Y263205D01*
X388503D01*
X388477Y263598D01*
X388973Y263664D01*
X389886Y264042D01*
X390671Y264644D01*
X391273Y265429D01*
X391651Y266342D01*
X391668Y266465D01*
X391684Y266468D01*
X392275Y266863D01*
X399911Y274499D01*
X399911Y274499D01*
X400306Y275090D01*
X400445Y275787D01*
X400445Y275787D01*
Y360170D01*
X400808Y360320D01*
X400999Y360130D01*
X401945Y359584D01*
X403000Y359301D01*
X404093D01*
X405148Y359584D01*
X406095Y360130D01*
X406867Y360903D01*
X407413Y361849D01*
X407696Y362904D01*
Y363997D01*
X407413Y365052D01*
X406867Y365998D01*
X406095Y366771D01*
X405148Y367317D01*
X404093Y367600D01*
X403000D01*
X401945Y367317D01*
X400999Y366771D01*
X400796Y366568D01*
X400432Y366719D01*
Y376482D01*
X400826Y376520D01*
X400875Y376271D01*
X401270Y375680D01*
X410589Y366361D01*
X410226Y365998D01*
X409680Y365052D01*
X409397Y363997D01*
Y362904D01*
X409680Y361849D01*
X410226Y360903D01*
X410999Y360130D01*
X411945Y359584D01*
X413000Y359301D01*
X414093D01*
X415148Y359584D01*
X416095Y360130D01*
X416424Y360459D01*
X416787Y360308D01*
Y348498D01*
X412097Y343808D01*
X411702Y343217D01*
X411563Y342520D01*
X411563Y342520D01*
Y337024D01*
X407268D01*
Y329118D01*
X419504D01*
Y337024D01*
X415208D01*
Y341765D01*
X419898Y346455D01*
X419898Y346455D01*
X420293Y347046D01*
X420432Y347744D01*
X420432Y347744D01*
Y360182D01*
X420796Y360333D01*
X420999Y360130D01*
X421945Y359584D01*
X423000Y359301D01*
X424093D01*
X425148Y359584D01*
X426095Y360130D01*
X426298Y360333D01*
X426661Y360182D01*
Y278845D01*
X417997Y270180D01*
X417445Y270604D01*
X416532Y270982D01*
X415930Y271061D01*
Y271458D01*
X416532Y271538D01*
X417445Y271916D01*
X418230Y272518D01*
X418832Y273303D01*
X419210Y274216D01*
X419340Y275197D01*
X419210Y276177D01*
X418832Y277091D01*
X418230Y277876D01*
X417445Y278478D01*
X417268Y278551D01*
X417268Y278945D01*
X417353Y278980D01*
X418425Y279803D01*
X419248Y280875D01*
X419766Y282124D01*
X419942Y283465D01*
X419766Y284805D01*
X419248Y286054D01*
X418425Y287126D01*
X417353Y287949D01*
X416104Y288466D01*
X414764Y288643D01*
X412008D01*
X410668Y288466D01*
X409419Y287949D01*
X408346Y287126D01*
X407523Y286054D01*
X407006Y284805D01*
X406830Y283465D01*
X407006Y282124D01*
X407523Y280875D01*
X408346Y279803D01*
X409419Y278980D01*
X409504Y278945D01*
X409504Y278551D01*
X409326Y278478D01*
X408542Y277876D01*
X407940Y277091D01*
X407561Y276177D01*
X407432Y275197D01*
X407561Y274216D01*
X407940Y273303D01*
X408542Y272518D01*
X409326Y271916D01*
X410240Y271538D01*
X410842Y271458D01*
Y271061D01*
X410240Y270982D01*
X409326Y270604D01*
X408542Y270002D01*
X407940Y269217D01*
X407561Y268303D01*
X407432Y267323D01*
X407561Y266342D01*
X407940Y265429D01*
X408542Y264644D01*
X409326Y264042D01*
X410240Y263664D01*
X410735Y263598D01*
X410709Y263205D01*
X407465D01*
Y259949D01*
X413386D01*
X419307D01*
Y263205D01*
X416062D01*
X416037Y263598D01*
X416532Y263664D01*
X417445Y264042D01*
X418230Y264644D01*
X418832Y265429D01*
X419210Y266342D01*
X419227Y266465D01*
X419243Y266468D01*
X419834Y266863D01*
X429772Y276801D01*
X429772Y276801D01*
X430167Y277393D01*
X430306Y278090D01*
X430306Y278090D01*
Y360308D01*
X430670Y360459D01*
X430999Y360130D01*
X431945Y359584D01*
X433000Y359301D01*
X434093D01*
X435148Y359584D01*
X436095Y360130D01*
X436562Y360598D01*
X436592Y360607D01*
X437047Y360526D01*
X437321Y360117D01*
X439122Y358315D01*
Y337024D01*
X434827D01*
Y329118D01*
X446787D01*
Y325213D01*
X434827D01*
Y323476D01*
X433856D01*
X433466Y323638D01*
X432676D01*
X431947Y323336D01*
X431389Y322778D01*
X431087Y322048D01*
Y321259D01*
X431389Y320530D01*
X431947Y319971D01*
X432676Y319669D01*
X433466D01*
X433856Y319831D01*
X434827D01*
Y317307D01*
X446787D01*
Y286692D01*
X446414Y286566D01*
X445984Y287126D01*
X444912Y287949D01*
X443663Y288466D01*
X442323Y288643D01*
X439567D01*
X438227Y288466D01*
X436978Y287949D01*
X435905Y287126D01*
X435082Y286054D01*
X434565Y284805D01*
X434389Y283465D01*
X434565Y282124D01*
X435082Y280875D01*
X435905Y279803D01*
X436978Y278980D01*
X437063Y278945D01*
X437063Y278551D01*
X436885Y278478D01*
X436101Y277876D01*
X435499Y277091D01*
X435120Y276177D01*
X434991Y275197D01*
X435120Y274216D01*
X435499Y273303D01*
X436101Y272518D01*
X436885Y271916D01*
X437799Y271538D01*
X438401Y271458D01*
Y271061D01*
X437799Y270982D01*
X436885Y270604D01*
X436101Y270002D01*
X435499Y269217D01*
X435120Y268303D01*
X434991Y267323D01*
X435120Y266342D01*
X435499Y265429D01*
X436101Y264644D01*
X436885Y264042D01*
X437799Y263664D01*
X438294Y263598D01*
X438268Y263205D01*
X435024D01*
Y259949D01*
X440945D01*
X446866D01*
Y263205D01*
X443621D01*
X443596Y263598D01*
X444091Y263664D01*
X445004Y264042D01*
X445789Y264644D01*
X446391Y265429D01*
X446770Y266342D01*
X446786Y266465D01*
X446802Y266468D01*
X447393Y266863D01*
X449898Y269368D01*
X449898Y269368D01*
X450293Y269959D01*
X450432Y270657D01*
X450432Y270657D01*
Y360182D01*
X450796Y360333D01*
X450999Y360130D01*
X451945Y359584D01*
X453000Y359301D01*
X454093D01*
X455148Y359584D01*
X456095Y360130D01*
X456867Y360903D01*
X457413Y361849D01*
X457696Y362904D01*
Y363997D01*
X457413Y365052D01*
X456867Y365998D01*
X456095Y366771D01*
X455148Y367317D01*
X454093Y367600D01*
X453000D01*
X451945Y367317D01*
X450999Y366771D01*
X450796Y366568D01*
X450432Y366719D01*
Y407296D01*
X450432Y407296D01*
X450293Y407993D01*
X449898Y408584D01*
X449898Y408584D01*
X448139Y410344D01*
X447548Y410739D01*
X446850Y410878D01*
X446850Y410878D01*
X446079D01*
Y411925D01*
X446079D01*
Y412091D01*
X446079D01*
Y412976D01*
X446851D01*
X447581Y413278D01*
X448139Y413837D01*
X448441Y414566D01*
Y415355D01*
X448139Y416085D01*
X447581Y416643D01*
X446851Y416945D01*
X446079D01*
Y417831D01*
X446445Y417898D01*
X446965D01*
Y420366D01*
X443898D01*
Y421366D01*
X446965D01*
Y422181D01*
X447162Y422343D01*
X447162Y422343D01*
X448045D01*
X450810Y419578D01*
X450810Y419578D01*
X451402Y419182D01*
X452099Y419044D01*
X452099Y419044D01*
X462484D01*
Y417898D01*
X463004D01*
X463370Y417831D01*
Y412091D01*
X463370D01*
Y411925D01*
X463370D01*
Y406185D01*
X473638D01*
Y406693D01*
X474031Y406856D01*
X477508Y403379D01*
Y365675D01*
X477115Y365570D01*
X476867Y365998D01*
X476095Y366771D01*
X475148Y367317D01*
X474093Y367600D01*
X473000D01*
X471945Y367317D01*
X470999Y366771D01*
X470690Y366462D01*
X470326Y366613D01*
Y372474D01*
X472352Y374499D01*
X472352Y374499D01*
X472747Y375090D01*
X472885Y375787D01*
Y377445D01*
X473638D01*
Y383185D01*
X470813D01*
X470488Y383350D01*
Y388894D01*
X469741D01*
X469591Y389257D01*
X472155Y391822D01*
X472155Y391822D01*
X472413Y392209D01*
X473047D01*
Y397752D01*
X473373Y397917D01*
X473638D01*
Y403657D01*
X466445D01*
Y400787D01*
X465945D01*
Y400287D01*
X463370D01*
Y397917D01*
X463635D01*
X463961Y397752D01*
Y395480D01*
X465945D01*
Y394980D01*
X466445D01*
Y392209D01*
X466873D01*
X467024Y391845D01*
X466765Y391586D01*
X454526D01*
X454135Y391748D01*
X453345D01*
X452616Y391446D01*
X452058Y390888D01*
X451756Y390159D01*
Y389369D01*
X452058Y388640D01*
X452616Y388082D01*
X453345Y387779D01*
X454135D01*
X454526Y387941D01*
X466520D01*
Y386554D01*
X466034Y386230D01*
X466034Y386230D01*
X464656Y384852D01*
X464261Y384260D01*
X464122Y383563D01*
X464122Y383563D01*
Y383185D01*
X463370D01*
Y377445D01*
X469241D01*
Y376542D01*
X467215Y374517D01*
X466820Y373926D01*
X466681Y373228D01*
X466681Y373228D01*
Y366698D01*
X466318Y366548D01*
X466095Y366771D01*
X465148Y367317D01*
X464093Y367600D01*
X463000D01*
X461945Y367317D01*
X460999Y366771D01*
X460226Y365998D01*
X459680Y365052D01*
X459397Y363997D01*
Y362904D01*
X459680Y361849D01*
X460226Y360903D01*
X460999Y360130D01*
X461945Y359584D01*
X463000Y359301D01*
X464093D01*
X465148Y359584D01*
X466095Y360130D01*
X466318Y360353D01*
X466681Y360202D01*
Y337024D01*
X462386D01*
Y329118D01*
X474622D01*
Y337024D01*
X470326D01*
Y360288D01*
X470690Y360438D01*
X470999Y360130D01*
X471945Y359584D01*
X473000Y359301D01*
X474093D01*
X475148Y359584D01*
X476095Y360130D01*
X476867Y360903D01*
X477115Y361331D01*
X477508Y361226D01*
Y274574D01*
X473115Y270180D01*
X472564Y270604D01*
X471650Y270982D01*
X471048Y271061D01*
Y271458D01*
X471650Y271538D01*
X472564Y271916D01*
X473348Y272518D01*
X473950Y273303D01*
X474329Y274216D01*
X474458Y275197D01*
X474329Y276177D01*
X473950Y277091D01*
X473348Y277876D01*
X472564Y278478D01*
X472386Y278551D01*
X472386Y278945D01*
X472471Y278980D01*
X473543Y279803D01*
X474366Y280875D01*
X474884Y282124D01*
X475060Y283465D01*
X474884Y284805D01*
X474366Y286054D01*
X473543Y287126D01*
X472471Y287949D01*
X471222Y288466D01*
X469882Y288643D01*
X467126D01*
X465786Y288466D01*
X464537Y287949D01*
X463464Y287126D01*
X462642Y286054D01*
X462124Y284805D01*
X461948Y283465D01*
X462124Y282124D01*
X462642Y280875D01*
X463464Y279803D01*
X464537Y278980D01*
X464622Y278945D01*
X464622Y278551D01*
X464444Y278478D01*
X463660Y277876D01*
X463058Y277091D01*
X462679Y276177D01*
X462550Y275197D01*
X462679Y274216D01*
X463058Y273303D01*
X463660Y272518D01*
X464444Y271916D01*
X465358Y271538D01*
X465960Y271458D01*
Y271061D01*
X465358Y270982D01*
X464444Y270604D01*
X463660Y270002D01*
X463058Y269217D01*
X462679Y268303D01*
X462550Y267323D01*
X462679Y266342D01*
X463058Y265429D01*
X463660Y264644D01*
X464444Y264042D01*
X465358Y263664D01*
X465853Y263598D01*
X465828Y263205D01*
X462583D01*
Y259949D01*
X468504D01*
X474425D01*
Y263205D01*
X471180D01*
X471155Y263598D01*
X471650Y263664D01*
X472564Y264042D01*
X473348Y264644D01*
X473950Y265429D01*
X474329Y266342D01*
X474345Y266465D01*
X474361Y266468D01*
X474952Y266863D01*
X480619Y272530D01*
X480619Y272530D01*
X481014Y273122D01*
X481153Y273819D01*
Y404134D01*
X481153Y404134D01*
X481014Y404831D01*
X480619Y405422D01*
X480619Y405422D01*
X475698Y410344D01*
X475107Y410739D01*
X474409Y410878D01*
X474409Y410878D01*
X473638D01*
Y411925D01*
X473638D01*
Y412091D01*
X473638D01*
Y412976D01*
X474410D01*
X475140Y413278D01*
X475698Y413837D01*
X476000Y414566D01*
Y415355D01*
X475698Y416085D01*
X475140Y416643D01*
X474410Y416945D01*
X473638D01*
Y417831D01*
X474004Y417898D01*
X474524D01*
Y420366D01*
X471457D01*
Y420866D01*
X470957D01*
Y423835D01*
X462484D01*
Y422689D01*
X452854D01*
X450988Y424554D01*
X451139Y424918D01*
X486481D01*
X490043Y421356D01*
Y417898D01*
X490563D01*
X490929Y417831D01*
Y412091D01*
X490929D01*
Y411925D01*
X490929D01*
Y406185D01*
X497353D01*
X497503Y405821D01*
X497334Y405652D01*
X497031Y404922D01*
Y404133D01*
X497065Y404051D01*
X496802Y403657D01*
X494004D01*
Y400787D01*
X493504D01*
Y400287D01*
X490929D01*
Y397917D01*
X491194D01*
X491520Y397752D01*
X491520Y397524D01*
Y395480D01*
X495488D01*
Y397524D01*
X495488Y397752D01*
X495813Y397917D01*
X496313D01*
X496638Y397752D01*
Y392209D01*
X500606D01*
Y397752D01*
X500932Y397917D01*
X501197D01*
Y403657D01*
X501197D01*
X500966Y404051D01*
X501000Y404133D01*
Y404922D01*
X500698Y405652D01*
X500528Y405821D01*
X500679Y406185D01*
X501197D01*
Y406693D01*
X501590Y406856D01*
X503296Y405151D01*
Y272802D01*
X500674Y270180D01*
X500122Y270604D01*
X499209Y270982D01*
X498607Y271061D01*
Y271458D01*
X499209Y271538D01*
X500122Y271916D01*
X500907Y272518D01*
X501509Y273303D01*
X501888Y274216D01*
X502017Y275197D01*
X501888Y276177D01*
X501509Y277091D01*
X500907Y277876D01*
X500122Y278478D01*
X499945Y278551D01*
X499945Y278945D01*
X500030Y278980D01*
X501102Y279803D01*
X501925Y280875D01*
X502443Y282124D01*
X502619Y283465D01*
X502443Y284805D01*
X501925Y286054D01*
X501102Y287126D01*
X500030Y287949D01*
X498781Y288466D01*
X497441Y288643D01*
X494685D01*
X493345Y288466D01*
X492096Y287949D01*
X491023Y287126D01*
X490201Y286054D01*
X489683Y284805D01*
X489507Y283465D01*
X489683Y282124D01*
X490201Y280875D01*
X491023Y279803D01*
X492096Y278980D01*
X492181Y278945D01*
X492181Y278551D01*
X492003Y278478D01*
X491219Y277876D01*
X490617Y277091D01*
X490238Y276177D01*
X490109Y275197D01*
X490238Y274216D01*
X490617Y273303D01*
X491219Y272518D01*
X492003Y271916D01*
X492917Y271538D01*
X493519Y271458D01*
Y271061D01*
X492917Y270982D01*
X492003Y270604D01*
X491219Y270002D01*
X490617Y269217D01*
X490238Y268303D01*
X490109Y267323D01*
X490238Y266342D01*
X490617Y265429D01*
X491219Y264644D01*
X492003Y264042D01*
X492917Y263664D01*
X493412Y263598D01*
X493387Y263205D01*
X490142D01*
Y259949D01*
X496063D01*
X501984D01*
Y263205D01*
X498739D01*
X498714Y263598D01*
X499209Y263664D01*
X500122Y264042D01*
X500907Y264644D01*
X501509Y265429D01*
X501888Y266342D01*
X501904Y266465D01*
X501920Y266468D01*
X502511Y266863D01*
X506407Y270759D01*
X506407Y270759D01*
X506802Y271350D01*
X506941Y272047D01*
X506941Y272047D01*
Y405905D01*
X506941Y405905D01*
X506802Y406603D01*
X506407Y407194D01*
X506407Y407194D01*
X503257Y410344D01*
X502666Y410739D01*
X501968Y410878D01*
X501968Y410878D01*
X501197D01*
Y411925D01*
X501197D01*
Y412091D01*
X501197D01*
Y412976D01*
X501969D01*
X502699Y413278D01*
X503257Y413837D01*
X503559Y414566D01*
Y415355D01*
X503257Y416085D01*
X502699Y416643D01*
X501969Y416945D01*
X501197D01*
Y417831D01*
X501563Y417898D01*
X502083D01*
Y420366D01*
X499016D01*
Y420866D01*
X498516D01*
Y423835D01*
X492719D01*
X489425Y427129D01*
X489576Y427493D01*
X511466D01*
X517602Y421356D01*
Y417898D01*
X518122D01*
X518488Y417831D01*
Y412091D01*
X518488D01*
Y411925D01*
X518488D01*
Y406185D01*
X524912D01*
X525062Y405821D01*
X524893Y405652D01*
X524590Y404922D01*
Y404133D01*
X524624Y404051D01*
X524361Y403657D01*
X521563D01*
Y400787D01*
X521063D01*
Y400287D01*
X518488D01*
Y397917D01*
X518753D01*
X519079Y397752D01*
X519079Y397524D01*
Y395480D01*
X523047D01*
Y397524D01*
X523047Y397752D01*
X523373Y397917D01*
X523872D01*
X524197Y397752D01*
Y392209D01*
X528165D01*
Y397752D01*
X528491Y397917D01*
X528756D01*
Y403657D01*
X528756D01*
X528525Y404051D01*
X528559Y404133D01*
Y404922D01*
X528257Y405652D01*
X528087Y405821D01*
X528238Y406185D01*
X528756D01*
Y406693D01*
X529150Y406856D01*
X530855Y405151D01*
Y272802D01*
X528233Y270180D01*
X527682Y270604D01*
X526768Y270982D01*
X526166Y271061D01*
Y271458D01*
X526768Y271538D01*
X527682Y271916D01*
X528466Y272518D01*
X529068Y273303D01*
X529447Y274216D01*
X529576Y275197D01*
X529447Y276177D01*
X529068Y277091D01*
X528466Y277876D01*
X527682Y278478D01*
X527504Y278551D01*
X527504Y278945D01*
X527589Y278980D01*
X528661Y279803D01*
X529484Y280875D01*
X530002Y282124D01*
X530178Y283465D01*
X530002Y284805D01*
X529484Y286054D01*
X528661Y287126D01*
X527589Y287949D01*
X526340Y288466D01*
X525000Y288643D01*
X522244D01*
X520904Y288466D01*
X519655Y287949D01*
X518583Y287126D01*
X517760Y286054D01*
X517242Y284805D01*
X517066Y283465D01*
X517242Y282124D01*
X517760Y280875D01*
X518583Y279803D01*
X519655Y278980D01*
X519740Y278945D01*
X519740Y278551D01*
X519562Y278478D01*
X518778Y277876D01*
X518176Y277091D01*
X517798Y276177D01*
X517668Y275197D01*
X517798Y274216D01*
X518176Y273303D01*
X518778Y272518D01*
X519562Y271916D01*
X520476Y271538D01*
X521078Y271458D01*
Y271061D01*
X520476Y270982D01*
X519562Y270604D01*
X518778Y270002D01*
X518176Y269217D01*
X517798Y268303D01*
X517668Y267323D01*
X517798Y266342D01*
X518176Y265429D01*
X518778Y264644D01*
X519562Y264042D01*
X520476Y263664D01*
X520971Y263598D01*
X520946Y263205D01*
X517701D01*
Y259949D01*
X523622D01*
X529543D01*
Y263205D01*
X526299D01*
X526273Y263598D01*
X526768Y263664D01*
X527682Y264042D01*
X528466Y264644D01*
X529068Y265429D01*
X529447Y266342D01*
X529463Y266465D01*
X529479Y266468D01*
X530070Y266863D01*
X533966Y270759D01*
X533966Y270759D01*
X534361Y271350D01*
X534500Y272047D01*
X534500Y272047D01*
Y405905D01*
X534500Y405905D01*
X534361Y406603D01*
X533966Y407194D01*
X533966Y407194D01*
X530816Y410344D01*
X530225Y410739D01*
X529528Y410878D01*
X529528Y410878D01*
X528756D01*
Y411925D01*
X528756D01*
Y412091D01*
X528756D01*
Y412976D01*
X529529D01*
X530258Y413278D01*
X530816Y413837D01*
X531118Y414566D01*
Y415355D01*
X530816Y416085D01*
X530258Y416643D01*
X529529Y416945D01*
X528756D01*
Y417831D01*
X529122Y417898D01*
X529642D01*
Y420366D01*
X526575D01*
Y420866D01*
X526075D01*
Y423835D01*
X520278D01*
X513509Y430604D01*
X512918Y430999D01*
X512220Y431137D01*
X512220Y431137D01*
X462713D01*
Y432571D01*
X459646D01*
Y433071D01*
X459146D01*
Y436039D01*
X455563D01*
Y439823D01*
X456095Y440130D01*
X456867Y440903D01*
X457413Y441849D01*
X457696Y442904D01*
Y443997D01*
X457413Y445052D01*
X456867Y445998D01*
X456263Y446603D01*
X456426Y446996D01*
X460668D01*
X460831Y446603D01*
X460226Y445998D01*
X459680Y445052D01*
X459397Y443997D01*
Y442904D01*
X459680Y441849D01*
X460226Y440903D01*
X460999Y440130D01*
X461945Y439584D01*
X463000Y439301D01*
X464093D01*
X465148Y439584D01*
X466095Y440130D01*
X466867Y440903D01*
X467414Y441849D01*
X467696Y442904D01*
Y443997D01*
X467414Y445052D01*
X466867Y445998D01*
X466263Y446603D01*
X466426Y446996D01*
X469397D01*
Y439301D01*
X477696D01*
Y446996D01*
X519521D01*
X545161Y421356D01*
Y417898D01*
X545681D01*
X546047Y417831D01*
Y412091D01*
X546047D01*
Y411925D01*
X546047D01*
Y406185D01*
X552471D01*
X552622Y405821D01*
X552452Y405652D01*
X552150Y404922D01*
Y404133D01*
X552183Y404051D01*
X551920Y403657D01*
X549122D01*
Y400787D01*
X548622D01*
Y400287D01*
X546047D01*
Y397917D01*
X546313D01*
X546638Y397752D01*
X546638Y397524D01*
Y395480D01*
X550606D01*
Y397524D01*
X550606Y397752D01*
X550932Y397917D01*
X551431D01*
X551756Y397752D01*
Y392209D01*
X555724D01*
Y397752D01*
X556050Y397917D01*
X556315D01*
Y403657D01*
X556315D01*
X556084Y404051D01*
X556118Y404133D01*
Y404922D01*
X555816Y405652D01*
X555646Y405821D01*
X555797Y406185D01*
X556315D01*
Y406693D01*
X556709Y406856D01*
X558414Y405151D01*
Y272802D01*
X555792Y270180D01*
X555241Y270604D01*
X554327Y270982D01*
X553725Y271061D01*
Y271458D01*
X554327Y271538D01*
X555241Y271916D01*
X556025Y272518D01*
X556627Y273303D01*
X557006Y274216D01*
X557135Y275197D01*
X557006Y276177D01*
X556627Y277091D01*
X556025Y277876D01*
X555241Y278478D01*
X555063Y278551D01*
X555063Y278945D01*
X555148Y278980D01*
X556221Y279803D01*
X557044Y280875D01*
X557561Y282124D01*
X557737Y283465D01*
X557561Y284805D01*
X557044Y286054D01*
X556221Y287126D01*
X555148Y287949D01*
X553899Y288466D01*
X552559Y288643D01*
X549803D01*
X548463Y288466D01*
X547214Y287949D01*
X546142Y287126D01*
X545319Y286054D01*
X544801Y284805D01*
X544625Y283465D01*
X544801Y282124D01*
X545319Y280875D01*
X546142Y279803D01*
X547214Y278980D01*
X547299Y278945D01*
X547299Y278551D01*
X547122Y278478D01*
X546337Y277876D01*
X545735Y277091D01*
X545357Y276177D01*
X545227Y275197D01*
X545357Y274216D01*
X545735Y273303D01*
X546337Y272518D01*
X547122Y271916D01*
X548035Y271538D01*
X548637Y271458D01*
Y271061D01*
X548035Y270982D01*
X547122Y270604D01*
X546337Y270002D01*
X545735Y269217D01*
X545357Y268303D01*
X545227Y267323D01*
X545357Y266342D01*
X545735Y265429D01*
X546337Y264644D01*
X547122Y264042D01*
X548035Y263664D01*
X548530Y263598D01*
X548505Y263205D01*
X545260D01*
Y259949D01*
X551181D01*
X557102D01*
Y263205D01*
X553858D01*
X553832Y263598D01*
X554327Y263664D01*
X555241Y264042D01*
X556025Y264644D01*
X556627Y265429D01*
X557006Y266342D01*
X557022Y266465D01*
X557038Y266468D01*
X557629Y266863D01*
X561525Y270759D01*
X561525Y270759D01*
X561920Y271350D01*
X562059Y272047D01*
X562059Y272047D01*
Y405905D01*
X562059Y405905D01*
X561920Y406603D01*
X561525Y407194D01*
X561525Y407194D01*
X558375Y410344D01*
X557784Y410739D01*
X557087Y410878D01*
X557087Y410878D01*
X556315D01*
Y411925D01*
X556315D01*
Y412091D01*
X556315D01*
Y412976D01*
X557088D01*
X557817Y413278D01*
X558375Y413837D01*
X558677Y414566D01*
Y415355D01*
X558375Y416085D01*
X557817Y416643D01*
X557088Y416945D01*
X556315D01*
Y417831D01*
X556681Y417898D01*
X557201D01*
Y420366D01*
X554134D01*
Y420866D01*
X553634D01*
Y423835D01*
X547837D01*
X521564Y450107D01*
X520973Y450503D01*
X520276Y450641D01*
D02*
G37*
G36*
X196452Y447362D02*
X196405D01*
Y443713D01*
X200055D01*
Y443759D01*
X199772Y444814D01*
X199226Y445760D01*
X198453Y446533D01*
X197507Y447079D01*
X196452Y447362D01*
D02*
G37*
G36*
X195405D02*
X195359D01*
X194304Y447079D01*
X193358Y446533D01*
X192585Y445760D01*
X192039Y444814D01*
X191756Y443759D01*
Y443713D01*
X195405D01*
Y447362D01*
D02*
G37*
G36*
X364093Y447600D02*
X363000D01*
X361945Y447317D01*
X360999Y446771D01*
X360226Y445998D01*
X359680Y445052D01*
X359397Y443997D01*
Y442904D01*
X359680Y441849D01*
X360226Y440903D01*
X360999Y440130D01*
X361945Y439584D01*
X363000Y439301D01*
X364093D01*
X365148Y439584D01*
X366095Y440130D01*
X366867Y440903D01*
X367413Y441849D01*
X367696Y442904D01*
Y443997D01*
X367413Y445052D01*
X366867Y445998D01*
X366095Y446771D01*
X365148Y447317D01*
X364093Y447600D01*
D02*
G37*
G36*
X354093D02*
X353000D01*
X351945Y447317D01*
X350999Y446771D01*
X350226Y445998D01*
X349680Y445052D01*
X349397Y443997D01*
Y442904D01*
X349680Y441849D01*
X350226Y440903D01*
X350999Y440130D01*
X351945Y439584D01*
X353000Y439301D01*
X354093D01*
X355148Y439584D01*
X356095Y440130D01*
X356867Y440903D01*
X357414Y441849D01*
X357696Y442904D01*
Y443997D01*
X357414Y445052D01*
X356867Y445998D01*
X356095Y446771D01*
X355148Y447317D01*
X354093Y447600D01*
D02*
G37*
G36*
X344093D02*
X343000D01*
X341945Y447317D01*
X340999Y446771D01*
X340226Y445998D01*
X339680Y445052D01*
X339397Y443997D01*
Y442904D01*
X339680Y441849D01*
X340226Y440903D01*
X340999Y440130D01*
X341945Y439584D01*
X343000Y439301D01*
X344093D01*
X345148Y439584D01*
X346095Y440130D01*
X346867Y440903D01*
X347413Y441849D01*
X347696Y442904D01*
Y443997D01*
X347413Y445052D01*
X346867Y445998D01*
X346095Y446771D01*
X345148Y447317D01*
X344093Y447600D01*
D02*
G37*
G36*
X200055Y442713D02*
X196405D01*
Y439063D01*
X196452D01*
X197507Y439346D01*
X198453Y439892D01*
X199226Y440665D01*
X199772Y441611D01*
X200055Y442666D01*
Y442713D01*
D02*
G37*
G36*
X195405D02*
X191756D01*
Y442666D01*
X192039Y441611D01*
X192585Y440665D01*
X193358Y439892D01*
X194304Y439346D01*
X195359Y439063D01*
X195405D01*
Y442713D01*
D02*
G37*
G36*
X190055Y447362D02*
X181756D01*
Y439063D01*
X190055D01*
Y447362D01*
D02*
G37*
G36*
X374093Y447600D02*
X373000D01*
X371945Y447317D01*
X370999Y446771D01*
X370226Y445998D01*
X369680Y445052D01*
X369397Y443997D01*
Y442904D01*
X369680Y441849D01*
X370226Y440903D01*
X370999Y440130D01*
X371724Y439711D01*
Y436309D01*
X370308Y434893D01*
X338583D01*
X338583Y434893D01*
X337885Y434755D01*
X337294Y434360D01*
X306332Y403397D01*
X305331D01*
Y405724D01*
X297031D01*
Y397425D01*
X305331D01*
Y399752D01*
X307087D01*
X307087Y399752D01*
X307784Y399891D01*
X308375Y400286D01*
X339338Y431248D01*
X371063D01*
X371063Y431248D01*
X371760Y431387D01*
X372352Y431782D01*
X374835Y434266D01*
X374835Y434266D01*
X375230Y434857D01*
X375369Y435555D01*
X375369Y435555D01*
Y439711D01*
X376095Y440130D01*
X376867Y440903D01*
X377414Y441849D01*
X377696Y442904D01*
Y443997D01*
X377414Y445052D01*
X376867Y445998D01*
X376095Y446771D01*
X375148Y447317D01*
X374093Y447600D01*
D02*
G37*
G36*
X462713Y436039D02*
X460146D01*
Y433571D01*
X462713D01*
Y436039D01*
D02*
G37*
G36*
X474524Y423835D02*
X471957D01*
Y421366D01*
X474524D01*
Y423835D01*
D02*
G37*
G36*
X502083D02*
X499516D01*
Y421366D01*
X502083D01*
Y423835D01*
D02*
G37*
G36*
X419406D02*
X416839D01*
Y421366D01*
X419406D01*
Y423835D01*
D02*
G37*
G36*
X529642D02*
X527075D01*
Y421366D01*
X529642D01*
Y423835D01*
D02*
G37*
G36*
X557201D02*
X554634D01*
Y421366D01*
X557201D01*
Y423835D01*
D02*
G37*
G36*
X216452Y447362D02*
X215359D01*
X214304Y447079D01*
X213358Y446533D01*
X212585Y445760D01*
X212039Y444814D01*
X211756Y443759D01*
Y442666D01*
X212039Y441611D01*
X212585Y440665D01*
X213358Y439892D01*
X214304Y439346D01*
X214713Y439236D01*
Y426886D01*
X214551D01*
Y421343D01*
X218520D01*
Y426886D01*
X218358D01*
Y439837D01*
X218453Y439892D01*
X219226Y440665D01*
X219772Y441611D01*
X220055Y442666D01*
Y443759D01*
X219772Y444814D01*
X219226Y445760D01*
X218453Y446533D01*
X217507Y447079D01*
X216452Y447362D01*
D02*
G37*
G36*
X206452D02*
X205359D01*
X204304Y447079D01*
X203358Y446533D01*
X202585Y445760D01*
X202039Y444814D01*
X201756Y443759D01*
Y442666D01*
X202039Y441611D01*
X202585Y440665D01*
X203358Y439892D01*
X204083Y439473D01*
Y426886D01*
X203921D01*
Y421343D01*
X207890D01*
Y426886D01*
X207728D01*
Y439473D01*
X208453Y439892D01*
X209226Y440665D01*
X209772Y441611D01*
X210055Y442666D01*
Y443759D01*
X209772Y444814D01*
X209226Y445760D01*
X208453Y446533D01*
X207507Y447079D01*
X206452Y447362D01*
D02*
G37*
G36*
X214174Y420882D02*
X213385D01*
X212655Y420580D01*
X212097Y420022D01*
X211795Y419292D01*
Y418503D01*
X211957Y418112D01*
Y416817D01*
X211957Y416817D01*
X211992Y416641D01*
Y412484D01*
X215961D01*
Y418028D01*
X215961D01*
X215730Y418421D01*
X215764Y418503D01*
Y419292D01*
X215462Y420022D01*
X214903Y420580D01*
X214174Y420882D01*
D02*
G37*
G36*
X203544D02*
X202755D01*
X202026Y420580D01*
X201467Y420022D01*
X201165Y419292D01*
Y418503D01*
X201362Y418028D01*
X201362Y418028D01*
X201362D01*
Y412484D01*
X205331D01*
Y418028D01*
X205169D01*
Y418701D01*
X205134Y418877D01*
Y419292D01*
X204832Y420022D01*
X204274Y420580D01*
X203544Y420882D01*
D02*
G37*
G36*
X221079Y418028D02*
X217110D01*
Y412484D01*
X217272D01*
Y411925D01*
X211433D01*
X211402Y411925D01*
X211039D01*
X211008Y411925D01*
X210287D01*
Y412484D01*
X210449D01*
Y418028D01*
X206480D01*
Y412484D01*
X206642D01*
Y411925D01*
X200772D01*
Y406185D01*
X201470D01*
X201756Y405906D01*
Y405117D01*
X202058Y404388D01*
X202616Y403830D01*
X203345Y403528D01*
X204135D01*
X204864Y403830D01*
X205422Y404388D01*
X205724Y405117D01*
Y405906D01*
X205910Y406185D01*
X206491D01*
X206677Y405906D01*
Y405117D01*
X206979Y404388D01*
X207537Y403830D01*
X208267Y403528D01*
X209056D01*
X209785Y403830D01*
X210344Y404388D01*
X210646Y405117D01*
Y405868D01*
X210924Y406185D01*
X211008D01*
X211039Y406185D01*
X211402D01*
X211433Y406185D01*
X212519D01*
Y405737D01*
X212519Y405737D01*
X212583Y405419D01*
Y405117D01*
X212885Y404388D01*
X213443Y403830D01*
X214172Y403528D01*
X214962D01*
X215691Y403830D01*
X216249Y404388D01*
X216551Y405117D01*
Y405906D01*
X216737Y406185D01*
X217218D01*
X217504Y405906D01*
Y405117D01*
X217806Y404388D01*
X218364Y403830D01*
X219093Y403528D01*
X219883D01*
X220612Y403830D01*
X221170Y404388D01*
X221472Y405117D01*
Y405906D01*
X221659Y406185D01*
X221669D01*
Y411925D01*
X220917D01*
Y412484D01*
X221079D01*
Y418028D01*
D02*
G37*
G36*
X338697Y410449D02*
X336130D01*
Y407980D01*
X338697D01*
Y410449D01*
D02*
G37*
G36*
X282042Y405724D02*
X281996D01*
Y402075D01*
X285646D01*
Y402121D01*
X285363Y403176D01*
X284817Y404123D01*
X284044Y404895D01*
X283098Y405442D01*
X282042Y405724D01*
D02*
G37*
G36*
X280996D02*
X280950D01*
X279894Y405442D01*
X278948Y404895D01*
X278176Y404123D01*
X277629Y403176D01*
X277346Y402121D01*
Y402075D01*
X280996D01*
Y405724D01*
D02*
G37*
G36*
X355209Y403657D02*
X353134D01*
Y401287D01*
X355209D01*
Y403657D01*
D02*
G37*
G36*
X493004D02*
X490929D01*
Y401287D01*
X493004D01*
Y403657D01*
D02*
G37*
G36*
X548122D02*
X546047D01*
Y401287D01*
X548122D01*
Y403657D01*
D02*
G37*
G36*
X465445D02*
X463370D01*
Y401287D01*
X465445D01*
Y403657D01*
D02*
G37*
G36*
X520563D02*
X518488D01*
Y401287D01*
X520563D01*
Y403657D01*
D02*
G37*
G36*
X437886D02*
X435811D01*
Y401287D01*
X437886D01*
Y403657D01*
D02*
G37*
G36*
X363402D02*
X356209D01*
Y400787D01*
X355709D01*
Y400287D01*
X353134D01*
Y397917D01*
X353399D01*
X353724Y397752D01*
X353724Y397524D01*
Y395480D01*
X357693D01*
Y397524D01*
X357693Y397752D01*
X358018Y397917D01*
X358517D01*
X358842Y397752D01*
Y392209D01*
X362811D01*
Y397752D01*
X363136Y397917D01*
X363402D01*
Y398408D01*
X363729Y398627D01*
X363778Y398606D01*
X364568D01*
X365297Y398908D01*
X365855Y399467D01*
X366158Y400196D01*
Y400985D01*
X365855Y401715D01*
X365297Y402273D01*
X364568Y402575D01*
X363778D01*
X363402Y402835D01*
Y403657D01*
D02*
G37*
G36*
X285646Y401075D02*
X281996D01*
Y397425D01*
X282042D01*
X283098Y397708D01*
X284044Y398254D01*
X284817Y399027D01*
X285363Y399973D01*
X285646Y401028D01*
Y401075D01*
D02*
G37*
G36*
X280996D02*
X277346D01*
Y401028D01*
X277629Y399973D01*
X278176Y399027D01*
X278948Y398254D01*
X279894Y397708D01*
X280950Y397425D01*
X280996D01*
Y401075D01*
D02*
G37*
G36*
X550606Y394480D02*
X549122D01*
Y392209D01*
X550606D01*
Y394480D01*
D02*
G37*
G36*
X548122D02*
X546638D01*
Y392209D01*
X548122D01*
Y394480D01*
D02*
G37*
G36*
X523047D02*
X521563D01*
Y392209D01*
X523047D01*
Y394480D01*
D02*
G37*
G36*
X520563D02*
X519079D01*
Y392209D01*
X520563D01*
Y394480D01*
D02*
G37*
G36*
X495488D02*
X494004D01*
Y392209D01*
X495488D01*
Y394480D01*
D02*
G37*
G36*
X493004D02*
X491520D01*
Y392209D01*
X493004D01*
Y394480D01*
D02*
G37*
G36*
X465445D02*
X463961D01*
Y392209D01*
X465445D01*
Y394480D01*
D02*
G37*
G36*
X440370D02*
X438886D01*
Y392209D01*
X440370D01*
Y394480D01*
D02*
G37*
G36*
X437886D02*
X436402D01*
Y392209D01*
X437886D01*
Y394480D01*
D02*
G37*
G36*
X357693D02*
X356209D01*
Y392209D01*
X357693D01*
Y394480D01*
D02*
G37*
G36*
X355209D02*
X353724D01*
Y392209D01*
X355209D01*
Y394480D01*
D02*
G37*
G36*
X347696Y367600D02*
X339397D01*
Y359301D01*
X347696D01*
Y367600D01*
D02*
G37*
G36*
X553165Y388894D02*
X549197D01*
Y386554D01*
X548711Y386230D01*
X548711Y386230D01*
X547333Y384852D01*
X546938Y384260D01*
X546800Y383563D01*
X546800Y383563D01*
Y383185D01*
X546047D01*
Y377445D01*
X551918D01*
Y376542D01*
X549893Y374517D01*
X549497Y373926D01*
X549359Y373228D01*
X549359Y373228D01*
Y337024D01*
X545063D01*
Y329118D01*
X557299D01*
Y337024D01*
X553004D01*
Y372474D01*
X555029Y374499D01*
X555029Y374499D01*
X555424Y375090D01*
X555563Y375787D01*
Y377445D01*
X556315D01*
Y383185D01*
X553491D01*
X553165Y383350D01*
Y388894D01*
D02*
G37*
G36*
X525606D02*
X521638D01*
Y386554D01*
X521152Y386230D01*
X521152Y386230D01*
X519774Y384852D01*
X519379Y384260D01*
X519241Y383563D01*
X519241Y383563D01*
Y383185D01*
X518488D01*
Y377445D01*
X524359D01*
Y376542D01*
X522333Y374517D01*
X521938Y373926D01*
X521800Y373228D01*
X521800Y373228D01*
Y337024D01*
X517504D01*
Y329118D01*
X529740D01*
Y337024D01*
X525445D01*
Y372474D01*
X527470Y374499D01*
X527470Y374499D01*
X527865Y375090D01*
X528004Y375787D01*
Y377445D01*
X528756D01*
Y383185D01*
X525932D01*
X525606Y383350D01*
Y388894D01*
D02*
G37*
G36*
X498047D02*
X494079D01*
Y386554D01*
X493593Y386230D01*
X493593Y386230D01*
X492215Y384852D01*
X491820Y384260D01*
X491681Y383563D01*
X491681Y383563D01*
Y383185D01*
X490929D01*
Y377445D01*
X496800D01*
Y376542D01*
X494774Y374517D01*
X494379Y373926D01*
X494241Y373228D01*
X494241Y373228D01*
Y337024D01*
X489945D01*
Y329118D01*
X502181D01*
Y337024D01*
X497885D01*
Y372474D01*
X499911Y374499D01*
X499911Y374499D01*
X500306Y375090D01*
X500445Y375787D01*
Y377445D01*
X501197D01*
Y383185D01*
X498373D01*
X498047Y383350D01*
Y388894D01*
D02*
G37*
G36*
X557299Y325213D02*
X545063D01*
Y323476D01*
X544093D01*
X543702Y323638D01*
X542912D01*
X542183Y323336D01*
X541625Y322778D01*
X541323Y322048D01*
Y321259D01*
X541625Y320530D01*
X542183Y319971D01*
X542912Y319669D01*
X543702D01*
X544093Y319831D01*
X545063D01*
Y317307D01*
X557299D01*
Y325213D01*
D02*
G37*
G36*
X529740D02*
X517504D01*
Y323476D01*
X516533D01*
X516143Y323638D01*
X515353D01*
X514624Y323336D01*
X514066Y322778D01*
X513764Y322048D01*
Y321259D01*
X514066Y320530D01*
X514624Y319971D01*
X515353Y319669D01*
X516143D01*
X516533Y319831D01*
X517504D01*
Y317307D01*
X529740D01*
Y325213D01*
D02*
G37*
G36*
X502181D02*
X489945D01*
Y323476D01*
X488974D01*
X488584Y323638D01*
X487794D01*
X487065Y323336D01*
X486507Y322778D01*
X486205Y322048D01*
Y321259D01*
X486507Y320530D01*
X487065Y319971D01*
X487794Y319669D01*
X488584D01*
X488974Y319831D01*
X489945D01*
Y317307D01*
X502181D01*
Y325213D01*
D02*
G37*
G36*
X474622D02*
X462386D01*
Y323476D01*
X461415D01*
X461025Y323638D01*
X460235D01*
X459506Y323336D01*
X458948Y322778D01*
X458646Y322048D01*
Y321259D01*
X458948Y320530D01*
X459506Y319971D01*
X460235Y319669D01*
X461025D01*
X461415Y319831D01*
X462386D01*
Y317307D01*
X474622D01*
Y325213D01*
D02*
G37*
G36*
X419504D02*
X407268D01*
Y323476D01*
X406297D01*
X405906Y323638D01*
X405117D01*
X404388Y323336D01*
X403830Y322778D01*
X403528Y322048D01*
Y321259D01*
X403830Y320530D01*
X404388Y319971D01*
X405117Y319669D01*
X405906D01*
X406297Y319831D01*
X407268D01*
Y317307D01*
X419504D01*
Y325213D01*
D02*
G37*
G36*
X391945D02*
X379709D01*
Y323476D01*
X378738D01*
X378347Y323638D01*
X377558D01*
X376829Y323336D01*
X376271Y322778D01*
X375969Y322048D01*
Y321259D01*
X376271Y320530D01*
X376829Y319971D01*
X377558Y319669D01*
X378347D01*
X378738Y319831D01*
X379709D01*
Y317307D01*
X391945D01*
Y325213D01*
D02*
G37*
G36*
X364386D02*
X352150D01*
Y323476D01*
X351179D01*
X350788Y323638D01*
X349999D01*
X349270Y323336D01*
X348711Y322778D01*
X348410Y322048D01*
Y321259D01*
X348711Y320530D01*
X349270Y319971D01*
X349999Y319669D01*
X350788D01*
X351179Y319831D01*
X352150D01*
Y317307D01*
X364386D01*
Y325213D01*
D02*
G37*
G36*
X286939Y334071D02*
X285502D01*
X284091Y333790D01*
X282763Y333240D01*
X281568Y332441D01*
X280551Y331425D01*
X279752Y330229D01*
X279202Y328901D01*
X278921Y327491D01*
Y326053D01*
X279202Y324642D01*
X279752Y323314D01*
X280551Y322119D01*
X281568Y321102D01*
X282763Y320303D01*
X284091Y319753D01*
X285502Y319472D01*
X286939D01*
X288350Y319753D01*
X289678Y320303D01*
X290874Y321102D01*
X291890Y322119D01*
X292689Y323314D01*
X293239Y324642D01*
X293520Y326053D01*
Y327491D01*
X293239Y328901D01*
X292689Y330229D01*
X291890Y331425D01*
X290874Y332441D01*
X289678Y333240D01*
X288350Y333790D01*
X286939Y334071D01*
D02*
G37*
G36*
X317475Y303362D02*
X317429D01*
Y299713D01*
X321079D01*
Y299759D01*
X320796Y300814D01*
X320250Y301761D01*
X319477Y302533D01*
X318531Y303079D01*
X317475Y303362D01*
D02*
G37*
G36*
X316429D02*
X316383D01*
X315327Y303079D01*
X314381Y302533D01*
X313609Y301761D01*
X313062Y300814D01*
X312779Y299759D01*
Y299713D01*
X316429D01*
Y303362D01*
D02*
G37*
G36*
X321079Y298713D02*
X317429D01*
Y295063D01*
X317475D01*
X318531Y295346D01*
X319477Y295892D01*
X320250Y296665D01*
X320796Y297611D01*
X321079Y298666D01*
Y298713D01*
D02*
G37*
G36*
X316429D02*
X312779D01*
Y298666D01*
X313062Y297611D01*
X313609Y296665D01*
X314381Y295892D01*
X315327Y295346D01*
X316383Y295063D01*
X316429D01*
Y298713D01*
D02*
G37*
G36*
X307633Y303362D02*
X306540D01*
X305485Y303079D01*
X304539Y302533D01*
X303766Y301761D01*
X303220Y300814D01*
X302937Y299759D01*
Y298666D01*
X303220Y297611D01*
X303766Y296665D01*
X304539Y295892D01*
X305485Y295346D01*
X306540Y295063D01*
X307633D01*
X308688Y295346D01*
X309634Y295892D01*
X310407Y296665D01*
X310953Y297611D01*
X311236Y298666D01*
Y299759D01*
X310953Y300814D01*
X310407Y301761D01*
X309634Y302533D01*
X308688Y303079D01*
X307633Y303362D01*
D02*
G37*
G36*
X297790D02*
X296698D01*
X295642Y303079D01*
X294696Y302533D01*
X293924Y301761D01*
X293377Y300814D01*
X293094Y299759D01*
Y298666D01*
X293377Y297611D01*
X293924Y296665D01*
X294696Y295892D01*
X295642Y295346D01*
X296698Y295063D01*
X297790D01*
X298846Y295346D01*
X299792Y295892D01*
X300565Y296665D01*
X301111Y297611D01*
X301394Y298666D01*
Y299759D01*
X301111Y300814D01*
X300565Y301761D01*
X299792Y302533D01*
X298846Y303079D01*
X297790Y303362D01*
D02*
G37*
G36*
X256771Y310213D02*
X255040D01*
X253330Y309942D01*
X251683Y309407D01*
X250140Y308621D01*
X248740Y307603D01*
X247515Y306379D01*
X246498Y304978D01*
X245711Y303435D01*
X245176Y301788D01*
X244905Y300078D01*
Y298347D01*
X245176Y296637D01*
X245711Y294990D01*
X246498Y293447D01*
X247515Y292047D01*
X248740Y290822D01*
X250140Y289805D01*
X251683Y289019D01*
X253330Y288484D01*
X255040Y288213D01*
X256771D01*
X258481Y288484D01*
X260128Y289019D01*
X261671Y289805D01*
X263071Y290822D01*
X264296Y292047D01*
X265314Y293447D01*
X266100Y294990D01*
X266635Y296637D01*
X266905Y298347D01*
Y300078D01*
X266635Y301788D01*
X266100Y303435D01*
X265314Y304978D01*
X264296Y306379D01*
X263071Y307603D01*
X261671Y308621D01*
X260128Y309407D01*
X258481Y309942D01*
X256771Y310213D01*
D02*
G37*
G36*
X146771D02*
X145040D01*
X143330Y309942D01*
X141683Y309407D01*
X140140Y308621D01*
X138740Y307603D01*
X137515Y306379D01*
X136497Y304978D01*
X135711Y303435D01*
X135176Y301788D01*
X134906Y300078D01*
Y298347D01*
X135176Y296637D01*
X135711Y294990D01*
X136497Y293447D01*
X137515Y292047D01*
X138740Y290822D01*
X140140Y289805D01*
X141683Y289019D01*
X143330Y288484D01*
X145040Y288213D01*
X146771D01*
X148481Y288484D01*
X150128Y289019D01*
X151671Y289805D01*
X153071Y290822D01*
X154296Y292047D01*
X155314Y293447D01*
X156100Y294990D01*
X156635Y296637D01*
X156905Y298347D01*
Y300078D01*
X156635Y301788D01*
X156100Y303435D01*
X155314Y304978D01*
X154296Y306379D01*
X153071Y307603D01*
X151671Y308621D01*
X150128Y309407D01*
X148481Y309942D01*
X146771Y310213D01*
D02*
G37*
G36*
X331709Y278165D02*
X325106D01*
Y275697D01*
X331709D01*
Y278165D01*
D02*
G37*
G36*
X324106D02*
X317504D01*
Y275697D01*
X324106D01*
Y278165D01*
D02*
G37*
G36*
X331709Y274697D02*
X325106D01*
Y272228D01*
X331709D01*
Y274697D01*
D02*
G37*
G36*
X324106D02*
X317504D01*
Y272228D01*
X324106D01*
Y274697D01*
D02*
G37*
G36*
X296669Y278165D02*
X282465D01*
Y272228D01*
X296669D01*
Y278165D01*
D02*
G37*
G36*
Y262417D02*
X282465D01*
Y256480D01*
X296669D01*
Y262417D01*
D02*
G37*
G36*
X557102Y258949D02*
X551181D01*
X545260D01*
Y255693D01*
X546603D01*
X546737Y255299D01*
X546142Y254843D01*
X545319Y253770D01*
X544801Y252521D01*
X544625Y251181D01*
X544801Y249841D01*
X545319Y248592D01*
X546142Y247520D01*
X547214Y246697D01*
X548463Y246179D01*
X549803Y246003D01*
X552559D01*
X553899Y246179D01*
X555148Y246697D01*
X556221Y247520D01*
X557044Y248592D01*
X557561Y249841D01*
X557737Y251181D01*
X557561Y252521D01*
X557044Y253770D01*
X556221Y254843D01*
X555625Y255299D01*
X555759Y255693D01*
X557102D01*
Y258949D01*
D02*
G37*
G36*
X529543Y258949D02*
X523622D01*
X517701D01*
Y255693D01*
X519044D01*
X519178Y255299D01*
X518583Y254843D01*
X517760Y253770D01*
X517242Y252521D01*
X517066Y251181D01*
X517242Y249841D01*
X517760Y248592D01*
X518583Y247520D01*
X519655Y246697D01*
X520904Y246179D01*
X522244Y246003D01*
X525000D01*
X526340Y246179D01*
X527589Y246697D01*
X528661Y247520D01*
X529484Y248592D01*
X530002Y249841D01*
X530178Y251181D01*
X530002Y252521D01*
X529484Y253770D01*
X528661Y254843D01*
X528066Y255299D01*
X528200Y255693D01*
X529543D01*
Y258949D01*
D02*
G37*
G36*
X501984Y258949D02*
X496063D01*
X490142D01*
Y255693D01*
X491485D01*
X491619Y255299D01*
X491023Y254843D01*
X490201Y253770D01*
X489683Y252521D01*
X489507Y251181D01*
X489683Y249841D01*
X490201Y248592D01*
X491023Y247520D01*
X492096Y246697D01*
X493345Y246179D01*
X494685Y246003D01*
X497441D01*
X498781Y246179D01*
X500030Y246697D01*
X501102Y247520D01*
X501925Y248592D01*
X502443Y249841D01*
X502619Y251181D01*
X502443Y252521D01*
X501925Y253770D01*
X501102Y254843D01*
X500507Y255299D01*
X500641Y255693D01*
X501984D01*
Y258949D01*
D02*
G37*
G36*
X474425Y258949D02*
X468504D01*
X462583D01*
Y255693D01*
X463926D01*
X464059Y255299D01*
X463464Y254843D01*
X462642Y253770D01*
X462124Y252521D01*
X461948Y251181D01*
X462124Y249841D01*
X462642Y248592D01*
X463464Y247520D01*
X464537Y246697D01*
X465786Y246179D01*
X467126Y246003D01*
X469882D01*
X471222Y246179D01*
X472471Y246697D01*
X473543Y247520D01*
X474366Y248592D01*
X474884Y249841D01*
X475060Y251181D01*
X474884Y252521D01*
X474366Y253770D01*
X473543Y254843D01*
X472948Y255299D01*
X473082Y255693D01*
X474425D01*
Y258949D01*
D02*
G37*
G36*
X446866Y258949D02*
X440945D01*
X435024D01*
Y255693D01*
X436367D01*
X436501Y255299D01*
X435905Y254843D01*
X435082Y253770D01*
X434565Y252521D01*
X434389Y251181D01*
X434565Y249841D01*
X435082Y248592D01*
X435905Y247520D01*
X436978Y246697D01*
X438227Y246179D01*
X439567Y246003D01*
X442323D01*
X443663Y246179D01*
X444912Y246697D01*
X445984Y247520D01*
X446807Y248592D01*
X447325Y249841D01*
X447501Y251181D01*
X447325Y252521D01*
X446807Y253770D01*
X445984Y254843D01*
X445389Y255299D01*
X445523Y255693D01*
X446866D01*
Y258949D01*
D02*
G37*
G36*
X419307Y258949D02*
X413386D01*
X407465D01*
Y255693D01*
X408808D01*
X408941Y255299D01*
X408346Y254843D01*
X407523Y253770D01*
X407006Y252521D01*
X406830Y251181D01*
X407006Y249841D01*
X407523Y248592D01*
X408346Y247520D01*
X409419Y246697D01*
X410668Y246179D01*
X412008Y246003D01*
X414764D01*
X416104Y246179D01*
X417353Y246697D01*
X418425Y247520D01*
X419248Y248592D01*
X419766Y249841D01*
X419942Y251181D01*
X419766Y252521D01*
X419248Y253770D01*
X418425Y254843D01*
X417830Y255299D01*
X417964Y255693D01*
X419307D01*
Y258949D01*
D02*
G37*
G36*
X391748Y258949D02*
X385827D01*
X379906D01*
Y255693D01*
X381249D01*
X381382Y255299D01*
X380787Y254843D01*
X379964Y253770D01*
X379447Y252521D01*
X379271Y251181D01*
X379447Y249841D01*
X379964Y248592D01*
X380787Y247520D01*
X381860Y246697D01*
X383109Y246179D01*
X384449Y246003D01*
X387205D01*
X388545Y246179D01*
X389794Y246697D01*
X390866Y247520D01*
X391689Y248592D01*
X392206Y249841D01*
X392383Y251181D01*
X392206Y252521D01*
X391689Y253770D01*
X390866Y254843D01*
X390271Y255299D01*
X390405Y255693D01*
X391748D01*
Y258949D01*
D02*
G37*
G36*
X364189Y258949D02*
X358268D01*
X352346D01*
Y255693D01*
X353690D01*
X353823Y255299D01*
X353228Y254843D01*
X352405Y253770D01*
X351888Y252521D01*
X351712Y251181D01*
X351888Y249841D01*
X352405Y248592D01*
X353228Y247520D01*
X354301Y246697D01*
X355550Y246179D01*
X356890Y246003D01*
X359646D01*
X360986Y246179D01*
X362235Y246697D01*
X363307Y247520D01*
X364130Y248592D01*
X364647Y249841D01*
X364824Y251181D01*
X364647Y252521D01*
X364130Y253770D01*
X363307Y254843D01*
X362712Y255299D01*
X362846Y255693D01*
X364189D01*
Y258949D01*
D02*
G37*
%LPD*%
G36*
X400737Y414895D02*
Y402665D01*
X400343Y402626D01*
X400293Y402875D01*
X399898Y403466D01*
X399898Y403466D01*
X393021Y410344D01*
X392430Y410739D01*
X391732Y410878D01*
X391732Y410878D01*
X390961D01*
Y411925D01*
X390961D01*
Y412091D01*
X390961D01*
Y412976D01*
X391733D01*
X392463Y413278D01*
X393021Y413837D01*
X393323Y414566D01*
Y415355D01*
X393021Y416085D01*
X392463Y416643D01*
X391733Y416945D01*
X390961D01*
Y417831D01*
X391327Y417898D01*
X391846D01*
Y420366D01*
X388779D01*
Y421366D01*
X391846D01*
Y423271D01*
X392210Y423422D01*
X400737Y414895D01*
D02*
G37*
G36*
X379807Y417898D02*
X380327D01*
X380693Y417831D01*
Y412091D01*
X380693D01*
Y411925D01*
X380693D01*
Y406185D01*
X390961D01*
Y406693D01*
X391354Y406856D01*
X396787Y401423D01*
Y366593D01*
X396424Y366442D01*
X396095Y366771D01*
X395148Y367317D01*
X394093Y367600D01*
X393000D01*
X391945Y367317D01*
X390999Y366771D01*
X390602Y366374D01*
X390208Y366537D01*
Y377445D01*
X390961D01*
Y383185D01*
X388136D01*
X387811Y383350D01*
Y388894D01*
X385557D01*
X385406Y389257D01*
X387328Y391180D01*
X387661Y391679D01*
X388156Y392174D01*
X388189D01*
X388189Y392174D01*
X388365Y392209D01*
X390370D01*
Y397752D01*
X390695Y397917D01*
X390961D01*
Y403657D01*
X383768D01*
Y400787D01*
X383268D01*
Y400287D01*
X380693D01*
Y397917D01*
X380958D01*
X381283Y397752D01*
Y395480D01*
X383268D01*
Y394480D01*
X381283D01*
Y392209D01*
X382688D01*
X382839Y391845D01*
X372258Y381264D01*
X371863Y380673D01*
X371724Y379976D01*
X371724Y379976D01*
Y367190D01*
X370999Y366771D01*
X370796Y366568D01*
X370432Y366719D01*
Y404619D01*
X370432Y404619D01*
X370293Y405316D01*
X369898Y405907D01*
X369898Y405907D01*
X365462Y410344D01*
X364871Y410739D01*
X364173Y410878D01*
X364173Y410878D01*
X363402D01*
Y411925D01*
X363402D01*
Y412091D01*
X363402D01*
Y412976D01*
X364174D01*
X364903Y413278D01*
X365462Y413837D01*
X365764Y414566D01*
Y415355D01*
X365462Y416085D01*
X364903Y416643D01*
X364174Y416945D01*
X363402D01*
Y417831D01*
X363768Y417898D01*
X364287D01*
Y420366D01*
X361221D01*
Y421366D01*
X364287D01*
Y423374D01*
X379807D01*
Y417898D01*
D02*
G37*
G36*
X406041Y405358D02*
X406176Y405156D01*
X408093Y403239D01*
X408093Y403239D01*
X408252Y403133D01*
Y401287D01*
X410827D01*
Y400287D01*
X408252D01*
Y397917D01*
X408517D01*
X408843Y397752D01*
X408843Y397524D01*
Y395480D01*
X412811D01*
Y397524D01*
X412811Y397752D01*
X413136Y397917D01*
X413635D01*
X413961Y397752D01*
Y392209D01*
X417929D01*
Y397752D01*
X418254Y397917D01*
X418520D01*
Y398408D01*
X418847Y398627D01*
X418897Y398606D01*
X419686D01*
X420415Y398908D01*
X420973Y399467D01*
X421073Y399706D01*
X421459Y399783D01*
X421724Y399517D01*
Y367190D01*
X420999Y366771D01*
X420796Y366568D01*
X420432Y366719D01*
Y369776D01*
X420293Y370474D01*
X419898Y371065D01*
X419898Y371065D01*
X417767Y373196D01*
Y377445D01*
X418520D01*
Y383185D01*
X415695D01*
X415370Y383350D01*
Y388894D01*
X411402D01*
Y386554D01*
X410916Y386230D01*
X410916Y386230D01*
X409538Y384852D01*
X409143Y384260D01*
X409004Y383563D01*
X409004Y383563D01*
Y383185D01*
X408252D01*
Y377445D01*
X414122D01*
Y372441D01*
X414122Y372441D01*
X414261Y371743D01*
X414656Y371152D01*
X416787Y369021D01*
Y366593D01*
X416424Y366442D01*
X416095Y366771D01*
X415148Y367317D01*
X414336Y367535D01*
X414326Y367582D01*
X413931Y368174D01*
X413931Y368174D01*
X404382Y377723D01*
Y406503D01*
X404745Y406654D01*
X406041Y405358D01*
D02*
G37*
G36*
X426661Y399108D02*
Y366719D01*
X426298Y366568D01*
X426095Y366771D01*
X425369Y367190D01*
Y399843D01*
X425763Y400006D01*
X426661Y399108D01*
D02*
G37*
%LPC*%
G36*
X382768Y403657D02*
X380693D01*
Y401287D01*
X382768D01*
Y403657D01*
D02*
G37*
G36*
X412811Y394480D02*
X411327D01*
Y392209D01*
X412811D01*
Y394480D01*
D02*
G37*
G36*
X410327D02*
X408843D01*
Y392209D01*
X410327D01*
Y394480D01*
D02*
G37*
%LPD*%
D13*
X460630Y432087D02*
X462598D01*
X459646Y433071D02*
X460630Y432087D01*
D15*
X443504Y414961D02*
D03*
X438386D02*
D03*
X526181Y400787D02*
D03*
X521063D02*
D03*
X471063D02*
D03*
X465945D02*
D03*
X443504D02*
D03*
X438386D02*
D03*
X443504Y409055D02*
D03*
X438386D02*
D03*
X443504Y380315D02*
D03*
X438386D02*
D03*
X471063D02*
D03*
X465945D02*
D03*
X471063Y409055D02*
D03*
X465945D02*
D03*
X471063Y414961D02*
D03*
X465945D02*
D03*
X553740D02*
D03*
X548622D02*
D03*
X498622Y400787D02*
D03*
X493504D02*
D03*
X553740D02*
D03*
X548622D02*
D03*
X553740Y380315D02*
D03*
X548622D02*
D03*
X553740Y409055D02*
D03*
X548622D02*
D03*
X498622Y414961D02*
D03*
X493504D02*
D03*
X526181Y380315D02*
D03*
X521063D02*
D03*
X526181Y409055D02*
D03*
X521063D02*
D03*
X498622Y380315D02*
D03*
X493504D02*
D03*
X498622Y409055D02*
D03*
X493504D02*
D03*
X335236Y401575D02*
D03*
X330118D02*
D03*
X213976Y409055D02*
D03*
X219094D02*
D03*
X203346D02*
D03*
X208465D02*
D03*
X335236Y395669D02*
D03*
X330118D02*
D03*
X526181Y414961D02*
D03*
X521063D02*
D03*
X415945Y400787D02*
D03*
X410827D02*
D03*
X360827D02*
D03*
X355709D02*
D03*
X415945Y409055D02*
D03*
X410827D02*
D03*
X415945Y380315D02*
D03*
X410827D02*
D03*
X388386Y409055D02*
D03*
X383268D02*
D03*
X388386Y414961D02*
D03*
X383268D02*
D03*
X415945D02*
D03*
X410827D02*
D03*
X360827Y380315D02*
D03*
X355709D02*
D03*
X360827Y409055D02*
D03*
X355709D02*
D03*
X360827Y414961D02*
D03*
X355709D02*
D03*
X388386Y400787D02*
D03*
X383268D02*
D03*
X388386Y380315D02*
D03*
X383268D02*
D03*
D16*
X440945Y321260D02*
D03*
Y333071D02*
D03*
X468504Y321260D02*
D03*
Y333071D02*
D03*
X496063Y321260D02*
D03*
Y333071D02*
D03*
X551181Y321260D02*
D03*
Y333071D02*
D03*
X523622Y321260D02*
D03*
Y333071D02*
D03*
X358268Y321260D02*
D03*
Y333071D02*
D03*
X413386Y321260D02*
D03*
Y333071D02*
D03*
X385827Y321260D02*
D03*
Y333071D02*
D03*
D17*
X335630Y407480D02*
D03*
X329724D02*
D03*
X443898Y420866D02*
D03*
X437992D02*
D03*
X471457D02*
D03*
X465551D02*
D03*
X554134D02*
D03*
X548228D02*
D03*
X361221D02*
D03*
X355315D02*
D03*
X499016D02*
D03*
X493110D02*
D03*
X459646Y433071D02*
D03*
X453740D02*
D03*
X526575Y420866D02*
D03*
X520669D02*
D03*
X416339D02*
D03*
X410433D02*
D03*
X388779D02*
D03*
X382874D02*
D03*
D18*
X553740Y394980D02*
D03*
X548622D02*
D03*
X551181Y386122D02*
D03*
X471063Y394980D02*
D03*
X465945D02*
D03*
X468504Y386122D02*
D03*
X443504Y394980D02*
D03*
X438386D02*
D03*
X440945Y386122D02*
D03*
X360827Y394980D02*
D03*
X355709D02*
D03*
X358268Y386122D02*
D03*
X526181Y394980D02*
D03*
X521063D02*
D03*
X523622Y386122D02*
D03*
X498622Y394980D02*
D03*
X493504D02*
D03*
X496063Y386122D02*
D03*
X213976Y415256D02*
D03*
X219094D02*
D03*
X216535Y424114D02*
D03*
X203346Y415256D02*
D03*
X208465D02*
D03*
X205906Y424114D02*
D03*
X415945Y394980D02*
D03*
X410827D02*
D03*
X413386Y386122D02*
D03*
X388386Y394980D02*
D03*
X383268D02*
D03*
X385827Y386122D02*
D03*
D19*
X289567Y259449D02*
D03*
Y275197D02*
D03*
X324606Y259449D02*
D03*
Y275197D02*
D03*
D33*
X448491Y430118D02*
X449295Y429315D01*
X444882Y431102D02*
X445866Y430118D01*
X447712Y427256D02*
X448228Y426740D01*
X452907Y432237D02*
X453740Y433071D01*
X435039Y435039D02*
X442823Y427256D01*
X445866Y430118D02*
X448491D01*
X446646Y424681D02*
X447162Y424165D01*
X442823Y427256D02*
X447712D01*
X440476Y424681D02*
X446646D01*
X442913Y431102D02*
X444882D01*
X434055D02*
X440476Y424681D01*
X451083Y432162D02*
X451158Y432237D01*
X452907D01*
X398610Y362205D02*
Y402178D01*
X398622Y275787D02*
Y362192D01*
X398610Y362205D02*
X398622Y362192D01*
X335630Y407480D02*
X338583D01*
X352756Y400772D02*
X352764Y400779D01*
X355701D01*
X355709Y400787D01*
X364098Y400666D02*
X364173Y400591D01*
X360827Y400787D02*
X360948Y400666D01*
X364098D01*
X453740Y389764D02*
X467520D01*
X470866Y393110D01*
Y394783D02*
X471063Y394980D01*
X470866Y393110D02*
Y394783D01*
X443504Y400787D02*
X443898Y401181D01*
Y404528D01*
X416066Y400666D02*
X419216D01*
X419291Y400591D01*
X415945Y400787D02*
X416066Y400666D01*
X419291Y404528D02*
X423547Y400272D01*
X428484Y278090D02*
Y399863D01*
X415945Y409055D02*
X419291D01*
X423547Y363450D02*
Y400272D01*
X419291Y409055D02*
X428484Y399863D01*
X409382Y404528D02*
X419291D01*
X498622Y400787D02*
X499016Y401181D01*
Y404528D01*
X526575Y401181D02*
Y404528D01*
X526181Y400787D02*
X526575Y401181D01*
X553740Y400787D02*
X554134Y401181D01*
Y404528D01*
X553740Y414961D02*
X556693D01*
X553740Y414961D02*
X553740Y414961D01*
X554134Y420866D02*
X557874D01*
X557874Y420866D01*
X449295Y429315D02*
X512220D01*
X447162Y424165D02*
X448800D01*
X452099Y420866D01*
X448228Y426740D02*
X487236D01*
X452099Y420866D02*
X465551D01*
X386039Y392468D02*
Y392634D01*
X373547Y379976D02*
X386039Y392468D01*
X388386Y394193D02*
Y394980D01*
X388189Y393996D02*
X388386Y394193D01*
X387402Y393996D02*
X388189D01*
X386039Y392634D02*
X387402Y393996D01*
X373547Y363450D02*
Y379976D01*
X443898Y420866D02*
X447638D01*
X447638Y420866D01*
X377953Y321654D02*
X385433D01*
X385827Y321260D01*
X355315Y420866D02*
X356410Y421962D01*
Y423997D01*
X357610Y425197D01*
X380217D01*
X383776Y428756D02*
X393094D01*
X405512Y416339D01*
X380217Y425197D02*
X383776Y428756D01*
X384842Y426181D02*
X392028D01*
X402559Y415650D01*
X382936Y424274D02*
X384842Y426181D01*
X393547Y433323D02*
Y443450D01*
X402559Y376969D02*
Y415650D01*
X406004Y420866D02*
X410433D01*
X393547Y433323D02*
X406004Y420866D01*
X405512Y408465D02*
Y416339D01*
X402559Y376969D02*
X412643Y366885D01*
X407465Y406445D02*
X409382Y404528D01*
X407465Y406445D02*
Y406512D01*
X405512Y408465D02*
X407465Y406512D01*
X382874Y420866D02*
X382936Y420928D01*
Y424274D01*
X391732Y409055D02*
X398610Y402178D01*
X390986Y268151D02*
X398622Y275787D01*
X412643Y364354D02*
Y366885D01*
Y364354D02*
X413547Y363450D01*
X546949Y422047D02*
X548130Y420866D01*
X548228D01*
X546949Y422047D02*
Y422146D01*
X520276Y448819D02*
X546949Y422146D01*
X443547Y443450D02*
X448915Y448819D01*
X520276D01*
X512220Y429315D02*
X519390Y422146D01*
Y422047D02*
Y422146D01*
Y422047D02*
X520571Y420866D01*
X520669D01*
X487236Y426740D02*
X491831Y422146D01*
Y422047D02*
Y422146D01*
Y422047D02*
X493012Y420866D01*
X434379Y439637D02*
Y442618D01*
Y439637D02*
X442913Y431102D01*
X433547Y443450D02*
X434379Y442618D01*
X493012Y420866D02*
X493110D01*
X425197Y435039D02*
X435039D01*
X423547Y436690D02*
X425197Y435039D01*
X423547Y436690D02*
Y443450D01*
X413547Y434878D02*
X417323Y431102D01*
X413547Y434878D02*
Y443450D01*
X417323Y431102D02*
X434055D01*
X453547Y443450D02*
X453740Y443257D01*
Y433071D02*
Y443257D01*
X403547Y434052D02*
X410433Y427165D01*
X403547Y434052D02*
Y443450D01*
X410433Y427165D02*
X431693D01*
X436713Y422047D02*
X437894Y420866D01*
X436713Y422047D02*
Y422146D01*
X431693Y427165D02*
X436713Y422146D01*
X437894Y420866D02*
X437992D01*
X473663Y268151D02*
X479331Y273819D01*
Y404134D01*
X474409Y409055D02*
X479331Y404134D01*
X448610Y270657D02*
Y407296D01*
X446104Y268151D02*
X448610Y270657D01*
X446850Y409055D02*
X448610Y407296D01*
X438610Y361405D02*
Y370696D01*
X443504Y375590D01*
X438610Y361405D02*
X440945Y359070D01*
Y333071D02*
Y359070D01*
X443504Y375590D02*
Y380315D01*
X418545Y268151D02*
X428484Y278090D01*
X413386Y333071D02*
Y342520D01*
X418610Y347744D02*
Y369776D01*
X413386Y342520D02*
X418610Y347744D01*
X415945Y372441D02*
Y380315D01*
Y372441D02*
X418610Y369776D01*
X385827Y339567D02*
X388610Y342350D01*
X385827Y333071D02*
Y339567D01*
X388610Y342350D02*
Y364343D01*
X388386Y364567D02*
Y380315D01*
Y364567D02*
X388610Y364343D01*
X364173Y409055D02*
X368610Y404619D01*
Y273334D02*
Y404619D01*
X367323Y272047D02*
X368610Y273334D01*
X336236Y267339D02*
Y393630D01*
X329724Y260827D02*
X336236Y267339D01*
X335827Y394040D02*
X336236Y393630D01*
X329724Y260433D02*
Y260827D01*
X335827Y394040D02*
Y395079D01*
X335236Y395669D02*
X335827Y395079D01*
X358268Y336221D02*
Y373228D01*
X328740Y259449D02*
X329724Y260433D01*
X468504Y336221D02*
Y373228D01*
X471063Y375787D02*
Y380315D01*
X468504Y373228D02*
X471063Y375787D01*
X324606Y259449D02*
X328740D01*
X324606Y279331D02*
X324803Y279528D01*
X324606Y275197D02*
Y279331D01*
X371063Y433071D02*
X373547Y435555D01*
Y443450D01*
X338583Y433071D02*
X371063D01*
X307087Y401575D02*
X338583Y433071D01*
X301181Y401575D02*
X307087D01*
X383547Y436696D02*
Y443450D01*
X375000Y428150D02*
X383547Y436696D01*
X329724Y413386D02*
X344488Y428150D01*
X375000D01*
X329724Y407480D02*
Y413386D01*
X330118Y401575D02*
Y407087D01*
Y395669D02*
Y401575D01*
X329724Y407480D02*
X330118Y407087D01*
X335236Y401575D02*
X338583D01*
X203346Y409055D02*
X203613Y408788D01*
Y405639D02*
Y408788D01*
Y405639D02*
X203740Y405512D01*
X208633Y405540D02*
X208661Y405512D01*
X208633Y405540D02*
Y408886D01*
X208465Y409055D02*
X208633Y408886D01*
X213976Y409055D02*
X214342Y408690D01*
Y405737D02*
Y408690D01*
Y405737D02*
X214567Y405512D01*
X219361Y405639D02*
X219488Y405512D01*
X219094Y409055D02*
X219361Y408788D01*
Y405639D02*
Y408788D01*
X213779Y416817D02*
X213976Y416620D01*
Y415256D02*
Y416620D01*
X213779Y416817D02*
Y418898D01*
X203150D02*
X203346Y418701D01*
Y415256D02*
Y418701D01*
X219094Y409055D02*
Y415256D01*
X208465Y409055D02*
Y415256D01*
X215905Y443213D02*
X216535Y442583D01*
Y424114D02*
Y442583D01*
X496063Y373228D02*
X498622Y375787D01*
X496063Y336221D02*
Y373228D01*
X498622Y375787D02*
Y380315D01*
X493504D02*
Y383563D01*
X494882Y384941D01*
X495669D02*
X496063Y385335D01*
X493504Y409055D02*
Y414961D01*
X498622Y414961D02*
X501575D01*
X498622Y414961D02*
X498622Y414961D01*
X493110Y415354D02*
Y420866D01*
Y415354D02*
X493504Y414961D01*
X490945Y394882D02*
X493405D01*
X493504Y394980D01*
X494882Y384941D02*
X495669D01*
X496063Y385335D02*
Y386122D01*
X495669Y321654D02*
X496063Y321260D01*
X488189Y321654D02*
X495669D01*
X499016Y420866D02*
X502756D01*
X502756Y420866D01*
X350394Y321654D02*
X357874D01*
X364961Y420866D02*
X364961Y420866D01*
X361221Y420866D02*
X364961D01*
X412992Y384941D02*
X413386Y385335D01*
X410827Y409055D02*
Y414961D01*
X415945D02*
X415945Y414961D01*
X418898D01*
X410433Y415354D02*
Y420866D01*
Y415354D02*
X410827Y414961D01*
X408268Y394882D02*
X410728D01*
X410827Y394980D01*
X412205Y384941D02*
X412992D01*
X413386Y385335D02*
Y386122D01*
X412992Y321654D02*
X413386Y321260D01*
X405512Y321654D02*
X412992D01*
X416339Y420866D02*
X420079D01*
X420079Y420866D01*
X385827Y267323D02*
X386655Y268151D01*
X390986D01*
X388386Y409055D02*
X391732D01*
X388386Y394980D02*
Y400787D01*
Y394980D02*
X388386D01*
X380315Y400787D02*
X380315Y400787D01*
X383268D01*
Y380315D02*
Y383563D01*
X384646Y384941D01*
X385433D02*
X385827Y385335D01*
X383268Y409055D02*
Y414961D01*
X388386Y414961D02*
X391339D01*
X388386Y414961D02*
X388386Y414961D01*
X382874Y415354D02*
Y420866D01*
Y415354D02*
X383268Y414961D01*
X380709Y394882D02*
X383169D01*
X383268Y394980D01*
X384646Y384941D02*
X385433D01*
X385827Y385335D02*
Y386122D01*
X392520Y420866D02*
X392520Y420866D01*
X388779Y420866D02*
X392520D01*
X358268Y267323D02*
X359096Y268151D01*
X363427D01*
X367323Y272047D01*
X360827Y409055D02*
X364173D01*
X360827Y394980D02*
Y400787D01*
Y394980D02*
X360827D01*
X358268Y373228D02*
X360827Y375787D01*
Y380315D01*
X355709D02*
Y383563D01*
X357087Y384941D01*
X357874D02*
X358268Y385335D01*
X355709Y409055D02*
Y414961D01*
X360827D02*
X360827Y414961D01*
X363779D01*
X355315Y415354D02*
Y420866D01*
Y415354D02*
X355709Y414961D01*
X353150Y394882D02*
X355610D01*
X355709Y394980D01*
X357087Y384941D02*
X357874D01*
X358268Y385335D02*
Y386122D01*
X357874Y321654D02*
X358268Y321260D01*
X468504Y267323D02*
X469333Y268151D01*
X473663D01*
X471063Y409055D02*
X474409D01*
X471063Y394980D02*
Y400787D01*
Y394980D02*
X471063D01*
X462992Y400787D02*
X462992Y400787D01*
X465945D01*
Y380315D02*
Y383563D01*
X467323Y384941D01*
X468110D02*
X468504Y385335D01*
X465945Y409055D02*
Y414961D01*
X471063Y414961D02*
X474016D01*
X471063Y414961D02*
X471063Y414961D01*
X465551Y415354D02*
Y420866D01*
Y415354D02*
X465945Y414961D01*
X463386Y394882D02*
X465846D01*
X465945Y394980D01*
X467323Y384941D02*
X468110D01*
X468504Y385335D02*
Y386122D01*
X468110Y321654D02*
X468504Y321260D01*
X460630Y321654D02*
X468110D01*
X471457Y420866D02*
X475197D01*
X475197Y420866D01*
X440945Y267323D02*
X441774Y268151D01*
X446104D01*
X443504Y409055D02*
X446850D01*
X443504Y394980D02*
Y400787D01*
Y394980D02*
X443504D01*
X435433Y400787D02*
X435433Y400787D01*
X438386D01*
Y380315D02*
Y383563D01*
X439764Y384941D01*
X440551D02*
X440945Y385335D01*
X438386Y409055D02*
Y414961D01*
X443504D02*
X443504Y414961D01*
X446457D01*
X437992Y415354D02*
Y420866D01*
Y415354D02*
X438386Y414961D01*
X435827Y394882D02*
X438287D01*
X438386Y394980D01*
X439764Y384941D02*
X440551D01*
X440945Y385335D02*
Y386122D01*
X440551Y321654D02*
X440945Y321260D01*
X433071Y321654D02*
X440551D01*
X413386Y267323D02*
X414215Y268151D01*
X418545D01*
X415945Y394980D02*
Y400787D01*
Y394980D02*
X415945D01*
X407874Y400787D02*
X407874Y400787D01*
X410827D01*
Y380315D02*
Y383563D01*
X412205Y384941D01*
X550000D02*
X550787D01*
X548622Y380315D02*
Y383563D01*
X550000Y384941D01*
X548622Y409055D02*
Y414961D01*
X548228Y415354D02*
Y420866D01*
Y415354D02*
X548622Y414961D01*
X553740Y375787D02*
Y380315D01*
X551181Y373228D02*
X553740Y375787D01*
X551181Y336221D02*
Y373228D01*
X552010Y268151D02*
X556340D01*
X551181Y267323D02*
X552010Y268151D01*
X556340D02*
X560236Y272047D01*
Y405905D01*
X553740Y409055D02*
X557087D01*
X560236Y405905D01*
X545669Y400787D02*
X548622D01*
X545669Y400787D02*
X545669Y400787D01*
X546063Y394882D02*
X548524D01*
X548622Y394980D01*
X543307Y321654D02*
X550787D01*
X551181Y321260D01*
X523622Y267323D02*
X524451Y268151D01*
X528781D01*
X532677Y272047D02*
Y405905D01*
X528781Y268151D02*
X532677Y272047D01*
X526181Y409055D02*
X529528D01*
X532677Y405905D01*
X526181Y394980D02*
Y400787D01*
Y394980D02*
X526181D01*
X518110Y400787D02*
X518110Y400787D01*
X521063D01*
X523622Y373228D02*
X526181Y375787D01*
X523622Y336221D02*
Y373228D01*
X526181Y375787D02*
Y380315D01*
X521063D02*
Y383563D01*
X522441Y384941D01*
X523228D02*
X523622Y385335D01*
X521063Y409055D02*
Y414961D01*
X526181Y414961D02*
X529134D01*
X526181Y414961D02*
X526181Y414961D01*
X520669Y415354D02*
Y420866D01*
Y415354D02*
X521063Y414961D01*
X518504Y394882D02*
X520965D01*
X521063Y394980D01*
X522441Y384941D02*
X523228D01*
X523622Y385335D02*
Y386122D01*
X523228Y321654D02*
X523622Y321260D01*
X515748Y321654D02*
X523228D01*
X526575Y420866D02*
X530315D01*
X530315Y420866D01*
X496063Y267323D02*
X496892Y268151D01*
X501222D01*
X505118Y272047D02*
Y405905D01*
X501222Y268151D02*
X505118Y272047D01*
X498622Y409055D02*
X501968D01*
X505118Y405905D01*
X498622Y394980D02*
Y400787D01*
Y394980D02*
X498622D01*
X490551Y400787D02*
X490551Y400787D01*
X493504D01*
X553740Y394980D02*
Y400787D01*
Y394980D02*
X553740D01*
X551181Y385335D02*
Y386122D01*
X550787Y384941D02*
X551181Y385335D01*
X205906Y424114D02*
Y443213D01*
D34*
X255906Y299213D02*
D03*
X145905D02*
D03*
D35*
X440945Y283465D02*
D03*
Y251181D02*
D03*
X413386Y283465D02*
D03*
Y251181D02*
D03*
X551181Y283465D02*
D03*
Y251181D02*
D03*
X523622Y283465D02*
D03*
Y251181D02*
D03*
X496063Y283465D02*
D03*
Y251181D02*
D03*
X468504Y283465D02*
D03*
Y251181D02*
D03*
X358268Y283465D02*
D03*
Y251181D02*
D03*
X385827Y283465D02*
D03*
Y251181D02*
D03*
D36*
X440945Y275197D02*
D03*
Y267323D02*
D03*
X413386Y275197D02*
D03*
Y267323D02*
D03*
X551181Y275197D02*
D03*
Y267323D02*
D03*
X523622Y275197D02*
D03*
Y267323D02*
D03*
X496063Y275197D02*
D03*
Y267323D02*
D03*
X468504Y275197D02*
D03*
Y267323D02*
D03*
X358268Y275197D02*
D03*
Y267323D02*
D03*
X385827Y275197D02*
D03*
Y267323D02*
D03*
D37*
X440945Y259449D02*
D03*
X413386D02*
D03*
X551181D02*
D03*
X523622D02*
D03*
X496063D02*
D03*
X468504D02*
D03*
X358268D02*
D03*
X385827D02*
D03*
D38*
X327953Y326772D02*
D03*
X286221D02*
D03*
D39*
X307087Y299213D02*
D03*
X316929D02*
D03*
X297244D02*
D03*
X281496Y401575D02*
D03*
X343547Y443450D02*
D03*
X353547D02*
D03*
X363547D02*
D03*
X373547D02*
D03*
X383547D02*
D03*
X393547D02*
D03*
X463547D02*
D03*
X453547D02*
D03*
X443547D02*
D03*
X433547D02*
D03*
X423547D02*
D03*
X413547D02*
D03*
X403547D02*
D03*
X215905Y443213D02*
D03*
X205906D02*
D03*
X195905D02*
D03*
X473547Y363450D02*
D03*
X463547D02*
D03*
X453547D02*
D03*
X443547D02*
D03*
X433547D02*
D03*
X423547D02*
D03*
X353547D02*
D03*
X363547D02*
D03*
X373547D02*
D03*
X383547D02*
D03*
X393547D02*
D03*
X403547D02*
D03*
X413547D02*
D03*
D40*
X301181Y401575D02*
D03*
D41*
X473547Y443450D02*
D03*
X185906Y443213D02*
D03*
X343547Y363450D02*
D03*
D42*
X555118Y228346D02*
D03*
X557087Y444882D02*
D03*
X135827Y228346D02*
D03*
X133858Y444882D02*
D03*
X222441Y413386D02*
D03*
X207480Y402756D02*
D03*
X216142D02*
D03*
X222441Y404331D02*
D03*
X551181Y405118D02*
D03*
X557480Y404724D02*
D03*
X529921Y404331D02*
D03*
X523228Y404724D02*
D03*
X502362Y404331D02*
D03*
X495669Y405118D02*
D03*
X420472Y397638D02*
D03*
X440551Y405118D02*
D03*
X454724Y386811D02*
D03*
X453740Y392717D02*
D03*
X451083Y432162D02*
D03*
X448205Y432890D02*
D03*
X338583Y407480D02*
D03*
X352756Y400772D02*
D03*
X364173Y400591D02*
D03*
X453740Y389764D02*
D03*
X443898Y404528D02*
D03*
X419291Y400591D02*
D03*
X499016Y404528D02*
D03*
X526575D02*
D03*
X554134D02*
D03*
X556693Y414961D02*
D03*
X557874Y420866D02*
D03*
X462598Y432087D02*
D03*
X447638Y420866D02*
D03*
X377953Y321654D02*
D03*
X324803Y279528D02*
D03*
X338583Y401575D02*
D03*
X203740Y405512D02*
D03*
X208661D02*
D03*
X214567D02*
D03*
X219488D02*
D03*
X213779Y418898D02*
D03*
X203150D02*
D03*
X364961Y420866D02*
D03*
X350394Y321654D02*
D03*
X353150Y394882D02*
D03*
X363779Y414961D02*
D03*
X392520Y420866D02*
D03*
X380709Y394882D02*
D03*
X391339Y414961D02*
D03*
X380315Y400787D02*
D03*
X420079Y420866D02*
D03*
X405512Y321654D02*
D03*
X408268Y394882D02*
D03*
X418898Y414961D02*
D03*
X407874Y400787D02*
D03*
X433071Y321654D02*
D03*
X435827Y394882D02*
D03*
X446457Y414961D02*
D03*
X435433Y400787D02*
D03*
X475197Y420866D02*
D03*
X460630Y321654D02*
D03*
X463386Y394882D02*
D03*
X474016Y414961D02*
D03*
X462992Y400787D02*
D03*
X502756Y420866D02*
D03*
X488189Y321654D02*
D03*
X490945Y394882D02*
D03*
X501575Y414961D02*
D03*
X490551Y400787D02*
D03*
X530315Y420866D02*
D03*
X515748Y321654D02*
D03*
X518504Y394882D02*
D03*
X529134Y414961D02*
D03*
X518110Y400787D02*
D03*
X543307Y321654D02*
D03*
X546063Y394882D02*
D03*
X545669Y400787D02*
D03*
M02*
